<?xml version="1.0" encoding="UTF-8"?>

<svg version="1.2" viewBox="0 0 21000 29700" preserveAspectRatio="xMidYMid" fill-rule="evenodd" stroke-width="28.222" stroke-linejoin="round" xmlns="http://www.w3.org/2000/svg" xmlns:ooo="http://xml.openoffice.org/svg/export" xmlns:xlink="http://www.w3.org/1999/xlink" xml:space="preserve">
 <defs class="ClipPathGroup">
  <clipPath id="presentation_clip_path" clipPathUnits="userSpaceOnUse">
   <rect x="0" y="0" width="21000" height="29700"/>
  </clipPath>
 </defs>
 <g class="SlideGroup">
  <g>
   <g id="id1" class="Slide" clip-path="url(#presentation_clip_path)">
    <g class="Page">
     <g class="com.sun.star.drawing.ClosedBezierShape">
      <g id="id3">
       <path fill="rgb(255,255,255)" stroke="none" d="M 16599,8689 C 16543,9175 16991,10110 17633,10848 18274,11585 18807,11777 18863,11290 18919,10804 18471,9869 17829,9132 17187,8394 16654,8203 16599,8689 Z M 16697,7831 L 16697,7831 Z M 18765,12149 L 18765,12149 Z"/>
       <path fill="none" stroke="rgb(0,0,0)" stroke-width="106" stroke-linejoin="round" stroke-linecap="square" d="M 16599,8689 C 16543,9175 16991,10110 17633,10848 18274,11585 18807,11777 18863,11290 18919,10804 18471,9869 17829,9132 17187,8394 16654,8203 16599,8689 Z"/>
      </g>
     </g>
     <g class="com.sun.star.drawing.CustomShape fill-path-status">
      <g id="id4">
       <path fill="rgb(255,255,255)" stroke="none" d="M 6688,17494 L 3232,17494 4096,12206 5824,12206 6688,17494 Z M 6688,17494 L 6688,17494 Z M 3232,12206 L 3232,12206 Z"/>
       <path fill="none" stroke="rgb(0,0,0)" stroke-width="81" stroke-linejoin="bevel" d="M 6688,17494 L 3232,17494 4096,12206 5824,12206 6688,17494 Z"/>
      </g>
     </g>
     <g class="com.sun.star.drawing.LineShape">
      <g id="id5" fill="none" stroke="rgb(0,0,0)">
       <path d="M 5621,15018 L 5628,15071"/>
       <path d="M 5635,15123 L 5642,15176"/>
       <path d="M 5649,15229 L 5656,15281"/>
       <path d="M 5663,15334 L 5670,15386"/>
       <path d="M 5677,15439 L 5684,15492"/>
       <path d="M 5691,15544 L 5698,15597"/>
       <path d="M 5705,15650 L 5712,15702"/>
       <path d="M 5719,15755 L 5726,15807"/>
       <path d="M 5733,15860 L 5740,15913"/>
       <path d="M 5747,15965 L 5754,16018"/>
       <path d="M 5761,16071 L 5768,16123"/>
       <path d="M 5775,16176 L 5782,16228"/>
       <path d="M 5789,16281 L 5796,16334"/>
       <path d="M 5803,16386 L 5810,16439"/>
       <path d="M 5817,16492 L 5824,16544"/>
       <path d="M 5832,16597 L 5839,16649"/>
       <path d="M 5846,16702 L 5853,16755"/>
       <path d="M 5860,16807 L 5867,16860"/>
       <path d="M 5874,16913 L 5875,16923"/>
      </g>
     </g>
     <g class="com.sun.star.drawing.ClosedBezierShape">
      <g id="id6" fill="none" stroke="rgb(0,0,0)" stroke-width="106">
       <path fill="rgb(255,255,255)" stroke="none" d="M 2674,11314 C 2554,12151 3516,13760 4896,15029 6275,16298 7420,16628 7540,15791 7659,14954 6697,13345 5318,12076 3938,10807 2793,10477 2674,11314 Z M 2885,9838 L 2885,9838 Z M 7329,17268 L 7329,17268 Z"/>
       <path d="M 3598,10929 C 3083,10756 2736,10874 2674,11314 2609,11767 2861,12446 3324,13174"/>
       <path d="M 3407,13302 C 3427,13332 3447,13362 3468,13392"/>
       <path d="M 3554,13515 C 3574,13544 3594,13572 3615,13601"/>
       <path d="M 3706,13723 C 3728,13752 3750,13780 3772,13809"/>
       <path d="M 3865,13927 C 3887,13955 3909,13982 3932,14009"/>
       <path d="M 4029,14126 C 4052,14154 4076,14181 4099,14208"/>
       <path d="M 4199,14322 C 4222,14348 4246,14374 4270,14400"/>
       <path d="M 4373,14512 C 4397,14538 4422,14564 4447,14589"/>
       <path d="M 4553,14698 C 4577,14723 4602,14748 4627,14773"/>
       <path d="M 4736,14879 C 4762,14904 4787,14928 4813,14953"/>
       <path d="M 4926,15057 C 4953,15082 4981,15107 5007,15131"/>
       <path d="M 5123,15232 C 5797,15813 6402,16157 6839,16235"/>
       <path d="M 6986,16252 C 7024,16253 7061,16252 7095,16249"/>
       <path d="M 7241,16216 C 7275,16203 7306,16187 7334,16167"/>
       <path d="M 7441,16062 C 7460,16034 7477,16004 7492,15970"/>
       <path d="M 7535,15823 C 7536,15813 7538,15802 7540,15791 7543,15768 7546,15743 7547,15719"/>
       <path d="M 7547,15565 C 7545,15531 7542,15496 7537,15460"/>
       <path d="M 7512,15312 C 7505,15276 7496,15240 7487,15204"/>
       <path d="M 7446,15063 C 7435,15030 7424,14996 7411,14962"/>
       <path d="M 7356,14817 C 7344,14786 7330,14754 7316,14722"/>
       <path d="M 7253,14583 C 7238,14550 7221,14517 7205,14484"/>
       <path d="M 7137,14353 C 7120,14322 7103,14291 7086,14260"/>
       <path d="M 7008,14125 C 6703,13608 6282,13057 5787,12537"/>
       <path d="M 5681,12428 C 5656,12403 5631,12378 5606,12353"/>
       <path d="M 5498,12246 C 5473,12222 5447,12197 5421,12173"/>
       <path d="M 5309,12068 C 5282,12044 5255,12019 5228,11995"/>
       <path d="M 5112,11893 C 5086,11870 5059,11847 5033,11824"/>
       <path d="M 4919,11730 C 4891,11707 4862,11684 4834,11662"/>
       <path d="M 4712,11567 C 4684,11545 4656,11525 4628,11504"/>
       <path d="M 4508,11418 C 4478,11396 4447,11376 4417,11355"/>
       <path d="M 4289,11272 C 4260,11253 4231,11235 4202,11218"/>
       <path d="M 4068,11141 C 4036,11123 4004,11106 3973,11090"/>
       <path d="M 3841,11026 C 3807,11010 3773,10995 3740,10982"/>
      </g>
     </g>
     <g class="com.sun.star.drawing.ClosedBezierShape">
      <g id="id7" fill="none" stroke="rgb(0,0,0)" stroke-width="106">
       <path fill="rgb(255,255,255)" stroke="none" d="M 2276,9453 C 2117,10624 3401,12875 5243,14651 7084,16426 8613,16888 8772,15717 8932,14545 7647,12295 5806,10520 3965,8744 2436,8282 2276,9453 Z M 2558,7388 L 2558,7388 Z M 8491,17783 L 8491,17783 Z"/>
       <path d="M 2276,9453 C 2210,9942 2395,10619 2767,11371"/>
       <path d="M 2834,11504 C 2850,11536 2867,11567 2884,11598"/>
       <path d="M 2958,11734 C 2975,11766 2993,11797 3011,11829"/>
       <path d="M 3086,11957 C 3103,11987 3121,12017 3140,12047"/>
       <path d="M 3219,12177 C 3238,12207 3257,12237 3277,12268"/>
       <path d="M 3361,12398 C 3380,12427 3399,12456 3419,12485"/>
       <path d="M 3503,12609 C 3523,12638 3544,12667 3564,12696"/>
       <path d="M 3653,12820 C 3674,12849 3695,12878 3716,12907"/>
       <path d="M 3807,13030 C 3828,13057 3849,13085 3870,13113"/>
       <path d="M 3963,13233 C 3985,13261 4007,13288 4029,13316"/>
       <path d="M 4125,13435 C 4147,13463 4170,13491 4193,13518"/>
       <path d="M 4290,13634 C 4585,13983 4904,14325 5243,14651 5397,14800 5549,14940 5699,15070"/>
       <path d="M 5812,15167 C 5840,15191 5868,15215 5896,15238"/>
       <path d="M 6016,15336 C 6044,15358 6072,15380 6099,15402"/>
       <path d="M 6217,15492 C 6244,15513 6271,15533 6298,15553"/>
       <path d="M 6426,15646 C 6456,15667 6486,15688 6515,15708"/>
       <path d="M 6640,15792 C 6669,15811 6698,15830 6726,15848"/>
       <path d="M 6856,15927 C 6888,15946 6920,15965 6952,15983"/>
       <path d="M 7085,16055 C 7116,16071 7146,16087 7176,16102"/>
       <path d="M 7315,16167 C 7349,16182 7382,16196 7415,16210"/>
       <path d="M 7555,16262 C 7588,16273 7620,16283 7651,16293"/>
       <path d="M 7806,16332 C 7841,16339 7875,16345 7909,16350"/>
       <path d="M 8059,16362 C 8455,16370 8712,16160 8772,15717 8808,15457 8772,15145 8676,14797"/>
       <path d="M 8633,14653 C 8622,14620 8611,14585 8599,14551"/>
       <path d="M 8546,14403 C 8534,14371 8522,14340 8509,14308"/>
       <path d="M 8453,14169 C 8439,14137 8425,14104 8410,14071"/>
       <path d="M 8345,13929 C 8330,13897 8315,13866 8299,13834"/>
       <path d="M 8233,13701 C 8217,13670 8200,13639 8184,13607"/>
       <path d="M 8111,13472 C 8093,13440 8076,13408 8058,13377"/>
       <path d="M 7983,13246 C 7965,13217 7948,13187 7929,13157"/>
       <path d="M 7851,13027 C 7832,12997 7813,12967 7794,12937"/>
       <path d="M 7710,12806 C 7691,12777 7671,12748 7652,12718"/>
       <path d="M 7568,12594 C 7548,12565 7528,12536 7508,12507"/>
       <path d="M 7419,12382 C 7046,11862 6611,11338 6130,10843"/>
       <path d="M 6024,10734 C 5999,10709 5974,10684 5949,10659"/>
       <path d="M 5840,10552 C 5829,10541 5817,10530 5806,10520 5791,10505 5776,10491 5762,10477"/>
       <path d="M 5648,10369 C 5621,10345 5595,10321 5569,10297"/>
       <path d="M 5457,10195 C 5431,10172 5405,10149 5379,10126"/>
       <path d="M 5268,10030 C 5240,10006 5212,9982 5184,9959"/>
       <path d="M 5063,9860 C 5036,9837 5008,9815 4980,9793"/>
       <path d="M 4862,9701 C 4835,9680 4808,9660 4781,9640"/>
       <path d="M 4656,9548 C 4626,9527 4596,9506 4567,9485"/>
       <path d="M 4441,9399 C 4412,9380 4383,9361 4354,9343"/>
       <path d="M 4228,9265 C 4196,9245 4164,9226 4133,9208"/>
       <path d="M 3998,9133 C 3111,8657 2470,8693 2305,9310"/>
      </g>
     </g>
     <g class="com.sun.star.drawing.EllipseShape">
      <g id="id8">
       <defs>
        <mask id="mask1">
         <g>
          <defs>
           <linearGradient id="gradient1" x1="5532" y1="9157" x2="5532" y2="15528" gradientUnits="userSpaceOnUse">
            <stop offset="0.5" style="stop-color:rgb(128,128,128)"/>
            <stop offset="0.5" style="stop-color:rgb(128,128,128)"/>
            <stop offset="1" style="stop-color:rgb(128,128,128)"/>
            <stop offset="1" style="stop-color:rgb(128,128,128)"/>
           </linearGradient>
          </defs>
          <path style="fill:url(#gradient1)" d="M 2736,9157 L 8329,9157 8329,15528 2736,15528 2736,9157 Z"/>
         </g>
        </mask>
       </defs>
       <g style="mask:url(#mask1)" fill="none" stroke="rgb(0,0,0)">
        <path d="M 8317,15516 C 8300,15516 8283,15516 8266,15516"/>
        <path d="M 8215,15513 C 8198,15512 8181,15510 8164,15508"/>
        <path d="M 8114,15502 C 8097,15499 8081,15497 8064,15493"/>
        <path d="M 8014,15483 C 7997,15480 7981,15476 7964,15472"/>
        <path d="M 7915,15459 C 7899,15455 7882,15450 7866,15445"/>
        <path d="M 7817,15429 C 7801,15424 7785,15419 7769,15413"/>
        <path d="M 7721,15396 C 7712,15392 7702,15389 7692,15385 7686,15383 7679,15380 7673,15378"/>
        <path d="M 7626,15359 C 7610,15353 7594,15346 7579,15340"/>
        <path d="M 7532,15319 C 7516,15313 7501,15306 7485,15299"/>
        <path d="M 7439,15277 C 7424,15270 7408,15262 7393,15255"/>
        <path d="M 7347,15232 C 7332,15225 7317,15217 7302,15209"/>
        <path d="M 7257,15185 C 7242,15177 7227,15169 7212,15161"/>
        <path d="M 7168,15136 C 7153,15127 7139,15119 7124,15110"/>
        <path d="M 7080,15084 C 7065,15075 7051,15066 7037,15057"/>
        <path d="M 6993,15030 C 6979,15021 6965,15012 6950,15003"/>
        <path d="M 6908,14975 C 6894,14966 6880,14956 6866,14947"/>
        <path d="M 6823,14918 C 6809,14908 6795,14898 6781,14888"/>
        <path d="M 6740,14859 C 6726,14850 6712,14840 6699,14830"/>
        <path d="M 6657,14799 C 6643,14789 6630,14779 6616,14768"/>
        <path d="M 6576,14738 C 6562,14728 6549,14718 6536,14707"/>
        <path d="M 6495,14676 C 6482,14665 6468,14654 6454,14644"/>
        <path d="M 6415,14612 C 6402,14602 6389,14591 6376,14580"/>
        <path d="M 6336,14548 C 6323,14537 6310,14526 6297,14515"/>
        <path d="M 6258,14482 C 6245,14472 6232,14461 6219,14450"/>
        <path d="M 6181,14417 C 6168,14405 6155,14394 6142,14383"/>
        <path d="M 6103,14349 C 6090,14337 6077,14326 6064,14315"/>
        <path d="M 6026,14281 C 6014,14269 6001,14258 5988,14247"/>
        <path d="M 5951,14213 C 5938,14201 5926,14190 5913,14178"/>
        <path d="M 5876,14143 C 5863,14132 5851,14120 5838,14109"/>
        <path d="M 5801,14074 C 5789,14062 5777,14050 5764,14038"/>
        <path d="M 5728,14003 C 5715,13991 5703,13979 5691,13968"/>
        <path d="M 5655,13932 C 5643,13920 5631,13908 5618,13896"/>
        <path d="M 5582,13860 C 5570,13848 5559,13836 5547,13824"/>
        <path d="M 5511,13787 C 5499,13775 5487,13763 5475,13751"/>
        <path d="M 5440,13714 C 5428,13702 5417,13689 5405,13677"/>
        <path d="M 5370,13640 C 5358,13628 5347,13615 5335,13603"/>
        <path d="M 5300,13565 C 5289,13553 5277,13540 5266,13527"/>
        <path d="M 5232,13490 C 5220,13477 5209,13465 5198,13452"/>
        <path d="M 5164,13414 C 5153,13401 5141,13388 5130,13376"/>
        <path d="M 5096,13337 C 5085,13324 5074,13312 5063,13299"/>
        <path d="M 5030,13260 C 5019,13247 5008,13234 4997,13221"/>
        <path d="M 4964,13182 C 4953,13169 4942,13156 4931,13143"/>
        <path d="M 4898,13104 C 4888,13091 4877,13078 4866,13065"/>
        <path d="M 4834,13025 C 4823,13012 4812,12999 4802,12986"/>
        <path d="M 4770,12946 C 4759,12933 4748,12919 4738,12906"/>
        <path d="M 4706,12866 C 4696,12853 4685,12840 4675,12826"/>
        <path d="M 4643,12786 C 4633,12772 4622,12759 4612,12745"/>
        <path d="M 4581,12705 C 4571,12692 4561,12678 4550,12665"/>
        <path d="M 4520,12624 C 4509,12611 4499,12597 4489,12583"/>
        <path d="M 4458,12542 C 4447,12528 4437,12514 4427,12500"/>
        <path d="M 4397,12459 C 4386,12445 4376,12432 4366,12418"/>
        <path d="M 4337,12377 C 4327,12363 4317,12350 4307,12336"/>
        <path d="M 4277,12294 C 4267,12280 4257,12266 4247,12252"/>
        <path d="M 4218,12211 C 4208,12197 4199,12183 4189,12169"/>
        <path d="M 4160,12128 C 4150,12114 4141,12099 4131,12085"/>
        <path d="M 4102,12043 C 4093,12029 4083,12015 4074,12001"/>
        <path d="M 4045,11959 C 4036,11945 4027,11931 4017,11916"/>
        <path d="M 3989,11874 C 3980,11859 3970,11845 3961,11831"/>
        <path d="M 3933,11788 C 3924,11774 3915,11759 3906,11745"/>
        <path d="M 3879,11702 C 3870,11688 3861,11673 3851,11659"/>
        <path d="M 3825,11616 C 3816,11601 3807,11587 3798,11572"/>
        <path d="M 3771,11529 C 3763,11514 3754,11500 3745,11485"/>
        <path d="M 3719,11441 C 3710,11427 3702,11412 3693,11397"/>
        <path d="M 3667,11353 C 3659,11339 3650,11324 3642,11309"/>
        <path d="M 3616,11265 C 3608,11250 3600,11235 3591,11220"/>
        <path d="M 3567,11176 C 3558,11161 3550,11146 3542,11131"/>
        <path d="M 3518,11087 C 3509,11072 3501,11057 3493,11042"/>
        <path d="M 3469,10997 C 3461,10982 3453,10967 3446,10952"/>
        <path d="M 3422,10906 C 3414,10891 3406,10876 3399,10861"/>
        <path d="M 3376,10816 C 3368,10800 3360,10785 3353,10770"/>
        <path d="M 3330,10724 C 3322,10709 3315,10694 3307,10679"/>
        <path d="M 3285,10633 C 3278,10617 3271,10602 3263,10587"/>
        <path d="M 3241,10541 C 3234,10525 3227,10510 3220,10494"/>
        <path d="M 3198,10448 C 3191,10432 3184,10416 3177,10401"/>
        <path d="M 3156,10355 C 3149,10339 3142,10324 3136,10308"/>
        <path d="M 3115,10261 C 3108,10245 3101,10230 3095,10214"/>
        <path d="M 3075,10168 C 3068,10152 3062,10136 3055,10120"/>
        <path d="M 3036,10073 C 3030,10058 3023,10042 3017,10026"/>
        <path d="M 2998,9978 C 2992,9963 2986,9947 2980,9931"/>
        <path d="M 2962,9883 C 2956,9867 2950,9851 2944,9835"/>
        <path d="M 2927,9788 C 2922,9772 2916,9755 2911,9739"/>
        <path d="M 2894,9691 C 2889,9675 2883,9659 2878,9643"/>
        <path d="M 2863,9594 C 2858,9578 2853,9562 2848,9545"/>
        <path d="M 2833,9497 C 2828,9480 2824,9464 2819,9448"/>
        <path d="M 2805,9399 C 2801,9382 2796,9366 2792,9349"/>
        <path d="M 2779,9300 C 2775,9283 2771,9267 2767,9250"/>
        <path d="M 2755,9201 C 2753,9190 2750,9179 2748,9169"/>
       </g>
      </g>
     </g>
     <g class="com.sun.star.drawing.ClosedBezierShape">
      <g id="id9" fill="none" stroke="rgb(0,0,0)" stroke-width="106">
       <path fill="rgb(255,255,255)" stroke="none" d="M 2079,7043 C 1843,8696 3743,11874 6468,14380 9192,16887 11454,17538 11690,15885 11926,14231 10025,11054 7301,8548 4577,6041 2315,5389 2079,7043 Z M 2496,4127 L 2496,4127 Z M 11274,18803 L 11274,18803 Z"/>
       <path d="M 3562,6186 C 2735,6004 2189,6275 2079,7043 2005,7563 2142,8235 2451,8990"/>
       <path d="M 2508,9126 C 2522,9158 2536,9190 2550,9223"/>
       <path d="M 2613,9362 C 2629,9395 2644,9427 2660,9460"/>
       <path d="M 2729,9602 C 2745,9633 2760,9664 2776,9694"/>
       <path d="M 2844,9826 C 2860,9856 2877,9887 2893,9918"/>
       <path d="M 2967,10051 C 2984,10082 3001,10113 3019,10145"/>
       <path d="M 3097,10279 C 3115,10311 3134,10342 3152,10374"/>
       <path d="M 3229,10501 C 3247,10531 3266,10560 3284,10590"/>
       <path d="M 3364,10717 C 3383,10747 3402,10776 3421,10806"/>
       <path d="M 3505,10934 C 3525,10964 3544,10994 3564,11024"/>
       <path d="M 3652,11153 C 3672,11182 3692,11211 3712,11240"/>
       <path d="M 3798,11362 C 4168,11885 4588,12415 5048,12934"/>
       <path d="M 5149,13047 C 5173,13073 5196,13099 5220,13125"/>
       <path d="M 5323,13237 C 5347,13263 5371,13289 5395,13315"/>
       <path d="M 5499,13426 C 5524,13452 5549,13478 5573,13503"/>
       <path d="M 5680,13614 C 5704,13639 5729,13664 5753,13689"/>
       <path d="M 5860,13797 C 5885,13822 5910,13846 5935,13871"/>
       <path d="M 6043,13978 C 6068,14002 6094,14027 6119,14052"/>
       <path d="M 6229,14157 C 6255,14181 6281,14206 6306,14230"/>
       <path d="M 6418,14334 C 6435,14350 6451,14365 6468,14380 6478,14389 6488,14399 6498,14408"/>
       <path d="M 6614,14514 C 6641,14538 6668,14562 6695,14586"/>
       <path d="M 6811,14688 C 6837,14712 6864,14735 6891,14758"/>
       <path d="M 7005,14856 C 7574,15340 8117,15737 8619,16043"/>
       <path d="M 8742,16117 C 8775,16136 8807,16155 8839,16173"/>
       <path d="M 8977,16250 C 9009,16267 9040,16284 9072,16301"/>
       <path d="M 9206,16369 C 9236,16385 9267,16400 9298,16414"/>
       <path d="M 9429,16475 C 9464,16491 9499,16506 9533,16520"/>
       <path d="M 9679,16579 C 9712,16592 9745,16605 9778,16616"/>
       <path d="M 9917,16663 C 9948,16674 9980,16683 10011,16692"/>
       <path d="M 10168,16733 C 10204,16742 10239,16749 10274,16756"/>
       <path d="M 10421,16780 C 10454,16784 10487,16787 10519,16790"/>
       <path d="M 10679,16796 C 10715,16796 10751,16794 10786,16791"/>
       <path d="M 10931,16772 C 10966,16765 11000,16756 11034,16746"/>
       <path d="M 11177,16690 C 11454,16555 11632,16288 11690,15885 11731,15595 11707,15258 11624,14886"/>
       <path d="M 11586,14730 C 11578,14697 11569,14665 11560,14632"/>
       <path d="M 11518,14491 C 11508,14458 11497,14425 11486,14391"/>
       <path d="M 11436,14245 C 11424,14211 11411,14177 11398,14142"/>
       <path d="M 11342,13998 C 11330,13966 11317,13935 11304,13903"/>
       <path d="M 11246,13766 C 11232,13734 11218,13702 11203,13670"/>
       <path d="M 11139,13530 C 11123,13497 11108,13464 11092,13432"/>
       <path d="M 11022,13291 C 11007,13261 10992,13230 10976,13200"/>
       <path d="M 10907,13068 C 10890,13037 10874,13007 10857,12976"/>
       <path d="M 10783,12842 C 10766,12811 10748,12780 10730,12749"/>
       <path d="M 10652,12614 C 10634,12583 10615,12552 10596,12521"/>
       <path d="M 10520,12394 C 10190,11858 9800,11305 9361,10755"/>
       <path d="M 9266,10637 C 9244,10610 9222,10583 9199,10556"/>
       <path d="M 9102,10438 C 9080,10411 9057,10384 9034,10357"/>
       <path d="M 8934,10240 C 8911,10212 8888,10185 8864,10158"/>
       <path d="M 8764,10044 C 8741,10018 8718,9991 8695,9965"/>
       <path d="M 8594,9853 C 8570,9826 8547,9800 8523,9774"/>
       <path d="M 8420,9662 C 8396,9636 8372,9611 8347,9585"/>
       <path d="M 8242,9473 C 8218,9448 8193,9422 8168,9396"/>
       <path d="M 8062,9286 C 8038,9261 8013,9236 7988,9211"/>
       <path d="M 7881,9104 C 7857,9079 7832,9054 7806,9029"/>
       <path d="M 7698,8923 C 7673,8898 7647,8874 7622,8849"/>
       <path d="M 7511,8744 C 7442,8678 7372,8613 7301,8548 6842,8125 6396,7755 5970,7440"/>
       <path d="M 5851,7353 C 5823,7333 5796,7314 5769,7294"/>
       <path d="M 5641,7205 C 5611,7184 5580,7163 5550,7143"/>
       <path d="M 5421,7057 C 5391,7037 5361,7018 5332,6999"/>
       <path d="M 5206,6919 C 5176,6901 5147,6883 5118,6866"/>
       <path d="M 4992,6791 C 4959,6772 4927,6753 4895,6735"/>
       <path d="M 4757,6659 C 4725,6642 4694,6625 4663,6609"/>
       <path d="M 4529,6542 C 4499,6527 4468,6512 4438,6498"/>
       <path d="M 4302,6436 C 4267,6420 4232,6406 4198,6392"/>
       <path d="M 4054,6334 C 4021,6322 3988,6310 3955,6299"/>
       <path d="M 3818,6253 C 3784,6243 3750,6233 3717,6224"/>
      </g>
     </g>
     <g class="com.sun.star.drawing.EllipseShape">
      <g id="id10">
       <defs>
        <mask id="mask2">
         <g>
          <defs>
           <linearGradient id="gradient2" x1="6082" y1="7257" x2="6082" y2="15109" gradientUnits="userSpaceOnUse">
            <stop offset="0.5" style="stop-color:rgb(128,128,128)"/>
            <stop offset="0.5" style="stop-color:rgb(128,128,128)"/>
            <stop offset="1" style="stop-color:rgb(128,128,128)"/>
            <stop offset="1" style="stop-color:rgb(128,128,128)"/>
           </linearGradient>
          </defs>
          <path style="fill:url(#gradient2)" d="M 2636,7257 L 9528,7257 9528,15109 2636,15109 2636,7257 Z"/>
         </g>
        </mask>
       </defs>
       <g style="mask:url(#mask2)">
        <path fill="none" stroke="rgb(0,0,0)" d="M 9516,15097 C 9499,15097 9482,15097 9465,15096"/>
        <path fill="none" stroke="rgb(0,0,0)" d="M 9414,15094 C 9397,15093 9381,15092 9364,15090"/>
        <path fill="none" stroke="rgb(0,0,0)" d="M 9313,15085 C 9296,15083 9279,15081 9262,15078"/>
        <path fill="none" stroke="rgb(0,0,0)" d="M 9212,15070 C 9195,15067 9179,15064 9162,15061"/>
        <path fill="none" stroke="rgb(0,0,0)" d="M 9112,15050 C 9096,15046 9079,15042 9063,15038"/>
        <path fill="none" stroke="rgb(0,0,0)" d="M 9013,15024 C 8997,15020 8981,15015 8965,15010"/>
        <path fill="none" stroke="rgb(0,0,0)" d="M 8916,14995 C 8900,14990 8884,14984 8868,14979"/>
        <path fill="none" stroke="rgb(0,0,0)" d="M 8819,14962 C 8804,14957 8788,14951 8771,14945"/>
        <path fill="none" stroke="rgb(0,0,0)" d="M 8724,14927 C 8708,14920 8692,14914 8676,14908"/>
        <path fill="none" stroke="rgb(0,0,0)" d="M 8629,14889 C 8613,14882 8598,14876 8582,14869"/>
        <path fill="none" stroke="rgb(0,0,0)" d="M 8535,14849 C 8520,14842 8504,14835 8489,14828"/>
        <path fill="none" stroke="rgb(0,0,0)" d="M 8443,14806 C 8427,14799 8412,14792 8396,14784"/>
        <path fill="none" stroke="rgb(0,0,0)" d="M 8351,14762 C 8336,14754 8321,14747 8305,14739"/>
        <path fill="none" stroke="rgb(0,0,0)" d="M 8260,14715 C 8245,14708 8230,14700 8215,14691"/>
        <path fill="none" stroke="rgb(0,0,0)" d="M 8170,14667 C 8155,14659 8141,14651 8126,14642"/>
        <path fill="none" stroke="rgb(0,0,0)" d="M 8082,14617 C 8067,14609 8052,14600 8037,14591"/>
        <path fill="none" stroke="rgb(0,0,0)" d="M 7993,14565 C 7979,14556 7964,14548 7950,14539"/>
        <path fill="none" stroke="rgb(0,0,0)" d="M 7907,14512 C 7893,14503 7878,14494 7864,14485"/>
        <path fill="none" stroke="rgb(0,0,0)" d="M 7820,14457 C 7806,14448 7792,14438 7778,14429"/>
        <path fill="none" stroke="rgb(0,0,0)" d="M 7736,14401 C 7722,14392 7708,14382 7694,14372"/>
        <path fill="none" stroke="rgb(0,0,0)" d="M 7651,14343 C 7637,14333 7623,14324 7609,14314"/>
        <path fill="none" stroke="rgb(0,0,0)" d="M 7568,14285 C 7555,14275 7541,14265 7527,14255"/>
        <path fill="none" stroke="rgb(0,0,0)" d="M 7486,14225 C 7472,14215 7458,14204 7444,14194"/>
        <path fill="none" stroke="rgb(0,0,0)" d="M 7403,14163 C 7390,14153 7377,14143 7363,14133"/>
        <path fill="none" stroke="rgb(0,0,0)" d="M 7323,14102 C 7310,14092 7296,14081 7283,14071"/>
        <path fill="none" stroke="rgb(0,0,0)" d="M 7242,14039 C 7229,14028 7215,14018 7202,14007"/>
        <path fill="none" stroke="rgb(0,0,0)" d="M 7163,13976 C 7150,13965 7137,13954 7124,13944"/>
        <path fill="none" stroke="rgb(0,0,0)" d="M 7084,13911 C 7071,13900 7058,13889 7044,13878"/>
        <path fill="none" stroke="rgb(0,0,0)" d="M 7004,13845 C 6992,13834 6979,13824 6966,13813"/>
        <path fill="none" stroke="rgb(0,0,0)" d="M 6928,13780 C 6915,13769 6902,13758 6889,13747"/>
        <path fill="none" stroke="rgb(0,0,0)" d="M 6850,13714 C 6837,13702 6824,13691 6811,13680"/>
        <path fill="none" stroke="rgb(0,0,0)" d="M 6772,13645 C 6760,13634 6747,13623 6734,13612"/>
        <path fill="none" stroke="rgb(0,0,0)" d="M 6696,13578 C 6683,13566 6671,13555 6658,13544"/>
        <path fill="none" stroke="rgb(0,0,0)" d="M 6620,13509 C 6608,13498 6595,13487 6583,13475"/>
        <path fill="none" stroke="rgb(0,0,0)" d="M 6545,13441 C 6533,13429 6520,13417 6508,13406"/>
        <path fill="none" stroke="rgb(0,0,0)" d="M 6470,13371 C 6458,13359 6446,13348 6433,13336"/>
        <path fill="none" stroke="rgb(0,0,0)" d="M 6396,13301 C 6384,13289 6372,13278 6359,13266"/>
        <path fill="none" stroke="rgb(0,0,0)" d="M 6323,13230 C 6311,13219 6298,13207 6286,13195"/>
        <path fill="none" stroke="rgb(0,0,0)" d="M 6250,13159 C 6238,13147 6225,13135 6213,13124"/>
        <path fill="none" stroke="rgb(0,0,0)" d="M 6177,13088 C 6165,13076 6153,13063 6141,13051"/>
        <path fill="none" stroke="rgb(0,0,0)" d="M 6105,13015 C 6093,13003 6082,12991 6070,12979"/>
        <path fill="none" stroke="rgb(0,0,0)" d="M 6034,12942 C 6022,12930 6010,12918 5999,12906"/>
        <path fill="none" stroke="rgb(0,0,0)" d="M 5963,12869 C 5952,12857 5940,12844 5928,12832"/>
        <path fill="none" stroke="rgb(0,0,0)" d="M 5893,12795 C 5882,12783 5870,12770 5858,12758"/>
        <path fill="none" stroke="rgb(0,0,0)" d="M 5824,12720 C 5812,12708 5801,12695 5789,12683"/>
        <path fill="none" stroke="rgb(0,0,0)" d="M 5754,12645 C 5743,12633 5732,12620 5720,12608"/>
        <path fill="none" stroke="rgb(0,0,0)" d="M 5686,12570 C 5675,12557 5664,12545 5652,12532"/>
        <path fill="none" stroke="rgb(0,0,0)" d="M 5618,12494 C 5607,12481 5596,12468 5584,12455"/>
        <path fill="none" stroke="rgb(0,0,0)" d="M 5551,12417 C 5540,12404 5528,12391 5517,12379"/>
        <path fill="none" stroke="rgb(0,0,0)" d="M 5484,12340 C 5473,12327 5462,12314 5451,12302"/>
        <path fill="none" stroke="rgb(0,0,0)" d="M 5418,12263 C 5407,12250 5396,12237 5385,12223"/>
        <path fill="none" stroke="rgb(0,0,0)" d="M 5352,12184 C 5341,12171 5330,12158 5320,12145"/>
        <path fill="none" stroke="rgb(0,0,0)" d="M 5287,12106 C 5276,12093 5266,12080 5255,12067"/>
        <path fill="none" stroke="rgb(0,0,0)" d="M 5223,12027 C 5212,12014 5201,12001 5190,11988"/>
        <path fill="none" stroke="rgb(0,0,0)" d="M 5158,11947 C 5147,11934 5137,11921 5126,11908"/>
        <path fill="none" stroke="rgb(0,0,0)" d="M 5095,11868 C 5084,11855 5074,11842 5063,11829"/>
        <path fill="none" stroke="rgb(0,0,0)" d="M 5032,11788 C 5021,11775 5011,11762 5000,11748"/>
        <path fill="none" stroke="rgb(0,0,0)" d="M 4968,11707 C 4958,11694 4948,11681 4938,11667"/>
        <path fill="none" stroke="rgb(0,0,0)" d="M 4907,11627 C 4896,11614 4886,11600 4876,11587"/>
        <path fill="none" stroke="rgb(0,0,0)" d="M 4845,11546 C 4835,11533 4824,11519 4814,11505"/>
        <path fill="none" stroke="rgb(0,0,0)" d="M 4783,11464 C 4777,11456 4771,11447 4764,11439 4760,11433 4756,11428 4752,11423"/>
        <path fill="none" stroke="rgb(0,0,0)" d="M 4722,11381 C 4711,11367 4701,11354 4691,11340"/>
        <path fill="none" stroke="rgb(0,0,0)" d="M 4661,11299 C 4651,11285 4641,11271 4631,11258"/>
        <path fill="none" stroke="rgb(0,0,0)" d="M 4601,11217 C 4591,11203 4582,11190 4572,11176"/>
        <path fill="none" stroke="rgb(0,0,0)" d="M 4542,11134 C 4532,11120 4522,11106 4512,11092"/>
        <path fill="none" stroke="rgb(0,0,0)" d="M 4482,11050 C 4473,11037 4463,11023 4453,11009"/>
        <path fill="none" stroke="rgb(0,0,0)" d="M 4424,10967 C 4414,10953 4405,10940 4395,10926"/>
        <path fill="none" stroke="rgb(0,0,0)" d="M 4366,10884 C 4356,10869 4347,10855 4337,10841"/>
        <path fill="none" stroke="rgb(0,0,0)" d="M 4308,10799 C 4299,10785 4289,10771 4280,10757"/>
        <path fill="none" stroke="rgb(0,0,0)" d="M 4252,10715 C 4242,10701 4233,10687 4224,10673"/>
        <path fill="none" stroke="rgb(0,0,0)" d="M 4195,10630 C 4186,10616 4177,10601 4167,10587"/>
        <path fill="none" stroke="rgb(0,0,0)" d="M 4139,10544 C 4130,10530 4121,10516 4112,10501"/>
        <path fill="none" stroke="rgb(0,0,0)" d="M 4084,10459 C 4075,10444 4066,10430 4057,10416"/>
        <path fill="none" stroke="rgb(0,0,0)" d="M 4030,10373 C 4021,10358 4012,10344 4003,10329"/>
        <path fill="none" stroke="rgb(0,0,0)" d="M 3976,10286 C 3967,10271 3958,10257 3949,10242"/>
        <path fill="none" stroke="rgb(0,0,0)" d="M 3922,10199 C 3914,10185 3905,10170 3896,10156"/>
        <path fill="none" stroke="rgb(0,0,0)" d="M 3870,10112 C 3861,10097 3852,10083 3844,10068"/>
        <path fill="none" stroke="rgb(0,0,0)" d="M 3818,10024 C 3809,10009 3800,9995 3792,9980"/>
        <path fill="none" stroke="rgb(0,0,0)" d="M 3766,9936 C 3758,9921 3749,9907 3741,9892"/>
        <path fill="none" stroke="rgb(0,0,0)" d="M 3716,9847 C 3707,9833 3699,9818 3691,9803"/>
        <path fill="none" stroke="rgb(0,0,0)" d="M 3666,9758 C 3657,9744 3649,9729 3641,9714"/>
        <path fill="none" stroke="rgb(0,0,0)" d="M 3616,9669 C 3608,9654 3600,9639 3592,9625"/>
        <path fill="none" stroke="rgb(0,0,0)" d="M 3568,9580 C 3560,9565 3552,9550 3544,9535"/>
        <path fill="none" stroke="rgb(0,0,0)" d="M 3520,9490 C 3512,9475 3504,9459 3496,9444"/>
        <path fill="none" stroke="rgb(0,0,0)" d="M 3473,9399 C 3465,9384 3457,9369 3450,9354"/>
        <path fill="none" stroke="rgb(0,0,0)" d="M 3426,9308 C 3419,9293 3411,9278 3404,9263"/>
        <path fill="none" stroke="rgb(0,0,0)" d="M 3381,9217 C 3373,9202 3366,9187 3358,9171"/>
        <path fill="none" stroke="rgb(0,0,0)" d="M 3336,9126 C 3328,9110 3321,9095 3314,9080"/>
        <path fill="none" stroke="rgb(0,0,0)" d="M 3292,9034 C 3284,9019 3277,9003 3270,8988"/>
        <path fill="none" stroke="rgb(0,0,0)" d="M 3248,8942 C 3241,8926 3233,8911 3226,8895"/>
        <path fill="none" stroke="rgb(0,0,0)" d="M 3205,8849 C 3198,8833 3190,8817 3183,8802"/>
        <path fill="none" stroke="rgb(0,0,0)" d="M 3162,8755 C 3155,8740 3148,8724 3142,8709"/>
        <path fill="none" stroke="rgb(0,0,0)" d="M 3121,8663 C 3114,8647 3107,8631 3100,8615"/>
        <path fill="none" stroke="rgb(0,0,0)" d="M 3080,8569 C 3074,8553 3067,8538 3061,8522"/>
        <path fill="none" stroke="rgb(0,0,0)" d="M 3041,8475 C 3034,8459 3027,8443 3021,8428"/>
        <path fill="none" stroke="rgb(0,0,0)" d="M 3002,8381 C 2996,8365 2989,8349 2983,8334"/>
        <path fill="none" stroke="rgb(0,0,0)" d="M 2964,8286 C 2958,8270 2952,8254 2946,8238"/>
        <path fill="none" stroke="rgb(0,0,0)" d="M 2928,8191 C 2922,8175 2916,8159 2910,8143"/>
        <path fill="none" stroke="rgb(0,0,0)" d="M 2892,8095 C 2886,8079 2881,8063 2875,8047"/>
        <path fill="none" stroke="rgb(0,0,0)" d="M 2858,7999 C 2852,7983 2847,7967 2841,7951"/>
        <path fill="none" stroke="rgb(0,0,0)" d="M 2825,7903 C 2820,7886 2814,7870 2809,7854"/>
        <path fill="none" stroke="rgb(0,0,0)" d="M 2794,7806 C 2788,7789 2783,7773 2778,7757"/>
        <path fill="none" stroke="rgb(0,0,0)" d="M 2764,7708 C 2759,7692 2754,7676 2749,7659"/>
        <path fill="none" stroke="rgb(0,0,0)" d="M 2735,7610 C 2730,7594 2726,7578 2721,7561"/>
        <path fill="none" stroke="rgb(0,0,0)" d="M 2708,7512 C 2704,7496 2699,7479 2695,7463"/>
        <path fill="none" stroke="rgb(0,0,0)" d="M 2682,7413 C 2678,7397 2674,7380 2670,7364"/>
        <path fill="none" stroke="rgb(0,0,0)" d="M 2658,7314 C 2655,7299 2651,7284 2648,7269"/>
       </g>
      </g>
     </g>
     <g class="com.sun.star.drawing.ClosedBezierShape">
      <g id="id11">
       <path fill="rgb(255,255,255)" stroke="none" d="M 1848,4509 C 1552,6584 3937,10573 7357,13719 10777,16866 13616,17683 13913,15608 14209,13533 11823,9544 8403,6398 4984,3252 2145,2433 1848,4509 Z M 2371,848 L 2371,848 Z M 13390,19271 L 13390,19271 Z"/>
       <path fill="none" stroke="rgb(0,0,0)" stroke-width="106" stroke-linejoin="round" stroke-linecap="square" d="M 1848,4509 C 1552,6584 3937,10573 7357,13719 10777,16866 13616,17683 13913,15608 14209,13533 11823,9544 8403,6398 4984,3252 2145,2433 1848,4509 Z"/>
      </g>
     </g>
     <g class="com.sun.star.drawing.ClosedBezierShape">
      <g id="id12">
       <path fill="rgb(255,255,255)" stroke="none" d="M 15815,8683 C 15748,9265 16283,10382 17050,11263 17817,12144 18454,12373 18520,11792 18587,11211 18052,10094 17285,9213 16518,8331 15881,8102 15815,8683 Z M 15932,7658 L 15932,7658 Z M 18403,12818 L 18403,12818 Z"/>
       <path fill="none" stroke="rgb(0,0,0)" stroke-width="106" stroke-linejoin="round" stroke-linecap="square" d="M 15815,8683 C 15748,9265 16283,10382 17050,11263 17817,12144 18454,12373 18520,11792 18587,11211 18052,10094 17285,9213 16518,8331 15881,8102 15815,8683 Z"/>
      </g>
     </g>
     <g class="com.sun.star.drawing.LineShape">
      <g id="id13" fill="none" stroke="rgb(0,0,0)" >
       <path d="M 13954,13065 L 13978,13112"/>
       <path d="M 14001,13160 L 14025,13207"/>
       <path d="M 14049,13255 L 14073,13302"/>
       <path d="M 14096,13350 L 14120,13397"/>
       <path d="M 14144,13445 L 14168,13492"/>
       <path d="M 14191,13540 L 14215,13587"/>
       <path d="M 14239,13635 L 14263,13682"/>
       <path d="M 14286,13730 L 14310,13777"/>
       <path d="M 14334,13825 L 14358,13872"/>
       <path d="M 14381,13920 L 14405,13967"/>
       <path d="M 14429,14015 L 14453,14062"/>
       <path d="M 14476,14110 L 14500,14157"/>
       <path d="M 14524,14205 L 14548,14252"/>
       <path d="M 14571,14300 L 14589,14335"/>
      </g>
     </g>
     <g class="com.sun.star.drawing.LineShape">
      <g id="id14" fill="none" stroke="rgb(0,0,0)" >
       <path d="M 15859,12176 L 15885,12222"/>
       <path d="M 15912,12268 L 15938,12314"/>
       <path d="M 15964,12360 L 15991,12406"/>
       <path d="M 16017,12453 L 16043,12499"/>
       <path d="M 16070,12545 L 16096,12591"/>
       <path d="M 16122,12637 L 16149,12683"/>
       <path d="M 16175,12729 L 16201,12775"/>
       <path d="M 16228,12821 L 16254,12867"/>
       <path d="M 16280,12914 L 16307,12960"/>
       <path d="M 16333,13006 L 16359,13052"/>
      </g>
     </g>
     <g class="com.sun.star.drawing.ClosedBezierShape">
      <g id="id15">
       <path fill="rgb(255,255,255)" stroke="none" d="M 13866,13710 C 14001,13335 14664,12819 15398,12518 16133,12217 16591,12273 16456,12647 16322,13022 15658,13538 14924,13839 14190,14140 13732,14085 13866,13710 Z M 13629,14371 L 13629,14371 Z M 16694,11986 L 16694,11986 Z"/>
       <path fill="none" stroke="rgb(0,0,0)" stroke-width="53" stroke-linejoin="round" stroke-linecap="square" d="M 13866,13710 C 14001,13335 14664,12819 15398,12518 16133,12217 16591,12273 16456,12647 16322,13022 15658,13538 14924,13839 14190,14140 13732,14085 13866,13710 Z"/>
      </g>
     </g>
     <g class="com.sun.star.drawing.LineShape">
      <g id="id16">
       <path fill="none" stroke="rgb(0,0,0)" d="M 11414,16548 L 18487,11641"/>
      </g>
     </g>
     <g class="com.sun.star.drawing.LineShape">
      <g id="id17">
       <path fill="none" stroke="rgb(0,0,0)" d="M 13473,13292 L 17256,11528"/>
      </g>
     </g>
     <g class="com.sun.star.drawing.CustomShape fill-path-status">
      <g id="id18">
       <path fill="rgb(255,255,255)" stroke="none" d="M 4948,23480 L 3220,23480 3220,17517 6675,17517 6675,23480 4948,23480 Z"/>
       <path fill="none" stroke="rgb(0,0,0)" stroke-width="81" stroke-linejoin="round" d="M 4948,23480 L 3220,23480 3220,17517 6675,17517 6675,23480 4948,23480 Z"/>
      </g>
     </g>
     <g class="com.sun.star.drawing.LineShape">
      <g id="id19" fill="none" stroke="rgb(0,0,0)" >
       <path d="M 17256,8674 L 17285,8718"/>
       <path d="M 17315,8762 L 17344,8807"/>
       <path d="M 17374,8851 L 17403,8895"/>
       <path d="M 17433,8939 L 17462,8983"/>
       <path d="M 17492,9027 L 17521,9072"/>
       <path d="M 17550,9116 L 17580,9160"/>
       <path d="M 17609,9204 L 17639,9248"/>
       <path d="M 17668,9292 L 17698,9337"/>
       <path d="M 17727,9381 L 17757,9425"/>
       <path d="M 17786,9469 L 17816,9513"/>
       <path d="M 17845,9557 L 17874,9602"/>
       <path d="M 17904,9646 L 17933,9690"/>
       <path d="M 17963,9734 L 17992,9778"/>
       <path d="M 18022,9823 L 18051,9867"/>
       <path d="M 18081,9911 L 18110,9955"/>
       <path d="M 18139,9999 L 18169,10043"/>
       <path d="M 18198,10088 L 18228,10132"/>
       <path d="M 18257,10176 L 18287,10220"/>
       <path d="M 18316,10264 L 18346,10308"/>
       <path d="M 18375,10353 L 18405,10397"/>
       <path d="M 18434,10441 L 18463,10485"/>
       <path d="M 18493,10529 L 18522,10574"/>
       <path d="M 18552,10618 L 18581,10662"/>
       <path d="M 18611,10706 L 18640,10750"/>
       <path d="M 18670,10794 L 18699,10839"/>
       <path d="M 18728,10883 L 18758,10927"/>
      </g>
     </g>
     <g class="com.sun.star.drawing.LineShape">
      <g id="id20">
       <path fill="none" stroke="rgb(0,0,0)" d="M 11746,16621 L 18526,11892"/>
      </g>
     </g>
     <g class="com.sun.star.drawing.LineShape">
      <g id="id21">
       <path fill="none" stroke="rgb(0,0,0)" d="M 13446,13165 L 17129,11402"/>
      </g>
     </g>
     <g class="com.sun.star.drawing.CustomShape">
      <g id="id22">
       <path fill="rgb(255,255,255)" stroke="none" d="M 14417,11890 C 14296,11957 14195,12012 14195,12012 L 14926,13344 C 14926,13344 15027,13289 15149,13222 15270,13155 15372,13100 15372,13100 L 14641,11767 C 14641,11767 14539,11823 14417,11890 L 14417,11890 Z M 14195,12012 L 14195,12012 Z M 15372,13100 L 15372,13100 Z"/>
       <path fill="none" stroke="rgb(0,0,0)" d="M 14417,11890 L 14195,12012 14926,13344 15149,13222 15372,13100 14641,11767 14417,11890 Z"/>
       <path fill="none" stroke="rgb(0,0,0)" d="M 14195,12012 L 14195,12012 Z"/>
       <path fill="none" stroke="rgb(0,0,0)" d="M 15372,13100 L 15372,13100 Z"/>
       <path fill="rgb(255,255,255)" stroke="none" d="M 14417,11890 C 14296,11957 14195,12012 14195,12012 14195,12012 14296,11957 14417,11890 14539,11823 14641,11767 14641,11767 14641,11767 14539,11823 14417,11890 L 14417,11890 Z M 14195,12012 L 14195,12012 Z M 15372,13100 L 15372,13100 Z"/>
       <path fill="none" stroke="rgb(0,0,0)" d="M 14417,11890 L 14195,12012 14417,11890 14641,11767 14417,11890 Z"/>
       <path fill="none" stroke="rgb(0,0,0)" d="M 14195,12012 L 14195,12012 Z"/>
       <path fill="none" stroke="rgb(0,0,0)" d="M 15372,13100 L 15372,13100 Z"/>
      </g>
     </g>
     <g class="com.sun.star.drawing.CustomShape">
      <g id="id23">
       <path fill="rgb(255,255,255)" stroke="none" d="M 15367,11555 C 15295,11435 15210,11352 15179,11371 L 14203,11956 C 14172,11974 14205,12089 14276,12208 14348,12327 14434,12411 14465,12392 L 15440,11808 C 15472,11789 15438,11674 15367,11555 L 15367,11555 Z M 15236,11337 L 15236,11337 Z M 14408,12427 L 14408,12427 Z"/>
       <path fill="none" stroke="rgb(0,0,0)" d="M 15367,11555 C 15295,11435 15210,11352 15179,11371 L 14203,11956 C 14172,11974 14205,12089 14276,12208 14348,12327 14434,12411 14465,12392 L 15440,11808 C 15472,11789 15438,11674 15367,11555 Z"/>
       <path fill="none" stroke="rgb(0,0,0)" d="M 15236,11337 L 15236,11337 Z"/>
       <path fill="none" stroke="rgb(0,0,0)" d="M 14408,12427 L 14408,12427 Z"/>
       <path fill="rgb(255,255,255)" stroke="none" d="M 15367,11555 C 15295,11435 15210,11352 15179,11371 15148,11390 15180,11504 15252,11623 15323,11743 15409,11826 15440,11808 15472,11789 15438,11674 15367,11555 L 15367,11555 Z M 15236,11337 L 15236,11337 Z M 14408,12427 L 14408,12427 Z"/>
       <path fill="none" stroke="rgb(0,0,0)" d="M 15367,11555 C 15295,11435 15210,11352 15179,11371 15148,11390 15180,11504 15252,11623 15323,11743 15409,11826 15440,11808 15472,11789 15438,11674 15367,11555 Z"/>
       <path fill="none" stroke="rgb(0,0,0)" d="M 15236,11337 L 15236,11337 Z"/>
       <path fill="none" stroke="rgb(0,0,0)" d="M 14408,12427 L 14408,12427 Z"/>
      </g>
     </g>
     <g class="com.sun.star.drawing.EllipseShape">
      <g id="id24">
       <defs>
        <mask id="mask3">
         <g>
          <defs>
           <linearGradient id="gradient3" x1="8509" y1="5908" x2="8509" y2="14736" gradientUnits="userSpaceOnUse">
            <stop offset="0.5" style="stop-color:rgb(128,128,128)"/>
            <stop offset="0.5" style="stop-color:rgb(128,128,128)"/>
            <stop offset="1" style="stop-color:rgb(128,128,128)"/>
            <stop offset="1" style="stop-color:rgb(128,128,128)"/>
           </linearGradient>
          </defs>
          <path style="fill:url(#gradient3)" d="M 4636,5908 L 12383,5908 12383,14736 4636,14736 4636,5908 Z"/>
         </g>
        </mask>
       </defs>
       <g style="mask:url(#mask3)" fill="none" stroke="rgb(0,0,0)" >
        <path d="M 4647,5920 C 4665,5920 4682,5920 4698,5920"/>
        <path d="M 4749,5922 C 4766,5923 4783,5924 4800,5926"/>
        <path d="M 4851,5930 C 4868,5932 4885,5934 4902,5936"/>
        <path d="M 4952,5944 C 4969,5946 4985,5949 5002,5952"/>
        <path d="M 5053,5962 C 5069,5965 5085,5969 5102,5973"/>
        <path d="M 5152,5985 C 5168,5989 5184,5994 5201,5998"/>
        <path d="M 5250,6012 C 5266,6017 5282,6022 5299,6027"/>
        <path d="M 5347,6042 C 5363,6048 5379,6053 5396,6059"/>
        <path d="M 5443,6076 C 5459,6081 5475,6087 5491,6093"/>
        <path d="M 5539,6112 C 5555,6118 5571,6124 5587,6130"/>
        <path d="M 5634,6149 C 5650,6156 5665,6162 5681,6169"/>
        <path d="M 5728,6189 C 5744,6196 5759,6203 5774,6210"/>
        <path d="M 5821,6231 C 5836,6238 5851,6245 5867,6252"/>
        <path d="M 5913,6275 C 5928,6282 5944,6289 5959,6297"/>
        <path d="M 6004,6320 C 6019,6327 6034,6335 6049,6343"/>
        <path d="M 6095,6367 C 6110,6375 6125,6383 6140,6391"/>
        <path d="M 6184,6416 C 6199,6424 6214,6432 6228,6441"/>
        <path d="M 6273,6466 C 6287,6475 6302,6483 6317,6492"/>
        <path d="M 6361,6518 C 6375,6527 6390,6536 6404,6544"/>
        <path d="M 6447,6571 C 6462,6580 6476,6589 6490,6598"/>
        <path d="M 6534,6626 C 6548,6635 6562,6645 6577,6654"/>
        <path d="M 6619,6682 C 6633,6691 6647,6700 6661,6710"/>
        <path d="M 6703,6739 C 6717,6748 6731,6758 6746,6768"/>
        <path d="M 6788,6797 C 6801,6807 6815,6817 6829,6826"/>
        <path d="M 6870,6856 C 6884,6866 6897,6876 6911,6886"/>
        <path d="M 6953,6916 C 6966,6927 6980,6937 6994,6947"/>
        <path d="M 7034,6978 C 7048,6988 7061,6998 7075,7008"/>
        <path d="M 7115,7039 C 7128,7049 7142,7060 7155,7070"/>
        <path d="M 7196,7102 C 7209,7113 7223,7124 7236,7134"/>
        <path d="M 7275,7166 C 7288,7176 7302,7187 7315,7197"/>
        <path d="M 7354,7229 C 7367,7240 7380,7251 7394,7262"/>
        <path d="M 7433,7295 C 7447,7306 7460,7317 7473,7328"/>
        <path d="M 7511,7360 C 7524,7371 7537,7382 7550,7393"/>
        <path d="M 7588,7426 C 7601,7437 7614,7448 7627,7459"/>
        <path d="M 7666,7493 C 7679,7505 7692,7516 7705,7527"/>
        <path d="M 7744,7561 C 7757,7573 7769,7584 7782,7595"/>
        <path d="M 7820,7629 C 7833,7641 7846,7652 7858,7663"/>
        <path d="M 7896,7697 C 7909,7709 7921,7720 7934,7732"/>
        <path d="M 7971,7766 C 7984,7778 7996,7789 8009,7801"/>
        <path d="M 8046,7835 C 8058,7847 8071,7859 8083,7870"/>
        <path d="M 8120,7905 C 8133,7917 8145,7929 8157,7940"/>
        <path d="M 8194,7976 C 8206,7987 8219,7999 8231,8011"/>
        <path d="M 8268,8046 C 8280,8058 8292,8070 8304,8082"/>
        <path d="M 8340,8118 C 8353,8130 8365,8142 8377,8154"/>
        <path d="M 8413,8190 C 8425,8202 8437,8214 8449,8226"/>
        <path d="M 8485,8262 C 8496,8274 8508,8286 8520,8298"/>
        <path d="M 8556,8335 C 8568,8347 8580,8359 8591,8371"/>
        <path d="M 8627,8408 C 8639,8421 8650,8433 8662,8445"/>
        <path d="M 8697,8482 C 8709,8494 8720,8507 8732,8519"/>
        <path d="M 8767,8556 C 8778,8569 8790,8581 8802,8594"/>
        <path d="M 8836,8631 C 8848,8644 8859,8656 8871,8669"/>
        <path d="M 8905,8707 C 8916,8719 8928,8732 8939,8744"/>
        <path d="M 8973,8782 C 8984,8795 8996,8807 9007,8820"/>
        <path d="M 9041,8858 C 9052,8871 9064,8884 9075,8897"/>
        <path d="M 9109,8935 C 9120,8948 9131,8961 9142,8973"/>
        <path d="M 9175,9012 C 9186,9025 9197,9038 9208,9050"/>
        <path d="M 9241,9089 C 9252,9102 9263,9115 9274,9128"/>
        <path d="M 9307,9168 C 9318,9181 9329,9194 9340,9207"/>
        <path d="M 9373,9246 C 9383,9259 9394,9272 9405,9285"/>
        <path d="M 9437,9324 C 9448,9337 9459,9350 9470,9364"/>
        <path d="M 9502,9403 C 9513,9417 9523,9430 9534,9443"/>
        <path d="M 9566,9483 C 9577,9496 9587,9509 9598,9522"/>
        <path d="M 9629,9562 C 9640,9575 9650,9589 9661,9602"/>
        <path d="M 9692,9642 C 9703,9656 9713,9669 9724,9683"/>
        <path d="M 9756,9723 C 9766,9737 9776,9750 9787,9764"/>
        <path d="M 9817,9804 C 9828,9817 9838,9830 9848,9844"/>
        <path d="M 9879,9884 C 9889,9898 9900,9911 9910,9925"/>
        <path d="M 9941,9966 C 9951,9980 9961,9993 9972,10007"/>
        <path d="M 10003,10049 C 10013,10062 10023,10076 10033,10090"/>
        <path d="M 10064,10131 C 10074,10145 10084,10159 10094,10173"/>
        <path d="M 10124,10214 C 10134,10227 10144,10241 10154,10255"/>
        <path d="M 10184,10296 C 10194,10309 10204,10323 10213,10337"/>
        <path d="M 10243,10379 C 10253,10393 10263,10406 10273,10420"/>
        <path d="M 10303,10462 C 10313,10476 10322,10490 10332,10504"/>
        <path d="M 10361,10545 C 10371,10559 10381,10573 10390,10587"/>
        <path d="M 10419,10629 C 10429,10643 10438,10657 10448,10671"/>
        <path d="M 10477,10713 C 10487,10727 10496,10741 10506,10756"/>
        <path d="M 10534,10798 C 10544,10812 10553,10826 10563,10840"/>
        <path d="M 10591,10882 C 10600,10896 10610,10910 10619,10924"/>
        <path d="M 10647,10967 C 10657,10982 10666,10996 10675,11010"/>
        <path d="M 10703,11053 C 10712,11067 10721,11081 10731,11096"/>
        <path d="M 10758,11138 C 10767,11153 10776,11167 10785,11181"/>
        <path d="M 10812,11224 C 10822,11239 10831,11253 10840,11268"/>
        <path d="M 10867,11311 C 10876,11326 10885,11340 10894,11355"/>
        <path d="M 10920,11398 C 10929,11412 10938,11427 10947,11441"/>
        <path d="M 10973,11485 C 10982,11499 10991,11514 10999,11529"/>
        <path d="M 11025,11573 C 11034,11587 11043,11602 11051,11617"/>
        <path d="M 11077,11661 C 11086,11675 11094,11690 11103,11705"/>
        <path d="M 11128,11749 C 11137,11763 11145,11778 11154,11793"/>
        <path d="M 11179,11837 C 11187,11852 11196,11867 11204,11882"/>
        <path d="M 11229,11926 C 11237,11941 11245,11956 11253,11971"/>
        <path d="M 11278,12015 C 11286,12030 11294,12045 11302,12060"/>
        <path d="M 11327,12105 C 11335,12120 11343,12135 11351,12150"/>
        <path d="M 11375,12195 C 11383,12210 11391,12225 11398,12240"/>
        <path d="M 11422,12285 C 11430,12300 11438,12315 11445,12331"/>
        <path d="M 11469,12376 C 11476,12391 11484,12406 11492,12421"/>
        <path d="M 11515,12467 C 11522,12482 11530,12497 11538,12512"/>
        <path d="M 11560,12558 C 11568,12573 11575,12589 11583,12604"/>
        <path d="M 11605,12650 C 11613,12665 11620,12680 11627,12696"/>
        <path d="M 11649,12741 C 11657,12757 11664,12772 11671,12787"/>
        <path d="M 11693,12834 C 11700,12849 11707,12864 11715,12880"/>
        <path d="M 11736,12926 C 11737,12927 11737,12928 11738,12929 11744,12944 11751,12959 11758,12973"/>
        <path d="M 11779,13020 C 11786,13036 11793,13051 11800,13067"/>
        <path d="M 11820,13113 C 11827,13128 11834,13144 11841,13159"/>
        <path d="M 11862,13207 C 11868,13222 11875,13238 11882,13253"/>
        <path d="M 11902,13300 C 11908,13315 11915,13331 11922,13347"/>
        <path d="M 11941,13394 C 11948,13410 11954,13426 11961,13441"/>
        <path d="M 11980,13488 C 11986,13504 11992,13520 11999,13536"/>
        <path d="M 12017,13583 C 12024,13599 12030,13615 12036,13631"/>
        <path d="M 12054,13678 C 12060,13694 12066,13710 12072,13726"/>
        <path d="M 12090,13774 C 12096,13790 12101,13806 12107,13822"/>
        <path d="M 12124,13869 C 12130,13886 12135,13902 12141,13918"/>
        <path d="M 12157,13966 C 12163,13982 12168,13998 12174,14014"/>
        <path d="M 12190,14063 C 12195,14079 12200,14095 12205,14111"/>
        <path d="M 12220,14160 C 12225,14176 12230,14192 12235,14209"/>
        <path d="M 12250,14258 C 12255,14274 12260,14290 12264,14307"/>
        <path d="M 12278,14356 C 12283,14372 12287,14388 12292,14405"/>
        <path d="M 12305,14454 C 12309,14470 12314,14487 12318,14503"/>
        <path d="M 12331,14553 C 12335,14569 12339,14586 12343,14602"/>
        <path d="M 12355,14652 C 12359,14668 12363,14685 12366,14701"/>
       </g>
      </g>
     </g>
     <g class="com.sun.star.drawing.EllipseShape">
      <g id="id25">
       <defs>
        <mask id="mask4">
         <g>
          <defs>
           <linearGradient id="gradient4" x1="7750" y1="8201" x2="7750" y2="14194" gradientUnits="userSpaceOnUse">
            <stop offset="0.5" style="stop-color:rgb(128,128,128)"/>
            <stop offset="0.5" style="stop-color:rgb(128,128,128)"/>
            <stop offset="1" style="stop-color:rgb(128,128,128)"/>
            <stop offset="1" style="stop-color:rgb(128,128,128)"/>
           </linearGradient>
          </defs>
          <path style="fill:url(#gradient4)" d="M 5198,8201 L 10302,8201 10302,14194 5198,14194 5198,8201 Z"/>
         </g>
        </mask>
       </defs>
       <g style="mask:url(#mask4)" fill="none" stroke="rgb(0,0,0)" >
        <path d="M 5210,8212 C 5227,8212 5244,8213 5261,8213"/>
        <path d="M 5312,8216 C 5328,8218 5345,8219 5362,8222"/>
        <path d="M 5413,8229 C 5429,8232 5446,8235 5463,8238"/>
        <path d="M 5512,8249 C 5529,8253 5545,8258 5562,8262"/>
        <path d="M 5611,8276 C 5627,8281 5643,8287 5659,8292"/>
        <path d="M 5708,8309 C 5723,8314 5739,8320 5755,8326"/>
        <path d="M 5803,8345 C 5818,8351 5834,8358 5850,8364"/>
        <path d="M 5897,8385 C 5912,8392 5928,8398 5943,8406"/>
        <path d="M 5989,8427 C 6005,8435 6020,8442 6035,8450"/>
        <path d="M 6081,8473 C 6096,8480 6111,8488 6126,8496"/>
        <path d="M 6171,8521 C 6185,8529 6200,8537 6215,8546"/>
        <path d="M 6259,8571 C 6273,8580 6288,8589 6303,8598"/>
        <path d="M 6346,8624 C 6360,8633 6375,8642 6389,8652"/>
        <path d="M 6432,8679 C 6446,8689 6460,8698 6475,8708"/>
        <path d="M 6516,8736 C 6530,8746 6544,8756 6558,8765"/>
        <path d="M 6600,8795 C 6614,8805 6627,8815 6641,8825"/>
        <path d="M 6682,8855 C 6695,8865 6709,8876 6723,8886"/>
        <path d="M 6764,8918 C 6777,8928 6790,8938 6803,8948"/>
        <path d="M 6843,8980 C 6856,8991 6870,9001 6883,9012"/>
        <path d="M 6923,9045 C 6936,9055 6949,9066 6961,9077"/>
        <path d="M 7000,9110 C 7013,9121 7027,9132 7040,9143"/>
        <path d="M 7079,9177 C 7091,9188 7104,9199 7116,9210"/>
        <path d="M 7154,9243 C 7167,9255 7180,9266 7193,9278"/>
        <path d="M 7231,9312 C 7244,9324 7257,9335 7269,9347"/>
        <path d="M 7307,9381 C 7319,9393 7332,9404 7344,9416"/>
        <path d="M 7381,9451 C 7394,9463 7406,9474 7418,9486"/>
        <path d="M 7455,9521 C 7467,9533 7479,9545 7492,9557"/>
        <path d="M 7528,9592 C 7540,9604 7552,9616 7564,9628"/>
        <path d="M 7600,9664 C 7612,9676 7624,9688 7636,9701"/>
        <path d="M 7672,9737 C 7684,9749 7696,9761 7707,9774"/>
        <path d="M 7743,9810 C 7754,9823 7766,9835 7778,9847"/>
        <path d="M 7813,9885 C 7824,9897 7836,9910 7847,9922"/>
        <path d="M 7882,9959 C 7893,9972 7905,9985 7916,9997"/>
        <path d="M 7950,10035 C 7962,10048 7973,10060 7984,10073"/>
        <path d="M 8018,10111 C 8029,10124 8040,10137 8051,10150"/>
        <path d="M 8085,10188 C 8096,10201 8107,10214 8118,10227"/>
        <path d="M 8151,10266 C 8162,10279 8173,10292 8184,10305"/>
        <path d="M 8216,10344 C 8227,10357 8238,10370 8249,10383"/>
        <path d="M 8281,10423 C 8292,10436 8303,10449 8313,10463"/>
        <path d="M 8345,10502 C 8356,10515 8366,10529 8377,10542"/>
        <path d="M 8408,10582 C 8419,10596 8430,10609 8440,10623"/>
        <path d="M 8471,10663 C 8481,10676 8492,10689 8502,10703"/>
        <path d="M 8533,10744 C 8543,10757 8554,10771 8564,10784"/>
        <path d="M 8595,10825 C 8605,10839 8615,10852 8625,10866"/>
        <path d="M 8655,10907 C 8665,10920 8675,10934 8685,10948"/>
        <path d="M 8716,10990 C 8719,10994 8722,10998 8725,11003 8732,11012 8739,11022 8746,11032"/>
        <path d="M 8776,11073 C 8786,11087 8796,11101 8805,11115"/>
        <path d="M 8835,11156 C 8844,11170 8854,11184 8864,11198"/>
        <path d="M 8893,11240 C 8903,11254 8912,11268 8922,11282"/>
        <path d="M 8951,11324 C 8960,11338 8970,11352 8979,11366"/>
        <path d="M 9008,11408 C 9017,11422 9027,11437 9036,11451"/>
        <path d="M 9064,11494 C 9074,11508 9083,11522 9092,11536"/>
        <path d="M 9120,11579 C 9129,11593 9138,11607 9147,11622"/>
        <path d="M 9175,11665 C 9184,11679 9193,11694 9202,11708"/>
        <path d="M 9229,11751 C 9238,11766 9247,11780 9255,11794"/>
        <path d="M 9282,11838 C 9291,11853 9300,11867 9308,11882"/>
        <path d="M 9335,11926 C 9343,11940 9352,11955 9360,11969"/>
        <path d="M 9386,12013 C 9395,12028 9403,12043 9412,12058"/>
        <path d="M 9437,12102 C 9445,12117 9454,12132 9462,12146"/>
        <path d="M 9487,12191 C 9495,12206 9503,12221 9511,12236"/>
        <path d="M 9536,12280 C 9544,12295 9552,12310 9560,12325"/>
        <path d="M 9584,12370 C 9592,12385 9600,12400 9607,12415"/>
        <path d="M 9631,12461 C 9639,12476 9646,12491 9654,12506"/>
        <path d="M 9677,12552 C 9685,12567 9692,12582 9700,12597"/>
        <path d="M 9722,12643 C 9730,12658 9737,12673 9745,12689"/>
        <path d="M 9767,12735 C 9774,12750 9781,12765 9789,12781"/>
        <path d="M 9810,12827 C 9817,12842 9824,12858 9831,12873"/>
        <path d="M 9853,12920 C 9860,12935 9866,12950 9873,12966 9873,12966 9874,12966 9874,12966"/>
        <path d="M 9895,13014 C 9901,13029 9908,13045 9915,13060"/>
        <path d="M 9935,13107 C 9942,13123 9949,13138 9955,13154"/>
        <path d="M 9975,13201 C 9981,13217 9988,13232 9994,13248"/>
        <path d="M 10013,13296 C 10020,13311 10026,13327 10032,13343"/>
        <path d="M 10050,13390 C 10056,13406 10062,13422 10068,13438"/>
        <path d="M 10086,13486 C 10092,13502 10098,13518 10103,13534"/>
        <path d="M 10120,13582 C 10126,13598 10131,13614 10137,13630"/>
        <path d="M 10153,13679 C 10158,13695 10163,13711 10168,13727"/>
        <path d="M 10184,13776 C 10189,13792 10193,13808 10198,13824"/>
        <path d="M 10212,13873 C 10217,13890 10222,13906 10226,13923"/>
        <path d="M 10239,13972 C 10244,13988 10248,14005 10252,14021"/>
        <path d="M 10265,14071 C 10269,14087 10272,14104 10276,14120"/>
        <path d="M 10288,14170 C 10289,14174 10290,14178 10290,14183"/>
       </g>
      </g>
     </g>
     <g class="com.sun.star.drawing.LineShape">
      <g id="id26" fill="none" stroke="rgb(0,0,0)" >
       <path d="M 18780,10906 L 18767,10958"/>
       <path d="M 18754,11009 L 18741,11061"/>
       <path d="M 18728,11112 L 18716,11164"/>
       <path d="M 18703,11215 L 18690,11267"/>
       <path d="M 18677,11318 L 18664,11370"/>
       <path d="M 18651,11421 L 18638,11473"/>
       <path d="M 18625,11524 L 18613,11576"/>
       <path d="M 18600,11627 L 18587,11679"/>
       <path d="M 18574,11730 L 18561,11782"/>
       <path d="M 18548,11833 L 18535,11885"/>
      </g>
     </g>
     <g class="com.sun.star.drawing.LineShape">
      <g id="id27" fill="none" stroke="rgb(0,0,0)" >
       <path d="M 17256,8620 L 17203,8620"/>
       <path d="M 17150,8620 L 17097,8620"/>
       <path d="M 17044,8620 L 16991,8620"/>
       <path d="M 16937,8620 L 16884,8620"/>
       <path d="M 16831,8620 L 16778,8620"/>
       <path d="M 16725,8620 L 16672,8620"/>
      </g>
     </g>
     <g class="com.sun.star.drawing.EllipseShape">
      <g id="id28">
       <defs>
        <mask id="mask5">
         <g>
          <defs>
           <linearGradient id="gradient5" x1="17196" y1="8904" x2="17196" y2="11741" gradientUnits="userSpaceOnUse">
            <stop offset="0.5" style="stop-color:rgb(128,128,128)"/>
            <stop offset="0.5" style="stop-color:rgb(128,128,128)"/>
            <stop offset="1" style="stop-color:rgb(128,128,128)"/>
            <stop offset="1" style="stop-color:rgb(128,128,128)"/>
           </linearGradient>
          </defs>
          <path style="fill:url(#gradient5)" d="M 16210,8904 L 18183,8904 18183,11741 16210,11741 16210,8904 Z"/>
         </g>
        </mask>
       </defs>
       <g style="mask:url(#mask5)" fill="none" stroke="rgb(0,0,0)" >
        <path d="M 18171,11730 C 18154,11728 18138,11724 18121,11720"/>
        <path d="M 18073,11705 C 18057,11700 18041,11693 18025,11686"/>
        <path d="M 17979,11664 C 17968,11658 17957,11652 17945,11645 17941,11643 17938,11641 17935,11639"/>
        <path d="M 17891,11613 C 17876,11604 17862,11595 17848,11586"/>
        <path d="M 17806,11557 C 17793,11547 17779,11537 17765,11526"/>
        <path d="M 17725,11495 C 17712,11484 17699,11473 17686,11462"/>
        <path d="M 17647,11429 C 17635,11418 17622,11406 17609,11395"/>
        <path d="M 17572,11360 C 17560,11348 17548,11336 17536,11324"/>
        <path d="M 17500,11288 C 17488,11276 17476,11264 17464,11251"/>
        <path d="M 17430,11214 C 17418,11202 17407,11189 17395,11176"/>
        <path d="M 17361,11138 C 17349,11126 17338,11113 17327,11100"/>
        <path d="M 17294,11061 C 17283,11048 17272,11035 17261,11022"/>
        <path d="M 17228,10983 C 17218,10970 17207,10957 17196,10943"/>
        <path d="M 17165,10903 C 17155,10890 17144,10876 17134,10863"/>
        <path d="M 17103,10822 C 17093,10809 17083,10795 17073,10781"/>
        <path d="M 17043,10740 C 17033,10726 17023,10712 17014,10698"/>
        <path d="M 16985,10656 C 16975,10642 16966,10628 16956,10614"/>
        <path d="M 16928,10571 C 16919,10557 16909,10543 16900,10529"/>
        <path d="M 16872,10486 C 16863,10472 16854,10457 16845,10443"/>
        <path d="M 16818,10399 C 16818,10398 16817,10397 16816,10395 16808,10382 16800,10369 16792,10355"/>
        <path d="M 16766,10312 C 16757,10297 16748,10282 16740,10268"/>
        <path d="M 16714,10224 C 16706,10209 16697,10194 16689,10179"/>
        <path d="M 16664,10135 C 16656,10120 16648,10105 16640,10090"/>
        <path d="M 16616,10045 C 16608,10030 16601,10014 16593,9999"/>
        <path d="M 16570,9954 C 16562,9939 16555,9923 16547,9908"/>
        <path d="M 16525,9862 C 16518,9847 16511,9831 16504,9816"/>
        <path d="M 16483,9769 C 16476,9754 16469,9738 16463,9723"/>
        <path d="M 16443,9676 C 16436,9660 16430,9644 16423,9629"/>
        <path d="M 16404,9581 C 16398,9567 16393,9552 16387,9537 16387,9536 16386,9535 16386,9534"/>
        <path d="M 16368,9486 C 16362,9469 16356,9453 16350,9438"/>
        <path d="M 16334,9390 C 16328,9373 16323,9357 16318,9341"/>
        <path d="M 16302,9292 C 16297,9276 16293,9260 16288,9244"/>
        <path d="M 16275,9194 C 16270,9178 16266,9161 16262,9145"/>
        <path d="M 16251,9095 C 16248,9078 16244,9062 16241,9045"/>
        <path d="M 16232,8995 C 16230,8978 16227,8961 16225,8944"/>
       </g>
      </g>
     </g>
     <g class="com.sun.star.drawing.LineShape">
      <g id="id29" fill="none" stroke="rgb(0,0,0)" >
       <path d="M 4175,18399 L 4175,18452"/>
       <path d="M 4175,18505 L 4175,18558"/>
       <path d="M 4175,18611 L 4175,18664"/>
       <path d="M 4175,18718 L 4175,18771"/>
       <path d="M 4175,18824 L 4175,18877"/>
       <path d="M 4175,18930 L 4175,18983"/>
       <path d="M 4175,19036 L 4175,19089"/>
       <path d="M 4175,19142 L 4175,19195"/>
       <path d="M 4175,19248 L 4175,19302"/>
       <path d="M 4175,19355 L 4175,19408"/>
       <path d="M 4175,19461 L 4175,19514"/>
       <path d="M 4175,19567 L 4175,19620"/>
       <path d="M 4175,19673 L 4175,19726"/>
       <path d="M 4175,19779 L 4175,19832"/>
       <path d="M 4175,19886 L 4175,19939"/>
       <path d="M 4175,19992 L 4175,20045"/>
       <path d="M 4175,20098 L 4175,20151"/>
       <path d="M 4175,20204 L 4175,20257"/>
       <path d="M 4175,20310 L 4175,20363"/>
       <path d="M 4175,20416 L 4175,20470"/>
       <path d="M 4175,20523 L 4175,20576"/>
       <path d="M 4175,20629 L 4175,20682"/>
       <path d="M 4175,20735 L 4175,20788"/>
       <path d="M 4175,20841 L 4175,20894"/>
       <path d="M 4175,20947 L 4175,21000"/>
       <path d="M 4175,21054 L 4175,21107"/>
       <path d="M 4175,21160 L 4175,21213"/>
       <path d="M 4175,21266 L 4175,21319"/>
       <path d="M 4175,21372 L 4175,21425"/>
       <path d="M 4175,21478 L 4175,21531"/>
       <path d="M 4175,21584 L 4175,21638"/>
       <path d="M 4175,21691 L 4175,21744"/>
       <path d="M 4175,21797 L 4175,21850"/>
       <path d="M 4175,21903 L 4175,21956"/>
       <path d="M 4175,22009 L 4175,22062"/>
       <path d="M 4175,22115 L 4175,22168"/>
       <path d="M 4175,22222 L 4175,22275"/>
       <path d="M 4175,22328 L 4175,22381"/>
       <path d="M 4175,22434 L 4175,22487"/>
       <path d="M 4175,22540 L 4175,22593"/>
       <path d="M 4175,22646 L 4175,22699"/>
      </g>
     </g>
     <g class="com.sun.star.drawing.LineShape">
      <g id="id30" fill="none" stroke="rgb(0,0,0)" >
       <path d="M 4302,14970 L 4295,15023"/>
       <path d="M 4288,15075 L 4281,15128"/>
       <path d="M 4274,15181 L 4267,15233"/>
       <path d="M 4260,15286 L 4253,15338"/>
       <path d="M 4246,15391 L 4239,15444"/>
       <path d="M 4232,15496 L 4225,15549"/>
       <path d="M 4218,15602 L 4211,15654"/>
       <path d="M 4204,15707 L 4197,15759"/>
       <path d="M 4190,15812 L 4183,15865"/>
       <path d="M 4176,15917 L 4169,15970"/>
       <path d="M 4162,16023 L 4155,16075"/>
       <path d="M 4148,16128 L 4141,16180"/>
       <path d="M 4134,16233 L 4127,16286"/>
       <path d="M 4120,16338 L 4113,16391"/>
       <path d="M 4106,16444 L 4099,16496"/>
       <path d="M 4091,16549 L 4084,16601"/>
       <path d="M 4077,16654 L 4070,16707"/>
       <path d="M 4063,16759 L 4056,16812"/>
       <path d="M 4049,16865 L 4048,16875"/>
      </g>
     </g>
     <g class="com.sun.star.drawing.LineShape">
      <g id="id31" fill="none" stroke="rgb(0,0,0)" >
       <path d="M 5675,18388 L 5675,18441"/>
       <path d="M 5675,18494 L 5675,18547"/>
       <path d="M 5675,18600 L 5675,18653"/>
       <path d="M 5675,18707 L 5675,18760"/>
       <path d="M 5675,18813 L 5675,18866"/>
       <path d="M 5675,18919 L 5675,18972"/>
       <path d="M 5675,19025 L 5675,19078"/>
       <path d="M 5675,19131 L 5675,19184"/>
       <path d="M 5675,19237 L 5675,19291"/>
       <path d="M 5675,19344 L 5675,19397"/>
       <path d="M 5675,19450 L 5675,19503"/>
       <path d="M 5675,19556 L 5675,19609"/>
       <path d="M 5675,19662 L 5675,19715"/>
       <path d="M 5675,19768 L 5675,19821"/>
       <path d="M 5675,19875 L 5675,19928"/>
       <path d="M 5675,19981 L 5675,20034"/>
       <path d="M 5675,20087 L 5675,20140"/>
       <path d="M 5675,20193 L 5675,20246"/>
       <path d="M 5675,20299 L 5675,20352"/>
       <path d="M 5675,20405 L 5675,20459"/>
       <path d="M 5675,20512 L 5675,20565"/>
       <path d="M 5675,20618 L 5675,20671"/>
       <path d="M 5675,20724 L 5675,20777"/>
       <path d="M 5675,20830 L 5675,20883"/>
       <path d="M 5675,20936 L 5675,20989"/>
       <path d="M 5675,21043 L 5675,21096"/>
       <path d="M 5675,21149 L 5675,21202"/>
       <path d="M 5675,21255 L 5675,21308"/>
       <path d="M 5675,21361 L 5675,21414"/>
       <path d="M 5675,21467 L 5675,21520"/>
       <path d="M 5675,21573 L 5675,21627"/>
       <path d="M 5675,21680 L 5675,21733"/>
       <path d="M 5675,21786 L 5675,21839"/>
       <path d="M 5675,21892 L 5675,21945"/>
       <path d="M 5675,21998 L 5675,22051"/>
       <path d="M 5675,22104 L 5675,22157"/>
       <path d="M 5675,22211 L 5675,22264"/>
       <path d="M 5675,22317 L 5675,22370"/>
       <path d="M 5675,22423 L 5675,22476"/>
       <path d="M 5675,22529 L 5675,22582"/>
       <path d="M 5675,22635 L 5675,22688"/>
      </g>
     </g>
     <g class="com.sun.star.drawing.LineShape">
      <g id="id32">
       <defs>
        <mask id="mask6">
         <g>
          <defs>
           <linearGradient id="gradient6" x1="5083" y1="4644" x2="5083" y2="9343" gradientUnits="userSpaceOnUse">
            <stop offset="0.5" style="stop-color:rgb(128,128,128)"/>
            <stop offset="0.5" style="stop-color:rgb(128,128,128)"/>
            <stop offset="1" style="stop-color:rgb(128,128,128)"/>
            <stop offset="1" style="stop-color:rgb(128,128,128)"/>
           </linearGradient>
          </defs>
          <path style="fill:url(#gradient6)" d="M 4436,4644 L 5730,4644 5730,9343 4436,9343 4436,4644 Z"/>
         </g>
        </mask>
       </defs>
       <g style="mask:url(#mask6)" fill="none" stroke="rgb(0,0,0)" >
        <path d="M 4448,4656 L 4462,4707"/>
        <path d="M 4476,4758 L 4490,4810"/>
        <path d="M 4504,4861 L 4518,4912"/>
        <path d="M 4532,4963 L 4545,5015"/>
        <path d="M 4559,5066 L 4573,5117"/>
        <path d="M 4587,5168 L 4601,5220"/>
        <path d="M 4615,5271 L 4629,5322"/>
        <path d="M 4643,5373 L 4657,5425"/>
        <path d="M 4671,5476 L 4685,5527"/>
        <path d="M 4699,5578 L 4712,5629"/>
        <path d="M 4726,5681 L 4740,5732"/>
        <path d="M 4754,5783 L 4768,5834"/>
        <path d="M 4782,5886 L 4796,5937"/>
        <path d="M 4810,5988 L 4824,6039"/>
        <path d="M 4838,6091 L 4852,6142"/>
        <path d="M 4866,6193 L 4879,6244"/>
        <path d="M 4893,6296 L 4907,6347"/>
        <path d="M 4921,6398 L 4935,6449"/>
        <path d="M 4949,6500 L 4963,6552"/>
        <path d="M 4977,6603 L 4991,6654"/>
        <path d="M 5005,6705 L 5019,6757"/>
        <path d="M 5033,6808 L 5046,6859"/>
        <path d="M 5060,6910 L 5074,6962"/>
        <path d="M 5088,7013 L 5102,7064"/>
        <path d="M 5116,7115 L 5130,7166"/>
        <path d="M 5144,7218 L 5158,7269"/>
        <path d="M 5172,7320 L 5186,7371"/>
        <path d="M 5200,7423 L 5214,7474"/>
        <path d="M 5227,7525 L 5241,7576"/>
        <path d="M 5255,7628 L 5269,7679"/>
        <path d="M 5283,7730 L 5297,7781"/>
        <path d="M 5311,7833 L 5325,7884"/>
        <path d="M 5339,7935 L 5353,7986"/>
        <path d="M 5367,8037 L 5381,8089"/>
        <path d="M 5394,8140 L 5408,8191"/>
        <path d="M 5422,8242 L 5436,8294"/>
        <path d="M 5450,8345 L 5464,8396"/>
        <path d="M 5478,8447 L 5492,8499"/>
        <path d="M 5506,8550 L 5520,8601"/>
        <path d="M 5534,8652 L 5548,8704"/>
        <path d="M 5561,8755 L 5575,8806"/>
        <path d="M 5589,8857 L 5603,8908"/>
        <path d="M 5617,8960 L 5631,9011"/>
        <path d="M 5645,9062 L 5659,9113"/>
        <path d="M 5673,9165 L 5687,9216"/>
        <path d="M 5701,9267 L 5715,9318"/>
       </g>
      </g>
     </g>
     <g class="com.sun.star.drawing.LineShape">
      <g id="id33">
       <defs>
        <mask id="mask7">
         <g>
          <defs>
           <linearGradient id="gradient7" x1="7051" y1="6017" x2="7051" y2="10002" gradientUnits="userSpaceOnUse">
            <stop offset="0.5" style="stop-color:rgb(128,128,128)"/>
            <stop offset="0.5" style="stop-color:rgb(128,128,128)"/>
            <stop offset="1" style="stop-color:rgb(128,128,128)"/>
            <stop offset="1" style="stop-color:rgb(128,128,128)"/>
           </linearGradient>
          </defs>
          <path style="fill:url(#gradient7)" d="M 6849,6017 L 7254,6017 7254,10002 6849,10002 6849,6017 Z"/>
         </g>
        </mask>
       </defs>
       <g style="mask:url(#mask7)" fill="none" stroke="rgb(0,0,0)" >
        <path d="M 7242,6029 L 7237,6082"/>
        <path d="M 7232,6135 L 7227,6188"/>
        <path d="M 7222,6240 L 7217,6293"/>
        <path d="M 7212,6346 L 7206,6399"/>
        <path d="M 7201,6452 L 7196,6505"/>
        <path d="M 7191,6557 L 7186,6610"/>
        <path d="M 7181,6663 L 7176,6716"/>
        <path d="M 7171,6769 L 7166,6822"/>
        <path d="M 7161,6875 L 7156,6927"/>
        <path d="M 7151,6980 L 7145,7033"/>
        <path d="M 7140,7086 L 7135,7139"/>
        <path d="M 7130,7192 L 7125,7244"/>
        <path d="M 7120,7297 L 7115,7350"/>
        <path d="M 7110,7403 L 7105,7456"/>
        <path d="M 7100,7509 L 7095,7562"/>
        <path d="M 7090,7614 L 7084,7667"/>
        <path d="M 7079,7720 L 7074,7773"/>
        <path d="M 7069,7826 L 7064,7879"/>
        <path d="M 7059,7932 L 7054,7984"/>
        <path d="M 7049,8037 L 7044,8090"/>
        <path d="M 7039,8143 L 7034,8196"/>
        <path d="M 7029,8249 L 7023,8301"/>
        <path d="M 7018,8354 L 7013,8407"/>
        <path d="M 7008,8460 L 7003,8513"/>
        <path d="M 6998,8566 L 6993,8619"/>
        <path d="M 6988,8671 L 6983,8724"/>
        <path d="M 6978,8777 L 6973,8830"/>
        <path d="M 6968,8883 L 6962,8936"/>
        <path d="M 6957,8988 L 6952,9041"/>
        <path d="M 6947,9094 L 6942,9147"/>
        <path d="M 6937,9200 L 6932,9253"/>
        <path d="M 6927,9306 L 6922,9358"/>
        <path d="M 6917,9411 L 6912,9464"/>
        <path d="M 6907,9517 L 6901,9570"/>
        <path d="M 6896,9623 L 6891,9675"/>
        <path d="M 6886,9728 L 6881,9781"/>
        <path d="M 6876,9834 L 6871,9887"/>
        <path d="M 6866,9940 L 6861,9990"/>
       </g>
      </g>
     </g>
     <g class="com.sun.star.drawing.LineShape">
      <g id="id34">
       <defs>
        <mask id="mask8">
         <g>
          <defs>
           <linearGradient id="gradient8" x1="8993" y1="8735" x2="8993" y2="10764" gradientUnits="userSpaceOnUse">
            <stop offset="0.5" style="stop-color:rgb(128,128,128)"/>
            <stop offset="0.5" style="stop-color:rgb(128,128,128)"/>
            <stop offset="1" style="stop-color:rgb(128,128,128)"/>
            <stop offset="1" style="stop-color:rgb(128,128,128)"/>
           </linearGradient>
          </defs>
          <path style="fill:url(#gradient8)" d="M 7711,8735 L 10275,8735 10275,10764 7711,10764 7711,8735 Z"/>
         </g>
        </mask>
       </defs>
       <g style="mask:url(#mask8)" fill="none" stroke="rgb(0,0,0)" >
        <path d="M 10263,8747 L 10221,8780"/>
        <path d="M 10180,8813 L 10138,8846"/>
        <path d="M 10096,8879 L 10055,8911"/>
        <path d="M 10013,8944 L 9971,8977"/>
        <path d="M 9930,9010 L 9888,9043"/>
        <path d="M 9846,9076 L 9805,9109"/>
        <path d="M 9763,9142 L 9721,9175"/>
        <path d="M 9680,9208 L 9638,9240"/>
        <path d="M 9596,9273 L 9555,9306"/>
        <path d="M 9513,9339 L 9471,9372"/>
        <path d="M 9430,9405 L 9388,9438"/>
        <path d="M 9346,9471 L 9305,9504"/>
        <path d="M 9263,9536 L 9221,9569"/>
        <path d="M 9180,9602 L 9138,9635"/>
        <path d="M 9096,9668 L 9054,9701"/>
        <path d="M 9013,9734 L 8971,9767"/>
        <path d="M 8929,9800 L 8888,9833"/>
        <path d="M 8846,9865 L 8804,9898"/>
        <path d="M 8763,9931 L 8721,9964"/>
        <path d="M 8679,9997 L 8638,10030"/>
        <path d="M 8596,10063 L 8554,10096"/>
        <path d="M 8513,10129 L 8471,10161"/>
        <path d="M 8429,10194 L 8388,10227"/>
        <path d="M 8346,10260 L 8304,10293"/>
        <path d="M 8263,10326 L 8221,10359"/>
        <path d="M 8179,10392 L 8138,10425"/>
        <path d="M 8096,10458 L 8054,10490"/>
        <path d="M 8013,10523 L 7971,10556"/>
        <path d="M 7929,10589 L 7888,10622"/>
        <path d="M 7846,10655 L 7804,10688"/>
        <path d="M 7763,10721 L 7723,10752"/>
       </g>
      </g>
     </g>
     <g class="com.sun.star.drawing.LineShape">
      <g id="id35">
       <defs>
        <mask id="mask9">
         <g>
          <defs>
           <linearGradient id="gradient9" x1="9909" y1="11605" x2="9909" y2="11653" gradientUnits="userSpaceOnUse">
            <stop offset="0.5" style="stop-color:rgb(128,128,128)"/>
            <stop offset="0.5" style="stop-color:rgb(128,128,128)"/>
            <stop offset="1" style="stop-color:rgb(128,128,128)"/>
            <stop offset="1" style="stop-color:rgb(128,128,128)"/>
           </linearGradient>
          </defs>
          <path style="fill:url(#gradient9)" d="M 7992,11605 L 11826,11605 11826,11653 7992,11653 7992,11605 Z"/>
         </g>
        </mask>
       </defs>
       <g style="mask:url(#mask9)" fill="none" stroke="rgb(0,0,0)" >
        <path d="M 11814,11617 L 11761,11617"/>
        <path d="M 11708,11618 L 11655,11618"/>
        <path d="M 11602,11618 L 11549,11619"/>
        <path d="M 11495,11619 L 11442,11619"/>
        <path d="M 11389,11620 L 11336,11620"/>
        <path d="M 11283,11620 L 11230,11621"/>
        <path d="M 11177,11621 L 11124,11621"/>
        <path d="M 11071,11622 L 11018,11622"/>
        <path d="M 10965,11622 L 10911,11623"/>
        <path d="M 10858,11623 L 10805,11623"/>
        <path d="M 10752,11624 L 10699,11624"/>
        <path d="M 10646,11624 L 10593,11625"/>
        <path d="M 10540,11625 L 10487,11625"/>
        <path d="M 10434,11626 L 10381,11626"/>
        <path d="M 10327,11626 L 10274,11627"/>
        <path d="M 10221,11627 L 10168,11627"/>
        <path d="M 10115,11628 L 10062,11628"/>
        <path d="M 10009,11628 L 9956,11629"/>
        <path d="M 9903,11629 L 9850,11629"/>
        <path d="M 9797,11630 L 9743,11630"/>
        <path d="M 9690,11630 L 9637,11631"/>
        <path d="M 9584,11631 L 9531,11631"/>
        <path d="M 9478,11632 L 9425,11632"/>
        <path d="M 9372,11632 L 9319,11633"/>
        <path d="M 9266,11633 L 9213,11633"/>
        <path d="M 9159,11634 L 9106,11634"/>
        <path d="M 9053,11634 L 9000,11635"/>
        <path d="M 8947,11635 L 8894,11635"/>
        <path d="M 8841,11636 L 8788,11636"/>
        <path d="M 8735,11636 L 8682,11637"/>
        <path d="M 8629,11637 L 8575,11637"/>
        <path d="M 8522,11638 L 8469,11638"/>
        <path d="M 8416,11638 L 8363,11639"/>
        <path d="M 8310,11639 L 8257,11639"/>
        <path d="M 8204,11640 L 8151,11640"/>
        <path d="M 8098,11640 L 8045,11641"/>
       </g>
      </g>
     </g>
     <g class="com.sun.star.drawing.LineShape">
      <g id="id36">
       <defs>
        <mask id="mask10">
         <g>
          <defs>
           <linearGradient id="gradient10" x1="10353" y1="12367" x2="10353" y2="14677" gradientUnits="userSpaceOnUse">
            <stop offset="0.5" style="stop-color:rgb(128,128,128)"/>
            <stop offset="0.5" style="stop-color:rgb(128,128,128)"/>
            <stop offset="1" style="stop-color:rgb(128,128,128)"/>
            <stop offset="1" style="stop-color:rgb(128,128,128)"/>
           </linearGradient>
          </defs>
          <path style="fill:url(#gradient10)" d="M 7992,12367 L 12715,12367 12715,14677 7992,14677 7992,12367 Z"/>
         </g>
        </mask>
       </defs>
       <g style="mask:url(#mask10)" fill="none" stroke="rgb(0,0,0)" >
        <path d="M 12703,14665 L 12655,14642"/>
        <path d="M 12608,14619 L 12560,14595"/>
        <path d="M 12512,14572 L 12464,14549"/>
        <path d="M 12417,14526 L 12369,14502"/>
        <path d="M 12321,14479 L 12273,14456"/>
        <path d="M 12226,14433 L 12178,14410"/>
        <path d="M 12130,14386 L 12082,14363"/>
        <path d="M 12035,14340 L 11987,14317"/>
        <path d="M 11939,14293 L 11891,14270"/>
        <path d="M 11844,14247 L 11796,14224"/>
        <path d="M 11748,14200 L 11700,14177"/>
        <path d="M 11653,14154 L 11605,14131"/>
        <path d="M 11557,14108 L 11509,14084"/>
        <path d="M 11462,14061 L 11414,14038"/>
        <path d="M 11366,14015 L 11318,13991"/>
        <path d="M 11271,13968 L 11223,13945"/>
        <path d="M 11175,13922 L 11128,13899"/>
        <path d="M 11080,13875 L 11032,13852"/>
        <path d="M 10984,13829 L 10937,13806"/>
        <path d="M 10889,13782 L 10841,13759"/>
        <path d="M 10793,13736 L 10746,13713"/>
        <path d="M 10698,13690 L 10650,13666"/>
        <path d="M 10602,13643 L 10555,13620"/>
        <path d="M 10507,13597 L 10459,13573"/>
        <path d="M 10411,13550 L 10364,13527"/>
        <path d="M 10316,13504 L 10268,13480"/>
        <path d="M 10220,13457 L 10173,13434"/>
        <path d="M 10125,13411 L 10077,13388"/>
        <path d="M 10029,13364 L 9982,13341"/>
        <path d="M 9934,13318 L 9886,13295"/>
        <path d="M 9838,13271 L 9791,13248"/>
        <path d="M 9743,13225 L 9695,13202"/>
        <path d="M 9648,13179 L 9600,13155"/>
        <path d="M 9552,13132 L 9504,13109"/>
        <path d="M 9457,13086 L 9409,13062"/>
        <path d="M 9361,13039 L 9313,13016"/>
        <path d="M 9266,12993 L 9218,12970"/>
        <path d="M 9170,12946 L 9122,12923"/>
        <path d="M 9075,12900 L 9027,12877"/>
        <path d="M 8979,12853 L 8931,12830"/>
        <path d="M 8884,12807 L 8836,12784"/>
        <path d="M 8788,12760 L 8740,12737"/>
        <path d="M 8693,12714 L 8645,12691"/>
        <path d="M 8597,12668 L 8549,12644"/>
        <path d="M 8502,12621 L 8454,12598"/>
        <path d="M 8406,12575 L 8359,12551"/>
        <path d="M 8311,12528 L 8263,12505"/>
        <path d="M 8215,12482 L 8168,12459"/>
        <path d="M 8120,12435 L 8072,12412"/>
        <path d="M 8024,12389 L 8004,12379"/>
       </g>
      </g>
     </g>
    </g>
   </g>
  </g>
 </g>
</svg>
