<?xml version="1.0" encoding="UTF-8" standalone="no"?>
<!-- Created with Inkscape (http://www.inkscape.org/) -->

<svg
   width="250"
   height="250"
   id="svg212312312">
  <g
     transform="translate(0,-802.36215)">
    <path class="svg-receptor-with-opacity"
       style="fill:#000000;fill-opacity:1;fill-rule:nonzero;stroke:none"
       d="m 215.56688,848.21712 c -1.08013,0.0495 -2.13267,0.17479 -3.50071,0.34598 -0.78665,0.0985 -1.5684,0.27302 -2.3512,0.40368 -1.95168,0.45874 -3.95365,1.01852 -5.69517,2.13366 -1.92962,1.23556 -3.49236,1.96538 -4.80692,3.74833 -0.27679,0.37537 -0.48921,0.80759 -0.73151,1.211 -0.49922,1.11465 -0.85511,2.29209 -1.04497,3.51764 -74.41845,0.10981 -114.69411,0.43477 -189.978089,-0.34599 -0.5067133,0.40633 -1.0085035,0.80466 -1.5152273,1.21099 -0.0377,-0.13346 -0.066643,-0.27027 -0.1044943,-0.40365 l -3.8664414,2.30666 c 11.41835,35.21444 16.156318,72.57951 18.548465,109.73941 2.601866,4.80838 -3.236836,24.48384 4.179937,19.4914 21.028422,0.0484 41.960165,-2.06758 62.960285,-2.9411 49.251955,-2.92471 98.337335,4.36597 147.551735,4.90171 3.97508,3.39043 17.28868,-1.73561 6.74015,-2.59514 -37.59684,0.051 -75.03797,-3.90469 -112.59701,-5.13223 -34.333172,-1.25458 -68.564267,3.39769 -102.878688,2.94098 l -1.515227,1.21101 C 22.463047,946.86371 17.915678,903.53168 6.4133294,862.11476 73.864583,861.30778 129.94344,862.2975 197.4364,862.92208 c 0.0533,0.28383 0.10132,0.58158 0.15677,0.86501 0.51465,1.75701 1.44961,3.38986 2.6647,4.67098 0.23297,0.24563 0.48671,0.46077 0.73147,0.69199 2.06992,1.83636 4.70492,2.22046 7.26264,2.47967 2.61083,0.0961 5.25465,-0.26945 7.68065,-1.38401 0.43933,-0.20183 0.87663,-0.46597 1.30623,-0.69199 1.26089,-0.81564 2.52192,-1.56826 3.76193,-2.42198 0.69059,-0.47547 1.60892,-1.34492 2.19447,-1.96068 0.5846,-0.61476 1.23926,-1.41287 1.72423,-2.13366 0.0913,-0.1356 0.17895,-0.26129 0.26123,-0.40365 0.6533,0.10188 1.19241,0.28119 2.40349,0.34598 0.93616,0.0424 2.69269,0.36325 3.70969,0.51902 1.95344,27.668 4.75628,55.23147 7.10588,82.86681 0.70744,13.76738 4.15332,27.35812 3.3962,41.17387 -0.13126,8.87924 6.78519,-2.81788 4.07545,-7.26597 -0.83337,-12.97346 -3.502,-25.83704 -4.33669,-38.86723 -1.88733,-26.79461 -5.22888,-53.47746 -6.2699,-80.32949 -0.0481,0.027 -0.10865,0.0307 -0.15676,0.0576 -1.07867,-0.20019 -3.7268,-1.06568 -4.70243,-1.09566 -1.8176,-0.10161 -2.51267,-0.29902 -4.07543,-0.34602 0.26821,-1.16091 0.34412,-2.32881 0.20899,-3.69066 -0.1545,-1.37411 -0.76977,-2.54938 -1.51524,-3.63298 -0.55676,-0.70755 -1.20377,-1.28758 -1.88097,-1.84533 -0.47072,-0.39343 -1.00426,-0.71386 -1.51521,-1.03799 -0.44238,-0.29609 -0.88089,-0.4762 -1.35849,-0.69202 -0.38413,-0.16883 -0.80186,-0.28962 -1.20172,-0.40364 -1.33787,-0.19407 -2.43547,-0.22202 -3.5007,-0.17302 z m -1.82872,2.01832 c 1.33856,0.0234 2.64883,0.12111 3.97094,0.34601 0.0154,0.005 0.037,-0.005 0.0521,0 0.47215,0.19895 0.81754,0.52268 1.25398,0.80731 0.50123,0.32072 0.99267,0.60469 1.46297,0.98035 0.66287,0.53177 1.32847,1.1129 1.88099,1.78765 0.71478,1.03038 1.26977,2.14693 1.41074,3.46 0.20723,2.16901 -0.0174,3.77762 -0.99274,5.70898 -0.21095,0.3428 -0.39798,0.70968 -0.62699,1.03801 -0.7944,1.13882 -1.80328,2.16559 -2.82147,3.05632 -0.3649,0.31921 -1.59167,0.70409 -1.14949,0.86499 -2.36152,1.12178 -4.91308,1.45653 -7.47163,1.384 -2.49457,-0.23376 -5.12713,-0.53445 -7.15815,-2.30666 -0.23761,-0.22167 -0.45238,-0.3993 -0.67923,-0.63433 -1.18702,-1.22997 -2.07208,-2.84604 -2.56021,-4.55564 -0.0712,-0.3805 -0.1642,-0.71029 -0.20898,-1.09568 -0.25583,-2.20417 0.21323,-4.40596 1.14946,-6.34331 0.24591,-0.38258 0.45333,-0.79868 0.73149,-1.15335 0.30165,-0.3846 1.26273,-0.68343 0.99274,-1.09566 -0.0204,-0.0313 -0.0207,-0.045 -0.0521,-0.0576 0.13421,-0.0644 0.28442,-0.10926 0.41799,-0.17299 1.56098,-0.74387 2.35184,-0.91505 4.02317,-1.38399 0.77835,-0.13725 1.56853,-0.30146 2.35124,-0.40367 1.3288,-0.17358 2.68464,-0.2542 4.02319,-0.23066 z"
       />
    <path class="svg-receptor-with-opacity"
       style="fill:#000000;fill-opacity:0.31372549;fill-rule:nonzero;stroke:none"
       d="m 23.083264,878.74015 c 1.252785,4.3804 5.94395,10.21428 0.834806,9.58488 2.185473,-4.58826 9.715011,-14.4814 11.990737,-5.44531 2.485268,2.79938 2.125054,1.28499 -0.817782,3.29169 2.977942,-3.51274 8.723856,-12.22184 11.672402,-4.03706 3.215656,1.13818 5.787319,0.63854 8.299602,4.22008 2.480269,1.30131 10.938112,-3.70437 9.807995,-0.97523 -4.841463,3.58707 3.771343,-5.29124 5.457198,-5.95327 2.438197,-4.21012 6.789651,4.40562 4.918794,3.87357 -6.297102,4.38613 5.660758,-7.19327 4.266211,1.666 0.144681,3.48566 4.394329,9.89944 4.608686,9.9701 -4.99403,3.79972 1.635269,-4.98558 2.537146,-6.60384 5.854976,-4.78377 5.277393,11.51426 11.795181,6.29616 -5.19179,4.00478 4.76352,-8.86581 7.29221,-3.97539 -0.0848,0.26507 -5.33697,4.05616 -1.79995,-0.12661 0.28968,-6.48048 8.86943,-11.71555 10.03199,-7.04527 -5.73223,4.4313 5.95924,-9.19835 5.98165,-0.64594 -0.0118,2.79652 4.15983,6.45805 3.50462,5.66693 -5.74219,3.65394 6.35048,-8.2812 7.29712,-0.48108 3.84103,5.82016 11.2587,6.45192 16.69002,3.12982 6.46805,-3.1015 11.38519,-8.96554 18.1058,-11.83611 2.42655,5.21954 7.35489,10.01804 13.52226,9.78781 5.59464,3.20678 11.02849,-7.15814 14.8712,0.20288 1.2451,3.3781 10.49885,2.50118 8.97469,4.48739 -2.89993,3.74816 -7.44253,1.08903 -10.81013,-0.49218 -3.03664,-4.12647 -6.35728,-4.98905 -10.10788,-1.35434 -5.90706,0.81442 -12.11622,-0.43838 -16.98841,-4.43904 -0.49752,-2.59061 -3.92668,-5.93743 -2.57852,-5.81345 3.68039,-1.94784 -4.22525,2.75869 -3.71739,2.9513 -6.73221,4.37219 -13.30015,10.34195 -21.33007,11.22929 -4.62536,0.77933 -13.73266,-5.7695 -11.09216,-9.22886 3.55369,-3.60755 -7.32457,9.78694 -8.70711,2.09668 -2.81223,-3.33606 -2.53006,-8.42631 0.11084,-7.83877 -1.32731,3.46859 -10.16796,7.41069 -8.85157,2.33183 5.56185,-5.3034 -1.6645,5.77178 -2.76092,8.33318 -4.92006,4.22249 -6.51845,-1.39866 -2.95799,-0.93231 -3.33068,3.86006 -10.402095,11.67404 -14.261644,4.39239 -2.229985,-3.01162 -3.90847,-6.28927 0.803554,-7.44097 -1.400465,5.49173 -10.197378,15.14029 -12.227178,4.80425 -1.708938,-3.77989 -4.034248,-10.41427 0.219243,-10.17177 -2.297752,5.46583 -9.098036,1.63642 -7.823754,-1.61873 5.123172,-4.14957 -3.019361,4.99697 -5.223926,5.75657 -5.195867,1.42139 -12.819213,5.9451 -16.955184,-0.78303 -5.210384,2.78847 -8.71342,-7.12124 -4.451989,-6.05703 -3.072553,4.313 -10.558489,12.71953 -12.437904,2.85674 -1.817498,-2.13613 7.069332,-5.6452 0.827003,-1.46192 -2.680724,6.03048 -9.909744,12.80224 -11.511477,2.55077 -2.297318,-3.29051 1.200899,-3.08552 2.992045,-4.72283 z"
       />
    <path class="svg-receptor-with-opacity"
       style="fill:#000000;fill-opacity:0.31372549;fill-rule:nonzero;stroke:none"
       d="m 29.304067,907.94128 c 1.252784,4.38037 5.943948,10.21428 0.834803,9.58488 2.185474,-4.58828 9.715013,-14.48143 11.990738,-5.44532 2.485269,2.79938 2.125055,1.28496 -0.817782,3.29167 2.977944,-3.51271 8.723857,-12.22181 11.672403,-4.03704 3.215656,1.1382 5.787319,0.63852 8.299599,4.22008 2.480272,1.30131 10.938116,-3.70435 9.807997,-0.97524 -4.841462,3.58707 3.771342,-5.29122 5.457201,-5.95327 2.438197,-4.21011 6.78965,4.40561 4.918794,3.8736 -6.297106,4.3861 5.660756,-7.19328 4.266207,1.66596 0.144684,3.48571 4.394333,9.89944 4.608687,9.9701 -4.994028,3.79974 1.63527,-4.98558 2.537147,-6.60381 5.854969,-4.78379 5.277389,11.51424 11.795179,6.29615 -5.19179,4.00481 4.76351,-8.8658 7.29221,-3.9754 -0.0849,0.26509 -5.33696,4.05615 -1.79994,-0.12661 0.28967,-6.48047 8.86942,-11.71554 10.03198,-7.04528 -5.73223,4.43133 5.95924,-9.19832 5.98164,-0.64593 -0.0117,2.79652 4.15981,6.45806 3.50464,5.66697 -5.74218,3.65391 6.35047,-8.28123 7.2971,-0.48112 3.84102,5.82015 11.2587,6.45193 16.69002,3.12984 6.46806,-3.1015 11.3852,-8.96553 18.10578,-11.83611 2.42659,5.21952 7.35493,10.01803 13.5223,9.78782 5.59463,3.20677 11.02851,-7.15816 14.87119,0.20284 1.24512,3.37812 10.49885,2.5012 8.97468,4.48743 -2.89992,3.74814 -7.44253,1.08902 -10.81013,-0.49219 -3.03664,-4.12648 -6.35727,-4.98904 -10.10788,-1.35435 -5.90706,0.81442 -12.11622,-0.43838 -16.9884,-4.43902 -0.49751,-2.59063 -3.92668,-5.93744 -2.57852,-5.81345 3.68039,-1.94788 -4.22526,2.75868 -3.71737,2.95127 -6.73224,4.37219 -13.30015,10.34195 -21.33008,11.2293 -4.62537,0.77931 -13.73266,-5.76949 -11.09219,-9.22885 3.55372,-3.60756 -7.32456,9.78694 -8.70709,2.09667 -2.81224,-3.33608 -2.53005,-8.4263 0.1107,-7.83877 -1.3273,3.46858 -10.16794,7.41068 -8.85156,2.33181 5.56186,-5.30336 -1.66451,5.7718 -2.76092,8.33319 -4.92005,4.22249 -6.51844,-1.39866 -2.95798,-0.9323 -3.33069,3.86006 -10.4021,11.67405 -14.261652,4.39238 -2.229985,-3.01161 -3.908469,-6.28926 0.803554,-7.44098 -1.400465,5.49174 -10.197377,15.1403 -12.227176,4.80428 -1.708942,-3.77988 -4.034248,-10.41428 0.21924,-10.1718 -2.297752,5.46584 -9.098033,1.63642 -7.823753,-1.61872 5.123171,-4.14958 -3.019361,4.99698 -5.223926,5.7566 -5.195866,1.4214 -12.819212,5.9451 -16.955184,-0.78303 -5.210385,2.78842 -8.71342,-7.12124 -4.451991,-6.05708 -3.07255,4.31304 -10.558486,12.71957 -12.437901,2.85678 -1.817498,-2.13615 7.06933,-5.64521 0.827001,-1.46194 -2.680722,6.0305 -9.909742,12.80227 -11.511477,2.55081 -2.297317,-3.29055 1.200901,-3.08557 2.992044,-4.72285 z"
       />
    <path class="svg-receptor-with-opacity"
       style="fill:#000000;fill-opacity:0.31372549;fill-rule:nonzero;stroke:none"
       d="m 31.095466,936.93932 c 1.252787,4.38037 5.943951,10.21427 0.834805,9.58487 2.185474,-4.58826 9.715013,-14.48141 11.990739,-5.44532 2.48527,2.79939 2.125056,1.28499 -0.817782,3.29169 2.977943,-3.51273 8.723856,-12.22181 11.672402,-4.03706 3.215655,1.13819 5.78732,0.63854 8.299601,4.2201 2.480269,1.3013 10.938115,-3.70439 9.807995,-0.97525 -4.841461,3.58707 3.771345,-5.29124 5.4572,-5.95325 2.438196,-4.21014 6.789652,4.40561 4.918796,3.87357 -6.297103,4.38612 5.660755,-7.19327 4.266206,1.66598 0.144682,3.48569 4.394334,9.89944 4.608688,9.9701 -4.994029,3.79973 1.63527,-4.98559 2.537148,-6.60382 5.854976,-4.78378 5.277386,11.51424 11.795186,6.29616 -5.1918,4.00478 4.7635,-8.86582 7.2922,-3.9754 -0.0849,0.26506 -5.33696,4.05616 -1.79994,-0.12661 0.28967,-6.4805 8.86943,-11.71556 10.03198,-7.04529 -5.73223,4.43131 5.95924,-9.19833 5.98164,-0.64592 -0.0118,2.79652 4.15985,6.45805 3.50464,5.66694 -5.7422,3.65394 6.35046,-8.28122 7.29711,-0.48111 3.84103,5.82017 11.25869,6.45193 16.69001,3.12983 6.46806,-3.10148 11.38519,-8.96552 18.10578,-11.83609 2.42658,5.21952 7.35493,10.01803 13.5223,9.78781 5.59462,3.20677 11.0285,-7.15815 14.87119,0.20287 1.24512,3.37809 10.49886,2.50119 8.97469,4.48738 -2.89994,3.74817 -7.44253,1.08904 -10.81011,-0.49219 -3.03665,-4.12645 -6.3573,-4.98902 -10.10792,-1.35432 -5.90704,0.81442 -12.11618,-0.43837 -16.98839,-4.43904 -0.49751,-2.5906 -3.92668,-5.93745 -2.57849,-5.81345 3.68036,-1.94785 -4.22528,2.75871 -3.71742,2.95128 -6.73221,4.37222 -13.30013,10.34195 -21.33008,11.22933 -4.62535,0.77929 -13.73263,-5.76953 -11.09215,-9.22888 3.55371,-3.60754 -7.32459,9.78694 -8.7071,2.09668 -2.81224,-3.33608 -2.53006,-8.42631 0.11087,-7.83877 -1.32731,3.46858 -10.16797,7.41067 -8.85158,2.3318 5.56185,-5.30336 -1.66451,5.77181 -2.76093,8.33321 -4.92005,4.22249 -6.51844,-1.39866 -2.95798,-0.93231 -3.33068,3.86006 -10.40209,11.67403 -14.261644,4.39239 -2.229985,-3.01162 -3.908472,-6.28928 0.803553,-7.44099 -1.400466,5.49173 -10.197376,15.1403 -12.227177,4.80428 -1.70894,-3.7799 -4.034246,-10.41428 0.21924,-10.17178 -2.29775,5.46581 -9.098034,1.6364 -7.82375,-1.61875 5.12317,-4.14955 -3.019364,4.997 -5.223927,5.75661 -5.195867,1.42137 -12.819214,5.94509 -16.955185,-0.78304 -5.210384,2.78844 -8.71342,-7.12123 -4.451988,-6.05707 -3.072553,4.31304 -10.55849,12.71955 -12.437904,2.85679 -1.817499,-2.13615 7.06933,-5.64522 0.827003,-1.46194 -2.680726,6.0305 -9.909743,12.80223 -11.511479,2.55078 -2.297319,-3.29054 1.200901,-3.08553 2.992047,-4.72283 z"
       />
    <path class="svg-receptor-with-opacity"
       style="fill:#000000;fill-opacity:1;fill-rule:nonzero;stroke:none"
       d="m 44.202285,934.6491 c -0.502249,1.17525 -0.899558,2.17208 -1.360716,3.25741 -0.13128,0.26931 -0.212686,0.52121 -0.369364,0.81558 -0.0081,0.0166 -0.03745,0.0108 -0.04581,0.0276 4.195081,2.07105 5.873853,4.11444 9.036332,7.74954 7.321051,8.50565 13.643673,18.0799 18.47611,28.54072 2.377713,0.81857 5.187634,-0.62868 7.448071,-1.68071 3.187444,-1.58128 6.370453,-3.43633 8.981572,-6.0297 1.22734,-2.06294 2.597185,-4.07945 3.451496,-6.36486 0.790629,-3.97146 -0.869943,-7.92485 -2.588961,-11.32406 -3.645268,-6.4069 -7.390828,-12.94576 -12.839913,-17.68051 -4.558472,-3.8962 -10.682039,-4.49594 -16.207757,-3.47355 -5.067201,0.73658 -9.574314,3.49447 -13.98106,6.16242 z m 2.326292,1.68296 c 2.099229,-1.17368 4.22209,-2.21369 6.586361,-2.9352 6.045686,-1.8731 13.104481,-2.02129 18.473112,2.03628 5.488533,4.25436 9.173121,10.62249 12.737836,16.75569 1.788074,3.41621 3.622088,7.37989 3.060401,11.43331 -0.948098,0.94243 -2.166324,2.05628 -3.367673,2.69661 -3.479248,2.19732 -7.701778,6.3372 -11.848688,4.93717 -3.111468,-6.49129 -6.793636,-12.6048 -10.831623,-18.43596 -4.752892,-6.63228 -8.472492,-12.2693 -14.809726,-16.4879 z"
       />
    <path class="svg-receptor-with-opacity"
       style="fill:#000000;fill-opacity:1;fill-rule:nonzero;stroke:none"
       d="m 97.405076,960.40041 c -1.006806,-2.13482 -2.092247,-4.22265 -3.087363,-6.36393 -0.846612,-1.95396 -1.604593,-4.06473 -1.680075,-6.26138 -0.01403,-0.40725 0.0307,-0.81441 0.04606,-1.22151 0.155092,-1.2012 0.435503,-2.38947 1.000957,-3.4432 1.963496,-3.65863 2.330657,-4.69357 4.517435,-7.11893 1.9459,-1.83708 4.10441,-3.46969 6.48786,-4.53741 0.5559,-0.24816 1.13119,-0.43924 1.69675,-0.65894 2.46629,-0.8253 4.6586,-0.90428 7.18002,-0.53464 0,0 -2.11307,4.2253 -2.11307,4.2253 l 0,0 c -2.46194,-0.37363 -4.56305,-0.26941 -6.96302,0.57357 -0.55334,0.22764 -1.11762,0.4253 -1.66055,0.68182 -2.3508,1.11067 -4.48335,2.76903 -6.367704,4.66002 -0.280151,0.32956 -0.573711,0.646 -0.840302,0.98905 -0.997348,1.28341 -1.991629,3.23662 0.862512,-1.98351 0.188929,-0.34528 -0.375719,0.69406 -0.527323,1.06117 -0.364451,0.88258 -0.411645,1.31925 -0.610068,2.25898 -0.03562,0.39051 -0.105066,0.77901 -0.107027,1.17145 -0.01072,2.15352 0.732302,4.25544 1.540876,6.17038 0.983555,2.12891 2.051096,4.20904 3.119146,6.28764 0,0 -2.49516,4.0441 -2.49516,4.0441 z"
       />
    <path class="svg-receptor-with-opacity"
       style="fill:#000000;fill-opacity:1;fill-rule:nonzero;stroke:none"
       d="m 130.89453,919.27603 c -2.35003,1.46485 -4.81523,2.72581 -7.1074,4.30297 -0.50443,0.34963 -0.9858,0.73788 -1.47815,1.10795 -1.24366,0.98799 -2.36037,2.13766 -3.22537,3.5405 -0.24189,0.39228 -0.90571,1.61226 -0.65875,1.2239 1.80309,-2.83692 2.04436,-4.08625 1.34283,-1.61112 -0.51328,2.74823 -0.0581,4.89309 0.8267,7.45115 0.21967,0.42395 0.4028,0.87378 0.65918,1.2719 1.08854,1.69004 2.74772,3.09799 4.46397,3.92203 0.44667,0.21449 0.92053,0.35174 1.38083,0.52767 3.17156,0.94987 6.00671,-0.0565 8.95652,-1.32249 1.30045,-0.67574 2.58688,-1.42723 3.55028,-2.63833 0.27618,-0.3482 0.9486,-1.52419 0.73278,-1.12766 -2.02172,3.7147 -1.93348,3.83009 -1.38188,1.66992 0.0133,-0.44553 0.0684,-0.89198 0.0394,-1.33652 -0.19418,-2.96463 -2.05871,-6.63244 -3.29258,-9.22166 -1.58094,-2.90462 -3.09624,-5.94076 -5.15864,-8.47645 -0.48647,-0.43329 -0.24945,-0.28548 -0.68004,-0.49856 0,0 2.27748,-4.21265 2.27748,-4.21265 l 0,0 c 0.51835,0.3178 0.24452,0.11694 0.79788,0.64021 0.74807,0.96046 1.37928,1.97247 2.01165,3.03096 1.10093,1.84248 2.18593,3.69889 3.15577,5.63044 0.96427,1.97849 1.92942,3.95481 2.67783,6.04907 0.37105,1.03861 0.70889,2.10932 0.83978,3.22389 0.0542,0.46314 0.0304,0.93356 0.0456,1.4004 -0.56184,3.17653 -0.11663,1.42826 -3.025,6.52921 -1.02257,1.79332 -2.80942,2.77199 -4.48799,3.62428 -3.10827,1.27923 -5.91642,2.1945 -9.22869,1.17448 -0.47958,-0.18745 -0.97312,-0.3363 -1.43878,-0.56248 -1.78322,-0.86623 -3.50057,-2.32713 -4.67069,-4.05284 -0.27672,-0.40809 -0.48024,-0.87084 -0.72031,-1.30617 -0.97831,-2.63533 -1.46162,-4.75769 -1.05824,-7.63326 0.73802,-3.21094 0.1551,-1.15951 3.03709,-6.5893 1.00143,-1.88659 2.40599,-3.39891 4.03321,-4.63345 0.50075,-0.36421 0.99241,-0.74399 1.50309,-1.09103 2.33041,-1.57717 4.8126,-2.87156 7.16016,-4.417 0,0 -1.88229,4.40423 -1.88229,4.40423 z"
       />
    <path class="svg-receptor-with-opacity"
       style="fill:#000000;fill-opacity:1;fill-rule:nonzero;stroke:none"
       d="m 150.81616,871.22059 c -1.85934,1.17957 -3.78256,2.19841 -5.36261,3.8386 -0.4276,0.44411 -0.81486,0.91851 -1.21461,1.39313 -1.96475,2.9583 -4.0139,6.05896 -4.92895,9.62715 -0.62032,2.41862 -0.66531,4.5684 -0.66866,7.0479 0.31308,5.44857 2.38077,10.43942 4.50318,15.29542 -1.38022,1.0616 -2.77583,2.07182 -4.1967,3.06696 l -1.90441,4.44162 c 2.39505,-1.71647 4.71578,-3.54833 7.03976,-5.38019 1.63823,3.40033 3.53531,6.6835 5.71294,9.69584 0.73884,1.02202 1.44798,1.94823 2.22888,2.92581 1.25034,1.43657 2.47758,2.95037 3.72908,4.3854 l 2.35963,-4.12528 c -1.28364,-1.37492 -2.45566,-2.86513 -3.72461,-4.25654 -0.80644,-0.97369 -1.51188,-1.86785 -2.27471,-2.89808 -1.87914,-2.53763 -3.531,-5.24095 -4.97975,-8.10079 0.0284,-0.022 0.0633,-0.0336 0.0917,-0.0555 3.49533,-2.6417 7.10972,-5.12684 10.70456,-7.59895 0.35681,-0.24126 0.7183,-0.47328 1.07428,-0.71619 l 1.81283,-4.38615 c -0.3613,0.25029 -0.7337,0.54414 -1.09503,0.79449 -3.60488,2.52576 -7.22121,4.97291 -10.7503,7.62664 -0.95126,0.72577 -1.87846,1.49713 -2.82242,2.23495 -2.30635,-5.29446 -4.66484,-10.72797 -4.90237,-16.69807 0.0419,-2.48393 0.0798,-4.56887 0.7647,-6.97452 0.17319,-0.60833 1.12003,-1.78979 0.9131,-1.9998 0.25322,-0.33546 0.48089,-0.67934 0.76096,-0.9869 1.50972,-1.65866 3.41776,-2.69058 5.27102,-3.78312 l 1.85859,-4.41391 z"
       />
    <path class="svg-receptor-with-opacity"
       style="fill:#000000;fill-opacity:1;fill-rule:nonzero;stroke:none"
       d="m 165.85559,880.13716 -2.4557,4.05187 c 0.9656,1.84968 1.89551,3.7184 2.83509,5.58435 -0.8397,0.50345 -1.69771,0.98547 -2.54465,1.47482 l -1.85861,4.41393 c 1.8747,-1.15832 3.73893,-2.29635 5.60945,-3.4619 0.61391,1.22967 1.26856,2.43214 1.88022,3.66306 1.30824,2.59302 2.49615,5.28581 4.28212,7.53654 0.85244,1.07424 1.31046,1.46175 2.30274,2.35493 1.99028,1.56698 4.29537,2.20257 6.73025,1.91067 0.48369,-0.0579 0.93747,-0.17548 1.4172,-0.26607 1.49352,-0.42956 2.85864,-1.1106 3.98987,-2.28401 1.79641,-1.86338 3.40414,-5.55004 4.44154,-7.49043 0.62557,-1.81142 0.52728,-2.46216 -0.35069,-4.06292 l -2.45572,4.0519 c 0.60419,1.20944 0.64135,1.86953 0.31066,2.90324 -1.05829,1.28256 -2.30922,2.13302 -3.93072,2.64283 -0.46303,0.0996 -0.92441,0.24883 -1.39209,0.31663 -2.32879,0.33756 -4.53266,-0.32191 -6.44648,-1.81937 -0.96473,-0.87051 -1.39559,-1.16236 -2.22735,-2.20326 -1.77191,-2.21756 -3.00394,-4.89827 -4.30282,-7.45823 -0.3096,-0.62279 -0.6204,-1.24768 -0.92973,-1.87068 2.44246,-1.59842 4.76526,-3.48393 7.09001,-5.27906 1.02954,-0.78179 0.54031,-0.39397 1.48214,-1.09466 l 1.81282,-4.38615 c -0.95555,0.72162 -0.43883,0.29248 -1.48217,1.09465 -2.42519,1.89133 -4.82605,3.85422 -7.38555,5.52376 -0.89934,0.58207 -1.81707,1.14664 -2.72343,1.71462 -1.24085,-2.51183 -2.49927,-5.02477 -3.6984,-7.56106 z"
       />
    <path class="svg-receptor-with-opacity"
       style="fill:#000000;fill-opacity:1;stroke:none"
       d="m 213.11118,855.19476 -2.76922,1.55699 c 0.0172,0.85616 -9.3e-4,1.73865 0,2.595 -0.40166,0.12944 -0.79985,0.27465 -1.20173,0.40366 l -2.45573,2.13367 c 1.21477,-0.42644 2.43536,-0.81149 3.65746,-1.211 -6.3e-4,0.39962 3.9e-4,0.81138 0,1.211 -9.3e-4,0.91686 0.009,1.79352 0,2.71033 l 2.76922,-1.557 c -0.008,-0.91112 9.1e-4,-1.79916 0,-2.71032 -2.3e-4,-0.15297 2.8e-4,-0.30834 0,-0.46133 0.1407,-0.0316 0.2759,-0.0901 0.41799,-0.11519 0.30484,-0.0503 0.58081,-0.10215 0.88823,-0.11519 l 2.5602,-2.01831 c -0.31397,0.008 -0.62726,0.0301 -0.94048,0.0576 -0.86834,0.12421 -1.73479,0.37131 -2.5602,0.69202 -0.1212,0.0411 -0.24454,0.0744 -0.36574,0.1152 -6.2e-4,-1.0901 -0.0221,-2.19715 0,-3.287 z"
       />
  </g>
</svg>
