<?xml version="1.0" encoding="UTF-8" standalone="no"?>
<!-- Created with Inkscape (http://www.inkscape.org/) -->

<svg
   xmlns:dc="http://purl.org/dc/elements/1.1/"
   xmlns:cc="http://creativecommons.org/ns#"
   xmlns:rdf="http://www.w3.org/1999/02/22-rdf-syntax-ns#"
   xmlns:svg="http://www.w3.org/2000/svg"
   xmlns="http://www.w3.org/2000/svg"
   xmlns:sodipodi="http://sodipodi.sourceforge.net/DTD/sodipodi-0.dtd"
   xmlns:inkscape="http://www.inkscape.org/namespaces/inkscape"
   width="250"
   height="250"
   id="svg2"
   version="1.1"
   inkscape:version="0.48.5 r10040"
   sodipodi:docname="subarrays.svg">
  <defs
     id="defs4" />
  <sodipodi:namedview
     id="base"
     pagecolor="#ffffff"
     bordercolor="#666666"
     borderopacity="1.0"
     inkscape:pageopacity="0.0"
     inkscape:pageshadow="2"
     inkscape:zoom="2.8"
     inkscape:cx="209.98262"
     inkscape:cy="125.57395"
     inkscape:document-units="px"
     inkscape:current-layer="layer1"
     showgrid="false"
     inkscape:window-width="1931"
     inkscape:window-height="883"
     inkscape:window-x="48"
     inkscape:window-y="59"
     inkscape:window-maximized="0" />
  <metadata
     id="metadata7">
    <rdf:RDF>
      <cc:Work
         rdf:about="">
        <dc:format>image/svg+xml</dc:format>
        <dc:type
           rdf:resource="http://purl.org/dc/dcmitype/StillImage" />
        <dc:title />
      </cc:Work>
    </rdf:RDF>
  </metadata>
  <g
     inkscape:label="Layer 1"
     inkscape:groupmode="layer"
     id="layer1"
     transform="translate(0,-802.36218)">
    <path class="svg-receptor"
       style="fill:#000000;fill-opacity:1;fill-rule:nonzero;stroke:none"
       id="path3035-9"
       d="m 188.20037,963.73652 c -0.24637,1.60271 -0.2983,3.26233 -0.2088,4.89151 0.0314,0.57314 0.0938,1.14266 0.14077,1.71399 0.23127,1.46315 0.30936,2.24958 0.72406,3.66209 0.56307,1.91788 1.47839,3.98894 2.59868,5.43884 0.44933,0.58151 0.97597,1.05072 1.46395,1.57608 0.61745,0.43984 1.21146,0.94157 1.85236,1.31953 2.1934,1.29348 4.56754,1.94563 6.94777,2.27051 1.82646,0.24929 2.62113,0.2043 4.41478,0.22216 1.81215,-0.0462 3.63266,-0.16982 5.41804,-0.59982 l -1.08835,1.07248 0,0 c -1.75482,0.3534 -3.53496,0.4398 -5.3082,0.45594 -1.77503,-0.0411 -2.58435,-0.0106 -4.39201,-0.26811 -2.3997,-0.34189 -4.78407,-0.99455 -6.99953,-2.29117 -0.65099,-0.38099 -1.28846,-0.84295 -1.87853,-1.35172 -0.50941,-0.49758 -1.03716,-0.98145 -1.49491,-1.56913 -1.13299,-1.45463 -2.06866,-3.55018 -2.6448,-5.47792 -0.41837,-1.39985 -0.51018,-2.2285 -0.75004,-3.67989 -0.0523,-0.57219 -0.11872,-1.14248 -0.15694,-1.71658 -0.10785,-1.61986 -0.0842,-3.2643 0.1031,-4.87231 z"
       inkscape:connector-curvature="0"
       sodipodi:nodetypes="cscsscsscccccsscsscscc" />
    <path class="svg-receptor"
       style="fill:#000000;fill-opacity:1;fill-rule:nonzero;stroke:none"
       id="path3121-3"
       d="m 189.74186,1004.1337 c 0.0725,-0.2334 0.1506,-0.4645 0.21743,-0.7001 0.53718,-1.8934 0.9759,-3.82532 1.41615,-5.7503 0.47778,-2.08918 0.75828,-3.38523 1.21734,-5.47276 0.42679,-1.9868 0.8453,-3.9759 1.25511,-5.96737 0.0581,-0.2825 0.29513,-1.49562 0.40745,-1.88646 0.0389,-0.13544 0.10185,-0.26018 0.15277,-0.39027 0.34571,-0.17487 0.65937,-0.52768 1.03714,-0.5246 0.18938,7.7e-4 0.23049,0.34674 0.32423,0.53568 0.16193,0.32644 0.30014,0.6678 0.44099,1.00688 0.66209,1.59382 1.26725,3.22106 1.89186,4.83442 0.80413,2.03724 1.58813,4.08565 2.44817,6.09307 0.33839,0.78988 0.54682,1.24244 0.89168,2.00605 0.58733,1.3237 1.19823,2.63106 1.87804,3.89536 0.23522,0.4221 0.45615,0.8543 0.68377,1.2817 0.0859,0.1446 0.13458,0.2997 0.15334,0.472 0.0973,0.663 -0.2861,0.5327 -0.96292,0.9538 -1.2431,-0.032 -2.43298,-0.023 -3.67104,-0.036 -1.82344,-0.01 -3.56906,-0.029 -5.39434,-0.011 -0.85862,0.012 -1.56983,0.051 -2.44744,0.015 -0.29476,-0.011 -0.90253,-0.01 -1.19739,-0.01 -0.1566,0 -0.31319,-0.9809 -0.46977,-0.9796 l 0.44561,-0.1314 -0.0823,0.056 c 0.15544,10e-5 0.75546,0.019 0.9109,0.019 0.29294,0 0.76711,-0.038 1.05964,-0.018 0.86518,0.052 1.56342,0.048 2.42637,0.021 1.81791,0.054 3.65541,0.1397 5.47304,0.066 0.52897,0.05 1.33014,0 1.86819,0.043 0.55147,0.045 1.10314,-0.1022 1.65752,0.3061 0.0659,-0.01 0.13106,-0.016 0.19659,-0.025 -0.24696,0.1749 -0.49624,0.3455 -0.74087,0.5247 -0.0248,0.019 0.24694,-0.307 0.0739,-0.056 0.0164,-0.066 -0.008,-0.152 -0.0153,-0.217 -0.0119,-0.158 -0.0515,-0.2984 -0.1289,-0.432 -0.21985,-0.4323 -0.42398,-0.8752 -0.65185,-1.3023 -0.6588,-1.2814 -1.27981,-2.58649 -1.8455,-3.92585 -0.34071,-0.78889 -0.52639,-1.2106 -0.86318,-2.0278 -0.83415,-2.02389 -1.60846,-4.07909 -2.41151,-6.11924 -0.63004,-1.6047 -1.24251,-3.22614 -1.94982,-4.78899 -0.14849,-0.32809 -0.29932,-0.65573 -0.47209,-0.96774 -0.0877,-0.1584 -0.36135,-0.26212 -0.30703,-0.43917 0.0876,-0.28554 0.41092,-0.3795 0.61638,-0.56924 -0.0625,0.12901 -0.1404,0.24968 -0.18753,0.38702 -0.14118,0.41144 -0.40047,1.59992 -0.47307,1.91808 -0.45712,2.00363 -0.90608,4.00972 -1.34677,6.01821 -0.79366,3.58474 -0.41178,1.84366 -1.19852,5.46289 -0.41211,1.89585 -1.07594,4.47743 -1.53529,6.35923 -0.0562,0.2301 0.0162,0.59 -0.0435,0.8188 l -0.71458,0.012 z"
       inkscape:connector-curvature="0"
       sodipodi:nodetypes="ccscscccsscsccccccccccccccccsccccccccscssscsscssccc" />
    <path class="svg-receptor"
       style="fill:#000000;fill-opacity:1;fill-rule:nonzero;stroke:none"
       id="path3035-0-9"
       d="m 202.73307,930.57472 c -0.21075,1.22435 -0.25517,2.49217 -0.17861,3.73674 0.0269,0.43783 0.0803,0.8729 0.12041,1.30935 0.19785,1.11773 0.26464,1.7185 0.6194,2.79755 0.48167,1.46511 1.26469,3.04724 2.22304,4.15484 0.38436,0.44424 0.83488,0.80267 1.25232,1.204 0.52821,0.336 1.03635,0.7193 1.58461,1.00801 1.87633,0.98812 3.90727,1.48632 5.94344,1.7345 1.56244,0.19044 2.24224,0.15606 3.77661,0.16972 1.55019,-0.0353 3.10754,-0.12973 4.63484,-0.45823 l -0.93103,0.81931 0,0 c -1.50116,0.26996 -3.02396,0.33596 -4.54088,0.34829 -1.51844,-0.0314 -2.21077,-0.008 -3.75712,-0.20481 -2.05282,-0.26118 -4.09252,-0.75976 -5.98773,-1.75028 -0.55689,-0.29105 -1.1022,-0.64395 -1.60698,-1.0326 -0.43577,-0.38012 -0.88724,-0.74974 -1.27882,-1.1987 -0.96921,-1.11121 -1.76963,-2.71205 -2.26248,-4.18469 -0.3579,-1.06938 -0.43644,-1.7024 -0.64163,-2.81115 -0.0448,-0.43711 -0.10156,-0.87277 -0.13424,-1.31133 -0.0923,-1.23745 -0.0721,-2.49367 0.0882,-3.72207 z"
       inkscape:connector-curvature="0"
       sodipodi:nodetypes="cscsscsscccccsscsscscc" />
    <path class="svg-receptor"
       style="fill:#000000;fill-opacity:1;fill-rule:nonzero;stroke:none"
       id="path3121-7-1"
       d="m 204.05173,961.43502 c 0.062,-0.17824 0.12884,-0.35485 0.18601,-0.53479 0.45952,-1.44644 0.83482,-2.92228 1.21144,-4.39284 0.40871,-1.59596 0.64866,-2.58605 1.04137,-4.18078 0.3651,-1.51773 0.7231,-3.03724 1.07368,-4.55857 0.0497,-0.21581 0.25246,-1.14254 0.34856,-1.44111 0.0333,-0.10347 0.0871,-0.19876 0.13068,-0.29813 0.29574,-0.1336 0.56405,-0.40311 0.88721,-0.40076 0.16202,7.7e-4 0.19718,0.26488 0.27736,0.40922 0.13853,0.24937 0.25675,0.51015 0.37726,0.76918 0.56637,1.21756 1.08406,2.46063 1.61837,3.69311 0.68789,1.55631 1.35857,3.12113 2.09428,4.65466 0.28947,0.60337 0.46778,0.9491 0.76279,1.53243 0.50243,1.01125 1.02501,2.00998 1.60656,2.97581 0.20122,0.32251 0.39022,0.65255 0.58493,0.97907 0.0734,0.11051 0.11513,0.22895 0.13118,0.3606 0.0833,0.50645 -0.24475,0.40691 -0.82373,0.72859 -1.06341,-0.0249 -2.08129,-0.018 -3.14038,-0.0276 -1.55986,-0.007 -3.05314,-0.0218 -4.61457,-0.008 -0.7345,0.009 -1.34291,0.0387 -2.09366,0.0118 -0.25215,-0.008 -0.77207,-0.007 -1.0243,-0.007 -0.13397,0 -0.26792,-0.7493 -0.40186,-0.74832 l 0.38118,-0.10031 -0.0704,0.0434 c 0.13296,4e-5 0.64625,0.0149 0.77921,0.0142 0.2506,0 0.65623,-0.0294 0.90648,-0.0135 0.74011,0.0398 1.33742,0.0364 2.07563,0.0163 1.55512,0.0409 3.127,0.10666 4.68189,0.0498 0.4525,0.0385 1.13787,0 1.59814,0.0328 0.47175,0.0339 0.94368,-0.0781 1.41792,0.23382 0.0564,-0.003 0.11211,-0.0128 0.16817,-0.0189 -0.21126,0.13362 -0.42452,0.26392 -0.63377,0.40079 -0.0213,0.0138 0.21123,-0.23447 0.0632,-0.0427 0.0141,-0.0508 -0.007,-0.11607 -0.0131,-0.16573 -0.0102,-0.12074 -0.044,-0.22798 -0.11026,-0.33005 -0.18808,-0.33025 -0.3627,-0.66858 -0.55762,-0.99486 -0.56358,-0.97897 -1.09482,-1.97591 -1.57874,-2.99908 -0.29145,-0.60265 -0.45029,-0.92481 -0.7384,-1.54906 -0.71357,-1.54611 -1.37595,-3.11612 -2.06291,-4.67465 -0.53897,-1.22586 -1.0629,-2.46451 -1.66797,-3.6584 -0.12703,-0.25063 -0.25605,-0.50093 -0.40386,-0.73928 -0.075,-0.121 -0.3091,-0.20024 -0.26264,-0.33549 0.0749,-0.21814 0.35152,-0.28991 0.52729,-0.43485 -0.0534,0.0985 -0.12012,0.19073 -0.16043,0.29565 -0.12077,0.31431 -0.34259,1.22221 -0.40468,1.46526 -0.39104,1.53061 -0.7751,3.06311 -1.1521,4.59741 -0.67893,2.73849 -0.35225,1.40842 -1.02527,4.17324 -0.35253,1.4483 -0.92041,3.42044 -1.31336,4.85802 -0.048,0.17571 0.0139,0.4507 -0.0373,0.62549 l -0.61128,0.009 z"
       inkscape:connector-curvature="0"
       sodipodi:nodetypes="ccscscccsscsccccccccccccccccsccccccccscssscsscssccc" />
    <path class="svg-receptor"
       style="fill:#000000;fill-opacity:1;fill-rule:nonzero;stroke:none"
       id="path3035-0-7-8"
       d="m 221.34657,968.42999 c -0.14299,0.90298 -0.17313,1.83802 -0.12118,2.75591 0.0183,0.32292 0.0545,0.64378 0.0817,0.96568 0.13423,0.82434 0.17955,1.26742 0.42023,2.06324 0.32679,1.08054 0.85804,2.24739 1.50823,3.06427 0.26078,0.32763 0.56643,0.59198 0.84965,0.88798 0.35836,0.24781 0.70311,0.53048 1.07508,0.74342 1.273,0.72876 2.65091,1.0962 4.03235,1.27923 1.06005,0.14045 1.52126,0.1151 2.56226,0.12517 1.05173,-0.026 2.10833,-0.0957 3.14453,-0.33795 l -0.63166,0.60425 0,0 c -1.01847,0.19911 -2.05162,0.24778 -3.08079,0.25687 -1.03019,-0.0231 -1.4999,-0.006 -2.54903,-0.15105 -1.39275,-0.19262 -2.77659,-0.56033 -4.0624,-1.29086 -0.37782,-0.21466 -0.74779,-0.47493 -1.09027,-0.76156 -0.29565,-0.28035 -0.60195,-0.55296 -0.86762,-0.88406 -0.65756,-0.81955 -1.2006,-2.0002 -1.53498,-3.08629 -0.24283,-0.78869 -0.29611,-1.25556 -0.43532,-2.07328 -0.0303,-0.32237 -0.0689,-0.64368 -0.0911,-0.96714 -0.0626,-0.91264 -0.0489,-1.83912 0.0598,-2.74509 z"
       inkscape:connector-curvature="0"
       sodipodi:nodetypes="cscsscsscccccsscsscscc" />
    <path class="svg-receptor"
       style="fill:#000000;fill-opacity:1;fill-rule:nonzero;stroke:none"
       id="path3121-7-0-8"
       d="m 222.24122,991.19001 c 0.042,-0.13142 0.0874,-0.26166 0.1262,-0.39439 0.31176,-1.0668 0.56638,-2.15523 0.82189,-3.23979 0.2773,-1.17705 0.4401,-1.90726 0.70653,-3.08342 0.2477,-1.11935 0.49059,-2.24 0.72845,-3.36202 0.0337,-0.15917 0.17128,-0.84265 0.23647,-1.06285 0.0226,-0.0764 0.0591,-0.14659 0.0887,-0.21988 0.20063,-0.0985 0.38268,-0.29729 0.60192,-0.29556 0.10992,5.7e-4 0.13378,0.19535 0.18819,0.30181 0.094,0.18391 0.17419,0.37624 0.25594,0.56728 0.38426,0.89798 0.73549,1.81477 1.09799,2.72375 0.46671,1.14781 0.92173,2.30191 1.42088,3.43288 0.1964,0.44501 0.31737,0.70001 0.51751,1.13022 0.34088,0.74577 0.69544,1.48234 1.08998,2.19468 0.13653,0.23784 0.26475,0.48126 0.39686,0.72205 0.0498,0.0815 0.0781,0.16889 0.089,0.26599 0.0565,0.37348 -0.16605,0.3001 -0.55887,0.53736 -0.72147,-0.0183 -1.41206,-0.0131 -2.13061,-0.0206 -1.05828,-0.005 -2.07141,-0.0159 -3.13077,-0.006 -0.49833,0.006 -0.9111,0.0285 -1.42045,0.009 -0.17107,-0.006 -0.52381,-0.005 -0.69494,-0.005 -0.0909,0 -0.18177,-0.55263 -0.27265,-0.55194 l 0.25862,-0.074 -0.0478,0.0319 c 0.0902,0 0.43846,0.0109 0.52867,0.0103 0.17001,0 0.44522,-0.0217 0.615,-0.0103 0.50213,0.0297 0.90737,0.0268 1.40822,0.012 1.05508,0.0302 2.12152,0.0787 3.17645,0.0365 0.307,0.0285 0.77198,0 1.08426,0.024 0.32006,0.0251 0.64024,-0.0575 0.962,0.17248 0.0382,-0.005 0.0761,-0.009 0.11409,-0.0143 -0.14333,0.0985 -0.28801,0.1946 -0.42999,0.29559 -0.0145,0.0102 0.14332,-0.17294 0.0429,-0.0314 0.01,-0.0376 -0.005,-0.0856 -0.009,-0.12225 -0.007,-0.089 -0.0298,-0.16809 -0.0748,-0.24342 -0.12761,-0.24352 -0.24607,-0.4931 -0.37832,-0.7337 -0.38236,-0.72203 -0.74279,-1.45725 -1.0711,-2.21184 -0.19774,-0.44448 -0.3055,-0.68207 -0.50097,-1.14244 -0.48413,-1.14032 -0.93352,-2.29823 -1.3996,-3.44769 -0.36566,-0.90407 -0.72112,-1.81761 -1.13164,-2.69813 -0.0862,-0.18484 -0.17371,-0.36945 -0.27399,-0.54523 -0.0509,-0.0892 -0.20972,-0.14768 -0.17819,-0.24744 0.0509,-0.16087 0.23848,-0.2138 0.35774,-0.3207 -0.0363,0.0726 -0.0815,0.14066 -0.10885,0.21805 -0.0819,0.2318 -0.23242,0.9014 -0.27455,1.08065 -0.26531,1.12885 -0.52588,2.2591 -0.78165,3.3907 -0.46063,2.01968 -0.23899,1.03874 -0.6956,3.07782 -0.23918,1.06811 -0.62445,2.52259 -0.89105,3.58287 -0.0326,0.1296 0.009,0.33236 -0.0253,0.46128 l -0.41473,0.006 z"
       inkscape:connector-curvature="0"
       sodipodi:nodetypes="ccscscccsscsccccccccccccccccsccccccccscssscsscssccc" />
    <path class="svg-receptor"
       style="fill:#000000"
       id="path4146-7"
       d="m 180.31281,928.10973 c 0.0371,1.25036 0.0386,2.50225 0.0704,3.7528 0.086,3.37747 0.22149,6.63814 0.33016,10.02789 0.22132,6.90419 0.24537,8.33024 0.42619,15.42948 0.30172,13.55137 0.48694,27.10695 0.76852,40.65916 0.0994,3.55214 0.11051,7.11004 0.27407,10.65804 l -0.73157,0.5426 0,0 c -0.10968,-3.5826 -0.0791,-7.1705 -0.1481,-10.75477 -0.17686,-13.58277 -0.32862,-27.16739 -0.65033,-40.74492 -0.078,-2.698 -0.14586,-5.39663 -0.23405,-8.09398 -0.22815,-6.97841 -0.552,-14.49141 -0.81707,-21.46647 z"
       inkscape:connector-curvature="0"
       sodipodi:nodetypes="csscccccccscc" />
    <path class="svg-receptor"
       style="fill:#000000"
       id="path4152-6"
       d="m 206.94915,1008.0411 c 9.03659,0.043 18.0742,0.038 27.10456,-0.4894 2.34239,-0.1146 4.68013,-0.4212 7.02417,-0.4734 0.82312,-0.019 1.20984,0.06 2.01812,0.081 l 0.0173,0.5501 c -0.81096,0.014 -2.07743,0.025 -2.67008,0.035 -2.31947,0.042 -4.63415,0.3158 -6.95273,0.3995 -8.99212,0.425 -17.98883,0.382 -26.9848,0.3598 -8.12256,0.012 -16.90536,0.519 -25.02765,0.6261 l 0.69066,-0.84 c 8.53489,-0.5009 17.45304,-0.2587 24.78053,-0.2488 z"
       inkscape:connector-curvature="0"
       sodipodi:nodetypes="ccscccccccc" />
    <path class="svg-receptor"
       style="fill:#000000"
       id="path4174-8"
       d="m 180.27576,928.10541 c 13.28842,0.25359 27.17457,-0.0481 40.46272,-0.21729 6.77518,-0.068 13.98207,-0.16186 20.75738,-0.17848 l -0.68879,0.58938 c -6.2079,-0.0498 -14.5001,-0.15626 -20.35281,-0.11382 -13.41699,0.1481 -26.83337,0.54838 -40.25029,0.70871 z"
       inkscape:connector-curvature="0"
       sodipodi:nodetypes="ccccccc" />
    <path class="svg-receptor"
       style="fill:#000000"
       id="path4194-2"
       d="m 242.3626,1007.6799 c 0.073,-2.6199 -0.10572,-5.0411 -0.27225,-7.6473 -0.35618,-5.36607 -0.8048,-10.71801 -1.13829,-16.08721 -0.0664,-1.13356 -0.13189,-2.26723 -0.19905,-3.40069 -0.21481,-3.62516 -0.42807,-7.24705 -0.56206,-10.88083 -0.12905,-3.49952 -0.12849,-4.17069 -0.19909,-7.64729 -0.0954,-5.36813 -0.11724,-10.73625 0.0206,-16.10257 0.059,-2.1496 0.12659,-4.29883 0.16627,-6.4494 0.0363,-1.20643 0.15172,-2.40295 0.22148,-3.60551 0.11057,-1.55111 0.14961,-3.10942 0.239,-4.66293 0.054,-0.85867 0.0956,-1.7188 0.1159,-2.58048 0.005,-0.26034 0.003,-0.13565 0.006,-0.37407 l 0.76146,-0.55415 0,0 c -0.004,0.24117 -0.001,0.11503 -0.009,0.37841 -0.0268,0.8667 -0.069,1.73214 -0.12804,2.59562 -0.098,1.552 -0.13707,3.10916 -0.2372,4.66094 -0.0664,1.20111 -0.18432,2.39507 -0.22239,3.59949 -0.0549,2.16225 -0.14722,4.32214 -0.21213,6.48377 -0.0399,1.32583 -0.0882,2.79375 -0.10973,4.11488 -0.0652,4.00826 -0.0128,8.0191 0.0238,12.02722 0.0703,3.65997 0.0591,3.95765 0.19894,7.64357 0.13772,3.63015 0.35155,7.24898 0.57276,10.87005 0.0691,1.13141 0.13781,2.26287 0.20673,3.39429 0.34908,5.36088 0.80882,10.70495 1.16794,16.06443 0.1811,2.59136 0.36122,5.18446 0.3232,7.79246 -0.2743,0.1056 -0.53533,0.1797 -0.73503,0.3673 z"
       inkscape:connector-curvature="0"
       sodipodi:nodetypes="cccssccccccccccccccscsscccc" />
    <path class="svg-receptor"
       style="fill:#000000;fill-opacity:1;fill-rule:nonzero;stroke:none"
       id="path3035-3"
       d="m 27.760866,918.08874 c -0.628728,3.82229 -0.761256,7.7803 -0.53285,11.66568 0.08038,1.36688 0.239489,2.72511 0.359224,4.08768 0.590221,3.48944 0.789492,5.36497 1.847812,8.73365 1.436951,4.57392 3.772892,9.51315 6.631882,12.97097 1.14666,1.38684 2.49066,2.50585 3.735985,3.75877 1.575762,1.04898 3.091669,2.24555 4.727268,3.14692 5.597559,3.0848 11.656364,4.6401 17.730748,5.4149 4.661137,0.59453 6.689153,0.48722 11.266554,0.52983 4.624597,-0.11013 9.270566,-0.405 13.826869,-1.43052 l -2.777477,2.55778 0,0 c -4.478335,0.84279 -9.021224,1.04885 -13.546576,1.08734 -4.529875,-0.0978 -6.595269,-0.0252 -11.208427,-0.6394 -6.124064,-0.81538 -12.208986,-2.37189 -17.862866,-5.46417 -1.661324,-0.90865 -3.288145,-2.01036 -4.794012,-3.22369 -1.300026,-1.18669 -2.646865,-2.34064 -3.815031,-3.74221 -2.891392,-3.4691 -5.279238,-8.46674 -6.749552,-13.06416 -1.067693,-3.33849 -1.301992,-5.31473 -1.914111,-8.77611 -0.133497,-1.36462 -0.302966,-2.72468 -0.40051,-4.09385 -0.275219,-3.8632 -0.214947,-7.78498 0.263123,-11.61988 z"
       inkscape:connector-curvature="0"
       sodipodi:nodetypes="cscsscsscccccsscsscscc" />
    <path class="svg-receptor"
       style="fill:#000000;fill-opacity:1;fill-rule:nonzero;stroke:none"
       id="path3121-5"
       d="m 31.694769,1014.4315 c 0.184967,-0.5566 0.384327,-1.1079 0.55489,-1.6697 1.370865,-4.5155 2.4905,-9.123 3.614007,-13.7139 1.219306,-4.98253 1.935146,-8.07358 3.106668,-13.05202 1.089183,-4.73825 2.157197,-9.48196 3.203055,-14.23141 0.148363,-0.67372 0.753174,-3.5669 1.039823,-4.499 0.09934,-0.32301 0.259918,-0.6205 0.389864,-0.93075 0.882256,-0.41703 1.682714,-1.25845 2.646785,-1.2511 0.483312,0.003 0.588227,0.82692 0.827431,1.27753 0.413256,0.77852 0.765955,1.59263 1.12542,2.4013 1.689649,3.80108 3.234033,7.68182 4.828025,11.52953 2.052149,4.85859 4.052927,9.74383 6.247768,14.5312 0.863563,1.88377 1.395478,2.96314 2.275571,4.78422 1.49887,3.157 3.057879,6.2749 4.792766,9.2902 0.600288,1.0067 1.164116,2.0372 1.74499,3.0566 0.219131,0.345 0.343459,0.7148 0.39135,1.1257 0.24839,1.5811 -0.730154,1.2703 -2.457403,2.2746 -3.172398,-0.078 -6.208993,-0.056 -9.368529,-0.086 -4.653428,-0.021 -9.108272,-0.067 -13.766391,-0.026 -2.191201,0.028 -4.006221,0.1207 -6.245891,0.037 -0.75223,-0.026 -2.303263,-0.023 -3.055751,-0.022 -0.399637,0 -0.799248,-2.3392 -1.198859,-2.3362 l 1.137189,-0.3131 -0.210104,0.1353 c 0.396682,0 1.927917,0.045 2.3246,0.043 0.747583,0 1.957667,-0.092 2.704227,-0.041 2.207944,0.1245 3.989858,0.1136 6.192115,0.05 4.639328,0.1279 9.328631,0.333 13.967239,0.1554 1.349929,0.1203 3.394528,0 4.767645,0.103 1.407344,0.106 2.815213,-0.2438 4.230006,0.7299 0.168108,-0.01 0.334452,-0.04 0.501686,-0.059 -0.630233,0.4172 -1.266422,0.824 -1.890691,1.2512 -0.06347,0.043 0.630162,-0.7319 0.1885,-0.1334 0.04193,-0.1585 -0.02172,-0.3623 -0.03916,-0.5173 -0.03036,-0.377 -0.131335,-0.7118 -0.328959,-1.0305 -0.561069,-1.031 -1.081999,-2.0873 -1.663523,-3.1058 -1.681273,-3.0562 -3.266105,-6.1685 -4.70974,-9.3629 -0.869491,-1.8813 -1.343341,-2.88704 -2.202844,-4.83595 -2.128757,-4.82684 -4.104806,-9.72816 -6.154187,-14.59369 -1.60787,-3.82701 -3.170884,-7.69399 -4.97596,-11.42121 -0.378941,-0.78243 -0.763856,-1.56382 -1.204788,-2.30791 -0.223875,-0.37779 -0.922143,-0.62515 -0.783528,-1.0474 0.223546,-0.68098 1.048672,-0.90505 1.573003,-1.35756 -0.159526,0.30767 -0.358308,0.59544 -0.478577,0.92302 -0.360284,0.98122 -1.02202,3.8156 -1.207262,4.57438 -1.166591,4.77836 -2.312334,9.56271 -3.436998,14.35266 -2.025418,8.54912 -1.050853,4.39696 -3.058627,13.02846 -1.051707,4.5213 -2.74578,10.6781 -3.918067,15.1662 -0.143307,0.5486 0.04148,1.4071 -0.111119,1.9527 l -1.823618,0.028 z"
       inkscape:connector-curvature="0"
       sodipodi:nodetypes="ccscscccsscsccccccccccccccccsccccccccscssscsscssccc" />
    <path class="svg-receptor"
       style="fill:#000000;fill-opacity:1;fill-rule:nonzero;stroke:none"
       id="path3035-0-2"
       d="m 64.848444,839.00179 c -0.537844,2.91993 -0.651215,5.94354 -0.455825,8.91166 0.06872,1.04418 0.204871,2.08177 0.307302,3.12267 0.504899,2.66566 0.675364,4.09842 1.580702,6.67182 1.22924,3.49411 3.227499,7.26731 5.673223,9.9088 0.980904,1.05944 2.130625,1.91427 3.195934,2.8714 1.347978,0.80133 2.644764,1.71542 4.043927,2.404 4.788404,2.35654 9.971398,3.54468 15.1677,4.13656 3.987367,0.45418 5.722213,0.3722 9.637943,0.40475 3.9561,-0.0842 7.93048,-0.30939 11.82815,-1.0928 l -2.37599,1.95393 0,0 c -3.83097,0.64383 -7.71717,0.80125 -11.58837,0.83066 -3.875068,-0.0748 -5.641903,-0.0193 -9.588206,-0.48845 -5.238807,-0.6229 -10.444136,-1.81197 -15.280733,-4.17422 -1.421167,-0.69412 -2.812827,-1.53575 -4.101031,-2.46263 -1.112095,-0.90654 -2.264239,-1.78807 -3.26355,-2.85875 -2.473436,-2.65013 -4.516104,-6.46793 -5.773874,-9.97999 -0.913359,-2.55035 -1.113787,-4.06004 -1.637415,-6.70427 -0.114207,-1.04246 -0.259187,-2.08144 -0.342622,-3.12737 -0.235439,-2.95117 -0.18388,-5.94712 0.225086,-8.87668 z"
       inkscape:connector-curvature="0"
       sodipodi:nodetypes="cscsscsscccccsscsscscc" />
    <path class="svg-receptor"
       style="fill:#000000;fill-opacity:1;fill-rule:nonzero;stroke:none"
       id="path3121-7-2"
       d="m 68.213686,912.59996 c 0.158226,-0.42509 0.328772,-0.84631 0.474687,-1.27542 1.172697,-3.44958 2.130483,-6.96929 3.091589,-10.4764 1.043055,-3.80616 1.655414,-6.16742 2.657591,-9.97065 0.931731,-3.61962 1.845365,-7.24348 2.740039,-10.87167 0.126919,-0.51467 0.644298,-2.72483 0.88951,-3.43688 0.08501,-0.24676 0.222354,-0.47401 0.333517,-0.71101 0.754722,-0.31859 1.439469,-0.96137 2.264176,-0.95576 0.413453,0.003 0.503189,0.63171 0.707829,0.97595 0.353518,0.59472 0.655229,1.21664 0.962735,1.83439 1.445407,2.90374 2.766538,5.86832 4.130112,8.80763 1.755503,3.71162 3.467068,7.44354 5.34463,11.10082 0.738735,1.43897 1.193767,2.2635 1.94663,3.65465 1.282204,2.41171 2.615851,4.79358 4.099962,7.09698 0.513507,0.76914 0.995841,1.55626 1.492736,2.33496 0.18746,0.26353 0.293816,0.54601 0.334781,0.85998 0.21249,1.20783 -0.624599,0.97044 -2.102167,1.73761 -2.713823,-0.0593 -5.311471,-0.0429 -8.014282,-0.0659 -3.980762,-0.0157 -7.791637,-0.0519 -11.776413,-0.0198 -1.874446,0.0214 -3.427108,0.0921 -5.343027,0.0281 -0.643488,-0.0198 -1.970317,-0.0173 -2.614036,-0.0165 -0.341866,0 -0.683714,-1.78698 -1.025563,-1.78467 l 0.972812,-0.23921 -0.179741,0.10337 c 0.339347,8e-5 1.649244,0.0355 1.988583,0.0338 0.639517,0 1.674685,-0.0701 2.313321,-0.0321 1.888778,0.0949 3.413116,0.0867 5.297024,0.0387 3.9687,0.0977 7.980146,0.25438 11.948231,0.11869 1.154787,0.0918 2.903836,0 4.078456,0.0782 1.203916,0.0807 2.408267,-0.18621 3.618547,0.55763 0.143814,-0.009 0.286106,-0.0306 0.429164,-0.0453 -0.539126,0.31867 -1.083352,0.62944 -1.617385,0.95585 -0.05439,0.033 0.539072,-0.5592 0.161252,-0.10196 0.03588,-0.12109 -0.01852,-0.2768 -0.03347,-0.39524 -0.026,-0.28793 -0.112356,-0.54371 -0.281415,-0.78713 -0.479957,-0.7876 -0.925589,-1.5945 -1.423047,-2.37263 -1.43824,-2.33472 -2.793981,-4.71231 -4.028936,-7.15244 -0.743792,-1.43723 -1.149153,-2.20556 -1.884416,-3.69431 -1.821037,-3.6873 -3.511433,-7.43159 -5.264578,-11.1485 -1.375439,-2.92353 -2.712514,-5.87757 -4.256667,-8.72487 -0.32416,-0.59773 -0.653431,-1.19465 -1.030636,-1.76307 -0.1915,-0.2886 -0.788842,-0.47756 -0.670264,-0.80013 0.191242,-0.52022 0.897086,-0.69138 1.345629,-1.03707 -0.13647,0.23503 -0.306518,0.45486 -0.409403,0.70512 -0.308199,0.74957 -0.874279,2.91482 -1.032745,3.49446 -0.997951,3.65032 -1.978071,7.30515 -2.940164,10.9643 -1.732645,6.53095 -0.898956,3.35889 -2.616494,9.95265 -0.899685,3.45403 -2.348884,8.15734 -3.351703,11.58581 -0.122593,0.41907 0.03552,1.07488 -0.09505,1.49172 l -1.560015,0.0214 z"
       inkscape:connector-curvature="0"
       sodipodi:nodetypes="ccscscccsscsccccccccccccccccsccccccccscssscsscssccc" />
    <path class="svg-receptor"
       style="fill:#000000;fill-opacity:1;fill-rule:nonzero;stroke:none"
       id="path3035-0-7-0"
       d="m 112.35023,929.28213 c -0.36491,2.1535 -0.44182,4.38347 -0.30926,6.57251 0.0466,0.77012 0.13899,1.53535 0.20849,2.30303 0.34255,1.96597 0.45821,3.02266 1.07243,4.92059 0.83399,2.57696 2.18972,5.35977 3.84902,7.30793 0.6655,0.78136 1.44553,1.41182 2.1683,2.1177 0.91454,0.591 1.79434,1.26517 2.74361,1.77301 3.24872,1.738 6.76514,2.61426 10.2906,3.05079 2.70525,0.33496 3.88227,0.2745 6.5389,0.29852 2.68404,-0.0621 5.38047,-0.22819 8.02486,-0.80597 l -1.612,1.44105 0,0 c -2.59914,0.47485 -5.23575,0.59094 -7.86217,0.61264 -2.62906,-0.0552 -3.82779,-0.0142 -6.50517,-0.36026 -3.55429,-0.45938 -7.08587,-1.33634 -10.36728,-3.07855 -0.96419,-0.51192 -1.90837,-1.13265 -2.78236,-1.81623 -0.7545,-0.66859 -1.53617,-1.31875 -2.21416,-2.10839 -1.67812,-1.95451 -3.06397,-4.77022 -3.91731,-7.36043 -0.61968,-1.88094 -0.75566,-2.99435 -1.11092,-4.94453 -0.0774,-0.76883 -0.17584,-1.53509 -0.23245,-2.3065 -0.15973,-2.17654 -0.12476,-4.3861 0.15271,-6.54671 z"
       inkscape:connector-curvature="0"
       sodipodi:nodetypes="cscsscsscccccsscsscscc" />
    <path class="svg-receptor"
       style="fill:#000000;fill-opacity:1;fill-rule:nonzero;stroke:none"
       id="path3121-7-0-7"
       d="m 114.63339,983.5622 c 0.10735,-0.31357 0.22306,-0.62418 0.32205,-0.9407 0.79562,-2.54417 1.44544,-5.13994 2.09751,-7.72648 0.70766,-2.80713 1.12311,-4.54861 1.80304,-7.35362 0.63214,-2.66954 1.25201,-5.34214 1.859,-8.01803 0.0861,-0.37958 0.43712,-2.00962 0.60349,-2.53477 0.0577,-0.18198 0.15085,-0.34958 0.22627,-0.52439 0.51204,-0.23495 0.97662,-0.70901 1.53614,-0.70488 0.28051,0.002 0.3414,0.4659 0.48023,0.71978 0.23984,0.43862 0.44454,0.8973 0.65317,1.3529 0.98064,2.14159 1.87698,4.32803 2.80209,6.49582 1.19104,2.73739 2.35225,5.48979 3.6261,8.18704 0.50119,1.06127 0.8099,1.66943 1.3207,2.69543 0.86992,1.77859 1.77473,3.53523 2.78163,5.23409 0.3484,0.56719 0.67563,1.14773 1.01276,1.72203 0.12718,0.19439 0.19934,0.40278 0.22713,0.63427 0.14416,0.89086 -0.42377,0.71576 -1.42622,1.28156 -1.84121,-0.0438 -3.6036,-0.0313 -5.43734,-0.0485 -2.70075,-0.0114 -5.28626,-0.038 -7.98975,-0.0152 -1.27172,0.0152 -2.32514,0.0675 -3.62499,0.0209 -0.43658,-0.0152 -1.33678,-0.0133 -1.77351,-0.0124 -0.23194,0 -0.46387,-1.31799 -0.69579,-1.31627 l 0.66,-0.17633 -0.12193,0.0761 c 0.23022,0 1.11892,0.0257 1.34915,0.0247 0.43388,0 1.13619,-0.0523 1.56948,-0.0237 1.28145,0.0704 2.31563,0.0646 3.59378,0.0276 2.69259,0.0722 5.41417,0.18756 8.10633,0.0875 0.78347,0.0675 1.97012,0 2.76706,0.058 0.81679,0.0589 1.63388,-0.13733 2.45501,0.41134 0.0976,-0.01 0.19411,-0.0219 0.29117,-0.0342 -0.36578,0.23492 -0.735,0.46422 -1.09732,0.70493 -0.0368,0.0247 0.36574,-0.41248 0.1094,-0.0751 0.0244,-0.0894 -0.0125,-0.20419 -0.0227,-0.29159 -0.0177,-0.21237 -0.0762,-0.40097 -0.19093,-0.58044 -0.32562,-0.58091 -0.62795,-1.17608 -0.96547,-1.7499 -0.97578,-1.72196 -1.89559,-3.47538 -2.73344,-5.27497 -0.50464,-1.06004 -0.77965,-1.62667 -1.2785,-2.72463 -1.23549,-2.71949 -2.38235,-5.48097 -3.57177,-8.22231 -0.93318,-2.1561 -1.84032,-4.33478 -2.88796,-6.43473 -0.21992,-0.44083 -0.44332,-0.88106 -0.69924,-1.30029 -0.12992,-0.21285 -0.53519,-0.35221 -0.45475,-0.59011 0.12975,-0.38367 0.60864,-0.5099 0.91296,-0.76486 -0.0926,0.17334 -0.20796,0.33548 -0.27776,0.52003 -0.2091,0.55284 -0.59316,2.14973 -0.70068,2.57723 -0.67706,2.69219 -1.34203,5.3877 -1.99476,8.08643 -1.17552,4.81668 -0.6099,2.47726 -1.77517,7.34024 -0.61039,2.54732 -1.5936,6.01609 -2.27398,8.54472 -0.0831,0.3091 0.0241,0.79272 -0.0645,1.1002 l -1.0584,0.0152 z"
       inkscape:connector-curvature="0"
       sodipodi:nodetypes="ccscscccsscsccccccccccccccccsccccccccscssscsscssccc" />
    <path class="svg-receptor"
       style="fill:#000000"
       id="path4146-1"
       d="m 7.6317583,833.12307 c 0.09485,2.98195 0.0985,5.96757 0.179706,8.94999 0.219353,8.05486 0.565252,15.83118 0.842564,23.91533 0.564824,16.46566 0.626192,19.86665 1.087642,36.79747 0.7699977,32.31843 1.2426647,64.64688 1.9612547,96.96734 0.253608,8.4715 0.282056,16.9567 0.699444,25.4182 l -1.86697,1.2941 0,0 c -0.279893,-8.5441 -0.201906,-17.1009 -0.377962,-25.649 -0.4513377,-32.39328 -0.8386107,-64.79101 -1.6596237,-97.17183 -0.199102,-6.43438 -0.372247,-12.87031 -0.597297,-19.30316 -0.582263,-16.64267 -1.408742,-34.56029 -2.085192,-51.195 z"
       inkscape:connector-curvature="0"
       sodipodi:nodetypes="csscccccccscc" />
    <path class="svg-receptor"
       style="fill:#000000"
       id="path4152-1"
       d="m 75.607901,1023.75 c 23.061473,0.1013 46.125489,0.09 69.171069,-1.1671 5.97777,-0.2734 11.94371,-1.0043 17.92573,-1.129 2.10059,-0.043 3.08751,0.1428 5.15026,0.1934 l 0.044,1.3117 c -2.06957,0.035 -5.30162,0.06 -6.81407,0.083 -5.9193,0.1013 -11.82641,0.7533 -17.74343,0.953 -22.94794,1.0135 -45.907643,0.9112 -68.865421,0.8579 -20.728844,0.028 -43.142608,1.2378 -63.870767,1.4933 l 1.762599,-2.0033 c 21.781083,-1.1947 44.540284,-0.617 63.240087,-0.5935 z"
       inkscape:connector-curvature="0"
       sodipodi:nodetypes="ccscccccccc" />
    <path class="svg-receptor"
       style="fill:#000000"
       id="path4174-1"
       d="m 7.5372063,833.11276 c 33.9121537,0.6048 69.3497127,-0.11477 103.2611937,-0.51821 17.2903,-0.16226 35.68232,-0.38601 52.97298,-0.42565 l -1.75781,1.40561 c -15.84259,-0.1188 -37.00435,-0.37267 -51.94053,-0.27146 -34.240267,0.35321 -68.478976,1.30784 -102.7190467,1.69019 z"
       inkscape:connector-curvature="0"
       sodipodi:nodetypes="ccccccc" />
    <path class="svg-receptor"
       style="fill:#000000"
       id="path4194-7"
       d="m 165.98332,1022.8885 c 0.1863,-6.2477 -0.2698,-12.0225 -0.69481,-18.2378 -0.90895,-12.79759 -2.05382,-25.56127 -2.9049,-38.36617 -0.16932,-2.70341 -0.33658,-5.40708 -0.50799,-8.11025 -0.54819,-8.6456 -1.09243,-17.28335 -1.43438,-25.94948 -0.32935,-8.34595 -0.3279,-9.94662 -0.50808,-18.23789 -0.24344,-12.80236 -0.29919,-25.60468 0.0524,-38.40273 0.15062,-5.12655 0.32307,-10.25221 0.42433,-15.38106 0.0928,-2.87719 0.38719,-5.73076 0.5652,-8.59871 0.28219,-3.69923 0.38181,-7.41561 0.60993,-11.12054 0.13772,-2.04782 0.24393,-4.09915 0.29579,-6.15415 0.0117,-0.62086 0.007,-0.32351 0.015,-0.89209 l 1.94324,-1.3216 0,0 c -0.0108,0.57518 -0.004,0.27434 -0.022,0.90244 -0.0682,2.06699 -0.17612,4.13099 -0.32678,6.19027 -0.25008,3.70135 -0.34979,7.41497 -0.60534,11.11581 -0.16946,2.86451 -0.47037,5.71194 -0.56755,8.58435 -0.14007,5.15669 -0.37569,10.30779 -0.54134,15.46302 -0.10179,3.16194 -0.22521,6.66277 -0.28005,9.8135 -0.16639,9.55923 -0.0329,19.12461 0.0607,28.68351 0.17945,8.72859 0.15088,9.43851 0.50772,18.22899 0.35143,8.6575 0.89715,17.28795 1.46167,25.9238 0.17638,2.69827 0.35171,5.39667 0.52759,8.09499 0.89084,12.78507 2.06412,25.52997 2.98056,38.31189 0.46219,6.1801 0.92187,12.3641 0.82483,18.5842 -0.70002,0.2517 -1.36617,0.4284 -1.87581,0.8757 z"
       inkscape:connector-curvature="0"
       sodipodi:nodetypes="cccssccccccccccccccscsscccc" />
    <path class="svg-receptor"
       style="fill:#000000;fill-opacity:1;fill-rule:nonzero;stroke:none"
       id="path3035-9-6"
       d="m 186.77178,874.45083 c -0.24637,1.60271 -0.2983,3.26233 -0.2088,4.89151 0.0314,0.57314 0.0938,1.14266 0.14077,1.71399 0.23127,1.46315 0.30936,2.24958 0.72406,3.66209 0.56307,1.91788 1.47839,3.98894 2.59868,5.43884 0.44933,0.58151 0.97597,1.05072 1.46395,1.57608 0.61745,0.43984 1.21146,0.94157 1.85236,1.31953 2.1934,1.29348 4.56754,1.94563 6.94777,2.27051 1.82646,0.24929 2.62113,0.2043 4.41478,0.22216 1.81215,-0.0462 3.63266,-0.16982 5.41804,-0.59982 l -1.08835,1.07248 0,0 c -1.75482,0.3534 -3.53496,0.4398 -5.3082,0.45594 -1.77503,-0.0411 -2.58435,-0.0106 -4.39201,-0.26811 -2.3997,-0.34189 -4.78407,-0.99455 -6.99953,-2.29117 -0.65099,-0.38099 -1.28846,-0.84295 -1.87853,-1.35172 -0.50941,-0.49758 -1.03716,-0.98145 -1.49491,-1.56913 -1.13299,-1.45463 -2.06866,-3.55018 -2.6448,-5.47792 -0.41837,-1.39985 -0.51018,-2.2285 -0.75004,-3.67989 -0.0523,-0.57219 -0.11872,-1.14248 -0.15694,-1.71658 -0.10785,-1.61986 -0.0842,-3.2643 0.1031,-4.87231 z"
       inkscape:connector-curvature="0"
       sodipodi:nodetypes="cscsscsscccccsscsscscc" />
    <path class="svg-receptor"
       style="fill:#000000;fill-opacity:1;fill-rule:nonzero;stroke:none"
       id="path3121-3-6"
       d="m 188.31327,914.84801 c 0.0725,-0.2334 0.1506,-0.4645 0.21743,-0.7001 0.53718,-1.8934 0.9759,-3.82532 1.41615,-5.7503 0.47778,-2.08918 0.75828,-3.38523 1.21734,-5.47276 0.42679,-1.9868 0.8453,-3.9759 1.25511,-5.96737 0.0581,-0.2825 0.29513,-1.49562 0.40745,-1.88646 0.0389,-0.13544 0.10185,-0.26018 0.15277,-0.39027 0.34571,-0.17487 0.65937,-0.52768 1.03714,-0.5246 0.18938,7.7e-4 0.23049,0.34674 0.32423,0.53568 0.16193,0.32644 0.30014,0.6678 0.44099,1.00688 0.66209,1.59382 1.26725,3.22106 1.89186,4.83442 0.80413,2.03724 1.58813,4.08565 2.44817,6.09307 0.33839,0.78988 0.54682,1.24244 0.89168,2.00605 0.58733,1.3237 1.19823,2.63106 1.87804,3.89536 0.23522,0.4221 0.45615,0.8543 0.68377,1.2817 0.0859,0.1446 0.13458,0.2997 0.15334,0.472 0.0973,0.663 -0.2861,0.5327 -0.96292,0.9538 -1.2431,-0.032 -2.43298,-0.023 -3.67104,-0.036 -1.82344,-0.01 -3.56906,-0.029 -5.39434,-0.011 -0.85862,0.012 -1.56983,0.051 -2.44744,0.015 -0.29476,-0.011 -0.90253,-0.01 -1.19739,-0.01 -0.1566,0 -0.31319,-0.9809 -0.46977,-0.9796 l 0.44561,-0.1314 -0.0823,0.056 c 0.15544,10e-5 0.75546,0.019 0.9109,0.019 0.29294,0 0.76711,-0.038 1.05964,-0.018 0.86518,0.052 1.56342,0.048 2.42637,0.021 1.81791,0.054 3.65541,0.1397 5.47304,0.066 0.52897,0.05 1.33014,0 1.86819,0.043 0.55147,0.045 1.10314,-0.1022 1.65752,0.3061 0.0659,-0.01 0.13106,-0.016 0.19659,-0.025 -0.24696,0.1749 -0.49624,0.3455 -0.74087,0.5247 -0.0248,0.019 0.24694,-0.307 0.0739,-0.056 0.0164,-0.066 -0.008,-0.152 -0.0153,-0.217 -0.0119,-0.158 -0.0515,-0.2984 -0.1289,-0.432 -0.21985,-0.4323 -0.42398,-0.8752 -0.65185,-1.3023 -0.6588,-1.2814 -1.27981,-2.58649 -1.8455,-3.92585 -0.34071,-0.78889 -0.52639,-1.2106 -0.86318,-2.0278 -0.83415,-2.02389 -1.60846,-4.07909 -2.41151,-6.11924 -0.63004,-1.6047 -1.24251,-3.22614 -1.94982,-4.78899 -0.14849,-0.32809 -0.29932,-0.65573 -0.47209,-0.96774 -0.0877,-0.1584 -0.36135,-0.26212 -0.30703,-0.43917 0.0876,-0.28554 0.41092,-0.3795 0.61638,-0.56924 -0.0625,0.12901 -0.1404,0.24968 -0.18753,0.38702 -0.14118,0.41144 -0.40047,1.59992 -0.47307,1.91808 -0.45712,2.00363 -0.90608,4.00972 -1.34677,6.01821 -0.79366,3.58474 -0.41178,1.84366 -1.19852,5.46289 -0.41211,1.89585 -1.07594,4.47743 -1.53529,6.35923 -0.0562,0.2301 0.0162,0.59 -0.0435,0.8188 l -0.71458,0.012 z"
       inkscape:connector-curvature="0"
       sodipodi:nodetypes="ccscscccsscsccccccccccccccccsccccccccscssscsscssccc" />
    <path class="svg-receptor"
       style="fill:#000000;fill-opacity:1;fill-rule:nonzero;stroke:none"
       id="path3035-0-9-1"
       d="m 201.30448,841.28903 c -0.21075,1.22435 -0.25517,2.49217 -0.17861,3.73674 0.0269,0.43783 0.0803,0.8729 0.12041,1.30935 0.19785,1.11773 0.26464,1.7185 0.6194,2.79755 0.48167,1.46511 1.26469,3.04724 2.22304,4.15484 0.38436,0.44424 0.83488,0.80267 1.25232,1.204 0.52821,0.336 1.03635,0.7193 1.58461,1.00801 1.87633,0.98812 3.90727,1.48632 5.94344,1.7345 1.56244,0.19044 2.24224,0.15606 3.77661,0.16972 1.55019,-0.0353 3.10754,-0.12973 4.63484,-0.45823 l -0.93103,0.81931 0,0 c -1.50116,0.26996 -3.02396,0.33596 -4.54088,0.34829 -1.51844,-0.0314 -2.21077,-0.008 -3.75712,-0.20481 -2.05282,-0.26118 -4.09252,-0.75976 -5.98773,-1.75028 -0.55689,-0.29105 -1.1022,-0.64395 -1.60698,-1.0326 -0.43577,-0.38012 -0.88724,-0.74974 -1.27882,-1.1987 -0.96921,-1.11121 -1.76963,-2.71205 -2.26248,-4.18469 -0.3579,-1.06938 -0.43644,-1.7024 -0.64163,-2.81115 -0.0448,-0.43711 -0.10156,-0.87277 -0.13424,-1.31133 -0.0923,-1.23745 -0.0721,-2.49367 0.0882,-3.72207 z"
       inkscape:connector-curvature="0"
       sodipodi:nodetypes="cscsscsscccccsscsscscc" />
    <path class="svg-receptor"
       style="fill:#000000;fill-opacity:1;fill-rule:nonzero;stroke:none"
       id="path3121-7-1-6"
       d="m 202.62314,872.14933 c 0.062,-0.17824 0.12884,-0.35485 0.18601,-0.53479 0.45952,-1.44644 0.83482,-2.92228 1.21144,-4.39284 0.40871,-1.59596 0.64866,-2.58605 1.04137,-4.18078 0.3651,-1.51773 0.7231,-3.03724 1.07368,-4.55857 0.0497,-0.21581 0.25246,-1.14254 0.34856,-1.44111 0.0333,-0.10347 0.0871,-0.19876 0.13068,-0.29813 0.29574,-0.1336 0.56405,-0.40311 0.88721,-0.40076 0.16202,7.7e-4 0.19718,0.26488 0.27736,0.40922 0.13853,0.24937 0.25675,0.51015 0.37726,0.76918 0.56637,1.21756 1.08406,2.46063 1.61837,3.69311 0.68789,1.55631 1.35857,3.12113 2.09428,4.65466 0.28947,0.60337 0.46778,0.9491 0.76279,1.53243 0.50243,1.01125 1.02501,2.00998 1.60656,2.97581 0.20122,0.32251 0.39022,0.65255 0.58493,0.97907 0.0734,0.11051 0.11513,0.22895 0.13118,0.3606 0.0833,0.50645 -0.24475,0.40691 -0.82373,0.72859 -1.06341,-0.0249 -2.08129,-0.018 -3.14038,-0.0276 -1.55986,-0.007 -3.05314,-0.0218 -4.61457,-0.008 -0.7345,0.009 -1.34291,0.0387 -2.09366,0.0118 -0.25215,-0.008 -0.77207,-0.007 -1.0243,-0.007 -0.13397,0 -0.26792,-0.7493 -0.40186,-0.74832 l 0.38118,-0.10031 -0.0704,0.0434 c 0.13296,4e-5 0.64625,0.0149 0.77921,0.0142 0.2506,0 0.65623,-0.0294 0.90648,-0.0135 0.74011,0.0398 1.33742,0.0364 2.07563,0.0163 1.55512,0.0409 3.127,0.10666 4.68189,0.0498 0.4525,0.0385 1.13787,0 1.59814,0.0328 0.47175,0.0339 0.94368,-0.0781 1.41792,0.23382 0.0564,-0.003 0.11211,-0.0128 0.16817,-0.0189 -0.21126,0.13362 -0.42452,0.26392 -0.63377,0.40079 -0.0213,0.0138 0.21123,-0.23447 0.0632,-0.0427 0.0141,-0.0508 -0.007,-0.11607 -0.0131,-0.16573 -0.0102,-0.12074 -0.044,-0.22798 -0.11026,-0.33005 -0.18808,-0.33025 -0.3627,-0.66858 -0.55762,-0.99486 -0.56358,-0.97897 -1.09482,-1.97591 -1.57874,-2.99908 -0.29145,-0.60265 -0.45029,-0.92481 -0.7384,-1.54906 -0.71357,-1.54611 -1.37595,-3.11612 -2.06291,-4.67465 -0.53897,-1.22586 -1.0629,-2.46451 -1.66797,-3.6584 -0.12703,-0.25063 -0.25605,-0.50093 -0.40386,-0.73928 -0.075,-0.121 -0.3091,-0.20024 -0.26264,-0.33549 0.0749,-0.21814 0.35152,-0.28991 0.52729,-0.43485 -0.0534,0.0985 -0.12012,0.19073 -0.16043,0.29565 -0.12077,0.31431 -0.34259,1.22221 -0.40468,1.46526 -0.39104,1.53061 -0.7751,3.06311 -1.1521,4.59741 -0.67893,2.73849 -0.35225,1.40842 -1.02527,4.17324 -0.35253,1.4483 -0.92041,3.42044 -1.31336,4.85802 -0.048,0.17571 0.0139,0.4507 -0.0373,0.62549 l -0.61128,0.009 z"
       inkscape:connector-curvature="0"
       sodipodi:nodetypes="ccscscccsscsccccccccccccccccsccccccccscssscsscssccc" />
    <path class="svg-receptor"
       style="fill:#000000;fill-opacity:1;fill-rule:nonzero;stroke:none"
       id="path3035-0-7-8-6"
       d="m 219.91798,879.1443 c -0.14299,0.90298 -0.17313,1.83802 -0.12118,2.75591 0.0183,0.32292 0.0545,0.64378 0.0817,0.96568 0.13423,0.82434 0.17955,1.26742 0.42023,2.06324 0.32679,1.08054 0.85804,2.24739 1.50823,3.06427 0.26078,0.32763 0.56643,0.59198 0.84965,0.88798 0.35836,0.24781 0.70311,0.53048 1.07508,0.74342 1.273,0.72876 2.65091,1.0962 4.03235,1.27923 1.06005,0.14045 1.52126,0.1151 2.56226,0.12517 1.05173,-0.026 2.10833,-0.0957 3.14453,-0.33795 l -0.63166,0.60425 0,0 c -1.01847,0.19911 -2.05162,0.24778 -3.08079,0.25687 -1.03019,-0.0231 -1.4999,-0.006 -2.54903,-0.15105 -1.39275,-0.19262 -2.77659,-0.56033 -4.0624,-1.29086 -0.37782,-0.21466 -0.74779,-0.47493 -1.09027,-0.76156 -0.29565,-0.28035 -0.60195,-0.55296 -0.86762,-0.88406 -0.65756,-0.81955 -1.2006,-2.0002 -1.53498,-3.08629 -0.24283,-0.78869 -0.29611,-1.25556 -0.43532,-2.07328 -0.0303,-0.32237 -0.0689,-0.64368 -0.0911,-0.96714 -0.0626,-0.91264 -0.0489,-1.83912 0.0598,-2.74509 z"
       inkscape:connector-curvature="0"
       sodipodi:nodetypes="cscsscsscccccsscsscscc" />
    <path class="svg-receptor"
       style="fill:#000000;fill-opacity:1;fill-rule:nonzero;stroke:none"
       id="path3121-7-0-8-8"
       d="m 220.81263,901.90432 c 0.042,-0.13142 0.0874,-0.26166 0.1262,-0.39439 0.31176,-1.0668 0.56638,-2.15523 0.82189,-3.23979 0.2773,-1.17705 0.4401,-1.90726 0.70653,-3.08342 0.2477,-1.11935 0.49059,-2.24 0.72845,-3.36202 0.0337,-0.15917 0.17128,-0.84265 0.23647,-1.06285 0.0226,-0.0764 0.0591,-0.14659 0.0887,-0.21988 0.20063,-0.0985 0.38268,-0.29729 0.60192,-0.29556 0.10992,5.7e-4 0.13378,0.19535 0.18819,0.30181 0.094,0.18391 0.17419,0.37624 0.25594,0.56728 0.38426,0.89798 0.73549,1.81477 1.09799,2.72375 0.46671,1.14781 0.92173,2.30191 1.42088,3.43288 0.1964,0.44501 0.31737,0.70001 0.51751,1.13022 0.34088,0.74577 0.69544,1.48234 1.08998,2.19468 0.13653,0.23784 0.26475,0.48126 0.39686,0.72205 0.0498,0.0815 0.0781,0.16889 0.089,0.26599 0.0565,0.37348 -0.16605,0.3001 -0.55887,0.53736 -0.72147,-0.0183 -1.41206,-0.0131 -2.13061,-0.0206 -1.05828,-0.005 -2.07141,-0.0159 -3.13077,-0.006 -0.49833,0.006 -0.9111,0.0285 -1.42045,0.009 -0.17107,-0.006 -0.52381,-0.005 -0.69494,-0.005 -0.0909,0 -0.18177,-0.55263 -0.27265,-0.55194 l 0.25862,-0.074 -0.0478,0.0319 c 0.0902,0 0.43846,0.0109 0.52867,0.0103 0.17001,0 0.44522,-0.0217 0.615,-0.0103 0.50213,0.0297 0.90737,0.0268 1.40822,0.012 1.05508,0.0302 2.12152,0.0787 3.17645,0.0365 0.307,0.0285 0.77198,0 1.08426,0.024 0.32006,0.0251 0.64024,-0.0575 0.962,0.17248 0.0382,-0.005 0.0761,-0.009 0.11409,-0.0143 -0.14333,0.0985 -0.28801,0.1946 -0.42999,0.29559 -0.0145,0.0102 0.14332,-0.17294 0.0429,-0.0314 0.01,-0.0376 -0.005,-0.0856 -0.009,-0.12225 -0.007,-0.089 -0.0298,-0.16809 -0.0748,-0.24342 -0.12761,-0.24352 -0.24607,-0.4931 -0.37832,-0.7337 -0.38236,-0.72203 -0.74279,-1.45725 -1.0711,-2.21184 -0.19774,-0.44448 -0.3055,-0.68207 -0.50097,-1.14244 -0.48413,-1.14032 -0.93352,-2.29823 -1.3996,-3.44769 -0.36566,-0.90407 -0.72112,-1.81761 -1.13164,-2.69813 -0.0862,-0.18484 -0.17371,-0.36945 -0.27399,-0.54523 -0.0509,-0.0892 -0.20972,-0.14768 -0.17819,-0.24744 0.0509,-0.16087 0.23848,-0.2138 0.35774,-0.3207 -0.0363,0.0726 -0.0815,0.14066 -0.10885,0.21805 -0.0819,0.2318 -0.23242,0.9014 -0.27455,1.08065 -0.26531,1.12885 -0.52588,2.2591 -0.78165,3.3907 -0.46063,2.01968 -0.23899,1.03874 -0.6956,3.07782 -0.23918,1.06811 -0.62445,2.52259 -0.89105,3.58287 -0.0326,0.1296 0.009,0.33236 -0.0253,0.46128 l -0.41473,0.006 z"
       inkscape:connector-curvature="0"
       sodipodi:nodetypes="ccscscccsscsccccccccccccccccsccccccccscssscsscssccc" />
    <path class="svg-receptor"
       style="fill:#000000"
       id="path4146-7-2"
       d="m 178.88422,838.82404 c 0.0371,1.25036 0.0386,2.50225 0.0704,3.7528 0.086,3.37747 0.22149,6.63814 0.33016,10.02789 0.22132,6.90419 0.24537,8.33024 0.42619,15.42948 0.30172,13.55137 0.48694,27.10695 0.76852,40.65916 0.0994,3.55214 0.11051,7.11004 0.27407,10.65804 l -0.73157,0.5426 0,0 c -0.10968,-3.5826 -0.0791,-7.1705 -0.1481,-10.75477 -0.17686,-13.58277 -0.32862,-27.16739 -0.65033,-40.74492 -0.078,-2.698 -0.14586,-5.39663 -0.23405,-8.09398 -0.22815,-6.97841 -0.552,-14.49141 -0.81707,-21.46647 z"
       inkscape:connector-curvature="0"
       sodipodi:nodetypes="csscccccccscc" />
    <path class="svg-receptor"
       style="fill:#000000"
       id="path4152-6-1"
       d="m 205.52056,918.75541 c 9.03659,0.043 18.0742,0.038 27.10456,-0.4894 2.34239,-0.1146 4.68013,-0.4212 7.02417,-0.4734 0.82312,-0.019 1.20984,0.06 2.01812,0.081 l 0.0173,0.5501 c -0.81096,0.014 -2.07743,0.025 -2.67008,0.035 -2.31947,0.042 -4.63415,0.3158 -6.95273,0.3995 -8.99212,0.425 -17.98883,0.382 -26.9848,0.3598 -8.12256,0.012 -16.90536,0.519 -25.02765,0.6261 l 0.69066,-0.84 c 8.53489,-0.5009 17.45304,-0.2587 24.78053,-0.2488 z"
       inkscape:connector-curvature="0"
       sodipodi:nodetypes="ccscccccccc" />
    <path class="svg-receptor"
       style="fill:#000000"
       id="path4174-8-8"
       d="m 178.84717,838.81972 c 13.28842,0.25359 27.17457,-0.0481 40.46272,-0.21729 6.77518,-0.068 13.98207,-0.16186 20.75738,-0.17848 l -0.68879,0.58938 c -6.2079,-0.0498 -14.5001,-0.15626 -20.35281,-0.11382 -13.41699,0.1481 -26.83337,0.54838 -40.25029,0.70871 z"
       inkscape:connector-curvature="0"
       sodipodi:nodetypes="ccccccc" />
    <path class="svg-receptor"
       style="fill:#000000"
       id="path4194-2-7"
       d="m 240.93401,918.39421 c 0.073,-2.6199 -0.10572,-5.0411 -0.27225,-7.6473 -0.35618,-5.36607 -0.8048,-10.71801 -1.13829,-16.08721 -0.0664,-1.13356 -0.13189,-2.26723 -0.19905,-3.40069 -0.21481,-3.62516 -0.42807,-7.24705 -0.56206,-10.88083 -0.12905,-3.49952 -0.12849,-4.17069 -0.19909,-7.64729 -0.0954,-5.36813 -0.11724,-10.73625 0.0206,-16.10257 0.059,-2.1496 0.12659,-4.29883 0.16627,-6.4494 0.0363,-1.20643 0.15172,-2.40295 0.22148,-3.60551 0.11057,-1.55111 0.14961,-3.10942 0.239,-4.66293 0.054,-0.85867 0.0956,-1.7188 0.1159,-2.58048 0.005,-0.26034 0.003,-0.13565 0.006,-0.37407 l 0.76146,-0.55415 0,0 c -0.004,0.24117 -10e-4,0.11503 -0.009,0.37841 -0.0268,0.8667 -0.069,1.73214 -0.12804,2.59562 -0.098,1.552 -0.13707,3.10916 -0.2372,4.66094 -0.0664,1.20111 -0.18432,2.39507 -0.22239,3.59949 -0.0549,2.16225 -0.14722,4.32214 -0.21213,6.48377 -0.0399,1.32583 -0.0882,2.79375 -0.10973,4.11488 -0.0652,4.00826 -0.0128,8.0191 0.0238,12.02722 0.0703,3.65997 0.0591,3.95765 0.19894,7.64357 0.13772,3.63015 0.35155,7.24898 0.57276,10.87005 0.0691,1.13141 0.13781,2.26287 0.20673,3.39429 0.34908,5.36088 0.80882,10.70495 1.16794,16.06443 0.1811,2.59136 0.36122,5.18446 0.3232,7.79246 -0.2743,0.1056 -0.53533,0.1797 -0.73503,0.3673 z"
       inkscape:connector-curvature="0"
       sodipodi:nodetypes="cccssccccccccccccccscsscccc" />
  </g>
</svg>
