<?xml version="1.0" encoding="UTF-8" standalone="no"?>
<!-- Created with Inkscape (http://www.inkscape.org/) -->

<svg
   xmlns:dc="http://purl.org/dc/elements/1.1/"
   xmlns:cc="http://creativecommons.org/ns#"
   xmlns:rdf="http://www.w3.org/1999/02/22-rdf-syntax-ns#"
   xmlns:svg="http://www.w3.org/2000/svg"
   xmlns="http://www.w3.org/2000/svg"
   xmlns:sodipodi="http://sodipodi.sourceforge.net/DTD/sodipodi-0.dtd"
   xmlns:inkscape="http://www.inkscape.org/namespaces/inkscape"
   width="250"
   height="250"
   id="svg4072"
   version="1.1"
   inkscape:version="0.48.5 r10040"
   sodipodi:docname="subarrays-resources.svg">
  <defs
     id="defs4074" />
  <sodipodi:namedview
     id="base"
     pagecolor="#ffffff"
     bordercolor="#666666"
     borderopacity="1.0"
     inkscape:pageopacity="0.0"
     inkscape:pageshadow="2"
     inkscape:zoom="2.8284271"
     inkscape:cx="133.91403"
     inkscape:cy="120.99289"
     inkscape:document-units="px"
     inkscape:current-layer="layer1"
     showgrid="false"
     inkscape:window-width="1874"
     inkscape:window-height="910"
     inkscape:window-x="459"
     inkscape:window-y="30"
     inkscape:window-maximized="0" />
  <metadata
     id="metadata4077">
    <rdf:RDF>
      <cc:Work
         rdf:about="">
        <dc:format>image/svg+xml</dc:format>
        <dc:type
           rdf:resource="http://purl.org/dc/dcmitype/StillImage" />
      </cc:Work>
    </rdf:RDF>
  </metadata>
  <g
     inkscape:label="Layer 1"
     inkscape:groupmode="layer"
     id="layer1"
     transform="translate(0,-802.36218)">
    <path class="svg-receptor"
       style="fill:#000000;fill-opacity:1;fill-rule:nonzero;stroke:none"
       id="path3035"
       d="m 72.089128,868.79333 c -0.485359,2.57134 -0.587663,5.23398 -0.411342,7.84777 0.06202,0.91953 0.184874,1.83324 0.277311,2.74986 0.455625,2.34744 0.609455,3.60914 1.426436,5.87533 1.10927,3.07698 2.91252,6.39971 5.119547,8.72587 0.885175,0.93295 1.922695,1.68574 2.884035,2.5286 1.216425,0.70567 2.386644,1.51063 3.649258,2.117 4.321098,2.07522 8.998255,3.12152 13.687437,3.64273 3.59822,0.39995 5.16376,0.32777 8.69732,0.35643 3.57002,-0.0741 7.15652,-0.27245 10.6738,-0.96233 l -2.1441,1.72067 0,0 c -3.4571,0.56696 -6.96403,0.70558 -10.45742,0.73147 -3.49689,-0.0659 -5.09128,-0.017 -8.652451,-0.43014 -4.727534,-0.54851 -9.424852,-1.59563 -13.789427,-3.67587 -1.282479,-0.61125 -2.53832,-1.3524 -3.700794,-2.16865 -1.003566,-0.7983 -2.043267,-1.57459 -2.945048,-2.51746 -2.232041,-2.33375 -4.075361,-5.69577 -5.210385,-8.78856 -0.824218,-2.24588 -1.005083,-3.57533 -1.477615,-5.90389 -0.103058,-0.918 -0.233882,-1.83295 -0.309183,-2.75402 -0.212456,-2.59886 -0.165929,-5.23713 0.203124,-7.81696 z"
       inkscape:connector-curvature="0"
       sodipodi:nodetypes="cscsscsscccccsscsscscc" />
    <path class="svg-receptor"
       style="fill:#000000;fill-opacity:1;fill-rule:nonzero;stroke:none"
       id="path3121"
       d="m 75.125942,933.6052 c 0.142787,-0.3744 0.29669,-0.74527 0.428354,-1.12322 1.058257,-3.03771 1.922567,-6.13725 2.789871,-9.22564 0.94126,-3.35179 1.493855,-5.43118 2.398225,-8.78036 0.840807,-3.1875 1.665273,-6.37874 2.472637,-9.57377 0.114528,-0.45324 0.581417,-2.39954 0.802701,-3.0266 0.0767,-0.21729 0.200638,-0.41742 0.300957,-0.62613 0.681061,-0.28055 1.298991,-0.84658 2.043213,-0.84165 0.373099,0.002 0.454079,0.5563 0.638735,0.85944 0.319018,0.52372 0.59129,1.0714 0.868785,1.61541 1.30435,2.55707 2.496543,5.16773 3.727043,7.75614 1.584176,3.26852 3.128705,6.55491 4.823031,9.77556 0.666629,1.26718 1.077253,1.99327 1.756656,3.21837 1.15707,2.12375 2.36056,4.22127 3.69982,6.24969 0.46339,0.67729 0.89864,1.3705 1.34706,2.05621 0.16915,0.23213 0.26513,0.48088 0.3021,0.75736 0.19176,1.06362 -0.56365,0.85457 -1.89701,1.53015 -2.44896,-0.0522 -4.793095,-0.0377 -7.23213,-0.0577 -3.592269,-0.0138 -7.031226,-0.0455 -10.627112,-0.0172 -1.69152,0.0189 -3.092644,0.0812 -4.821579,0.0244 -0.580686,-0.0172 -1.778027,-0.0156 -2.358917,-0.0145 -0.308502,0 -0.616987,-1.57365 -0.925473,-1.57161 l 0.877863,-0.2106 -0.162189,0.091 c 0.306223,5e-5 1.48828,0.0311 1.794498,0.0294 0.577105,0 1.511245,-0.0617 2.087549,-0.0282 1.704455,0.0837 3.080017,0.0763 4.780072,0.0338 3.581381,0.0861 7.201342,0.22408 10.782153,0.10453 1.0421,0.0809 2.620455,0 3.680435,0.0693 1.08642,0.0714 2.17322,-0.16404 3.26539,0.49102 0.12977,-0.005 0.25819,-0.0266 0.38728,-0.04 -0.48652,0.28058 -0.97763,0.5543 -1.45954,0.8417 -0.0491,0.0294 0.48647,-0.49241 0.14553,-0.0897 0.0324,-0.10661 -0.0168,-0.24377 -0.0302,-0.34807 -0.0234,-0.25353 -0.10143,-0.47877 -0.25396,-0.69314 -0.43311,-0.6936 -0.83524,-1.40416 -1.28415,-2.08937 -1.29787,-2.056 -2.521304,-4.14968 -3.635733,-6.29861 -0.671207,-1.26564 -1.037004,-1.9422 -1.70051,-3.25326 -1.643308,-3.24709 -3.168742,-6.54436 -4.750786,-9.81752 -1.241208,-2.57451 -2.447791,-5.1759 -3.841246,-7.68328 -0.292528,-0.52636 -0.589655,-1.05202 -0.930048,-1.55259 -0.172819,-0.25415 -0.711856,-0.42055 -0.604849,-0.70461 0.172565,-0.45811 0.809528,-0.60884 1.214296,-0.91326 -0.12315,0.20698 -0.276598,0.40057 -0.369448,0.62094 -0.278117,0.66009 -0.788954,2.56683 -0.931958,3.07729 -0.900552,3.21454 -1.785025,6.43305 -2.65322,9.65534 -1.563551,5.75125 -0.811215,2.9579 -2.361139,8.7645 -0.81188,3.04163 -2.119638,7.18344 -3.024596,10.20263 -0.110619,0.36909 0.03202,0.94657 -0.08578,1.31365 l -1.407763,0.0189 z"
       inkscape:connector-curvature="0"
       sodipodi:nodetypes="ccscscccsscsccccccccccccccccsccccccccscssscsscssccc" />
    <path class="svg-receptor"
       style="fill:#000000;fill-opacity:1;fill-rule:nonzero;stroke:none"
       id="path3035-0"
       d="m 100.71927,815.58974 c -0.41521,1.9643 -0.50272,3.99836 -0.35188,5.99508 0.0531,0.70245 0.15814,1.40045 0.23723,2.10068 0.38974,1.79326 0.52134,2.7571 1.22022,4.48829 0.94893,2.35056 2.4915,4.88888 4.3795,6.66589 0.75723,0.7127 1.64477,1.28776 2.46715,1.93165 1.04058,0.53907 2.04165,1.154 3.12174,1.61722 3.69647,1.5853 7.69753,2.38459 11.70886,2.78276 3.07809,0.30553 4.41732,0.25038 7.44012,0.27228 3.05394,-0.0566 6.12201,-0.20812 9.13087,-0.73515 l -1.83419,1.31446 0,0 c -2.95735,0.43312 -5.95735,0.53901 -8.94575,0.55879 -2.9914,-0.0503 -4.35532,-0.0129 -7.40172,-0.32859 -4.04415,-0.41903 -8.06246,-1.21893 -11.79611,-2.80809 -1.09709,-0.46694 -2.17141,-1.03313 -3.16584,-1.65666 -0.85849,-0.60985 -1.7479,-1.20288 -2.51934,-1.92315 -1.90939,-1.78281 -3.48624,-4.35112 -4.45719,-6.71377 -0.70507,-1.71568 -0.8598,-2.73127 -1.26402,-4.51011 -0.0882,-0.70129 -0.20008,-1.40023 -0.26448,-2.10385 -0.18176,-1.98532 -0.14195,-4.00076 0.17375,-5.97154 z"
       inkscape:connector-curvature="0"
       sodipodi:nodetypes="cscsscsscccccsscsscscc" />
    <path class="svg-receptor"
       style="fill:#000000;fill-opacity:1;fill-rule:nonzero;stroke:none"
       id="path3121-7"
       d="m 103.31709,865.1009 c 0.12215,-0.28597 0.25381,-0.56933 0.36643,-0.858 0.90528,-2.32061 1.64467,-4.6884 2.38659,-7.04772 0.80521,-2.56048 1.27792,-4.14896 2.05156,-6.70748 0.71926,-2.435 1.42455,-4.87286 2.11521,-7.31362 0.098,-0.34623 0.49735,-1.83305 0.68667,-2.31207 0.0656,-0.16599 0.17163,-0.31887 0.25745,-0.47831 0.58262,-0.21432 1.11122,-0.64674 1.74785,-0.64296 0.31916,0.002 0.38844,0.42498 0.54642,0.65654 0.2729,0.40009 0.50581,0.81846 0.7432,1.23404 1.11579,1.95341 2.13565,3.94775 3.18827,5.92509 1.35519,2.49689 2.67644,5.00744 4.12584,7.46778 0.57028,0.96803 0.92154,1.5227 1.50273,2.45857 0.9898,1.62241 2.01934,3.22475 3.16501,4.77429 0.3964,0.51742 0.76874,1.04693 1.15234,1.57079 0.1447,0.17728 0.22681,0.3673 0.25843,0.57853 0.16404,0.81253 -0.48217,0.65282 -1.6228,1.16892 -2.09495,-0.04 -4.10024,-0.0289 -6.18669,-0.0444 -3.07299,-0.011 -6.01483,-0.0349 -9.09093,-0.0133 -1.44701,0.0144 -2.6456,0.0619 -4.12461,0.0189 -0.49674,-0.0133 -1.52101,-0.0116 -2.01793,-0.0111 -0.26391,0 -0.5278,-1.20215 -0.79169,-1.20059 l 0.75097,-0.16092 -0.13875,0.0695 c 0.26196,6e-5 1.27314,0.0238 1.5351,0.0227 0.49369,0 1.29279,-0.0471 1.7858,-0.0216 1.45805,0.0639 2.63478,0.0583 4.08908,0.026 3.06368,0.0658 6.16037,0.17113 9.22357,0.0798 0.89144,0.0618 2.24165,0 3.14841,0.0527 0.92937,0.0543 1.85907,-0.12527 2.79336,0.37513 0.11105,-0.005 0.22087,-0.0205 0.3313,-0.0305 -0.41617,0.21437 -0.8363,0.42342 -1.24855,0.64302 -0.042,0.0222 0.41614,-0.37619 0.12448,-0.0685 0.0278,-0.0815 -0.0144,-0.1862 -0.0258,-0.26589 -0.0201,-0.19369 -0.0867,-0.36576 -0.21724,-0.52952 -0.37051,-0.52983 -0.71453,-1.07264 -1.09853,-1.59611 -1.11028,-1.57062 -2.15685,-3.17008 -3.1102,-4.81162 -0.57417,-0.96685 -0.88709,-1.48372 -1.45469,-2.48524 -1.40575,-2.48052 -2.71068,-4.99939 -4.06404,-7.49985 -1.06178,-1.96671 -2.09396,-3.95398 -3.28598,-5.86942 -0.25023,-0.40209 -0.50441,-0.80367 -0.7956,-1.18605 -0.14784,-0.19415 -0.60896,-0.32127 -0.51742,-0.53827 0.14762,-0.34996 0.69251,-0.4651 1.03876,-0.69765 -0.10544,0.1581 -0.23661,0.30599 -0.31602,0.47434 -0.23794,0.50425 -0.67493,1.96086 -0.79725,2.35081 -0.77038,2.45565 -1.527,4.91434 -2.26969,7.37593 -1.33753,4.3935 -0.69395,2.25961 -2.01984,6.69537 -0.69451,2.3236 -1.81323,5.48763 -2.58737,7.79404 -0.0946,0.28191 0.0274,0.72309 -0.0733,1.00351 l -1.20427,0.0144 z"
       inkscape:connector-curvature="0"
       sodipodi:nodetypes="ccscscccsscsccccccccccccccccsccccccccscssscsscssccc" />
    <path class="svg-receptor"
       style="fill:#000000;fill-opacity:1;fill-rule:nonzero;stroke:none"
       id="path3035-0-7"
       d="m 137.38875,876.32336 c -0.2817,1.44872 -0.34107,2.94887 -0.23874,4.42149 0.036,0.51807 0.10727,1.03287 0.16096,1.54929 0.26444,1.32256 0.35371,2.03341 0.82787,3.3102 0.6438,1.73359 1.69038,3.60564 2.97128,4.91621 0.51375,0.52564 1.1159,0.94975 1.67384,1.42463 0.70599,0.39758 1.38517,0.85111 2.11798,1.19274 2.50788,1.16919 5.22241,1.75868 7.94393,2.05234 2.08835,0.22533 2.99695,0.18466 5.04777,0.20081 2.07196,-0.0417 4.15351,-0.1535 6.19487,-0.54218 l -1.24439,0.96943 0,0 c -2.00643,0.31943 -4.0418,0.39753 -6.0693,0.41212 -2.02953,-0.0371 -2.95489,-0.01 -5.02173,-0.24234 -2.74377,-0.30905 -5.47,-0.899 -8.00313,-2.07102 -0.74432,-0.34439 -1.47319,-0.76195 -2.14786,-1.22183 -0.58246,-0.44977 -1.18588,-0.88714 -1.70925,-1.41836 -1.29545,-1.31484 -2.36527,-3.20903 -3.02402,-4.95152 -0.47836,-1.26535 -0.58333,-2.01437 -0.85758,-3.32629 -0.0598,-0.51722 -0.13574,-1.0327 -0.17943,-1.55164 -0.12332,-1.46422 -0.0963,-2.95064 0.11786,-4.40412 z"
       inkscape:connector-curvature="0"
       sodipodi:nodetypes="cscsscsscccccsscsscscc" />
    <path class="svg-receptor"
       style="fill:#000000;fill-opacity:1;fill-rule:nonzero;stroke:none"
       id="path3121-7-0"
       d="m 139.15127,912.83878 c 0.0828,-0.21094 0.17219,-0.41988 0.24861,-0.63282 0.61418,-1.71153 1.11581,-3.45775 1.61918,-5.19778 0.54629,-1.88841 0.86701,-3.05994 1.39188,-4.94693 0.48799,-1.79586 0.96651,-3.59378 1.43508,-5.39391 0.0665,-0.25536 0.33743,-1.35192 0.46587,-1.70519 0.0446,-0.12243 0.1164,-0.23519 0.17466,-0.35277 0.39528,-0.15807 0.75392,-0.47697 1.18585,-0.47419 0.21654,9.7e-4 0.26354,0.31342 0.37073,0.48421 0.18513,0.29507 0.34316,0.60363 0.50422,0.91013 0.75701,1.44068 1.44895,2.91155 2.1631,4.36988 0.91942,1.8415 1.81583,3.6931 2.79919,5.50761 0.3869,0.71392 0.62522,1.12305 1.01953,1.81326 0.67154,1.19649 1.37004,2.37823 2.14731,3.52109 0.26895,0.38155 0.52157,0.77211 0.78182,1.15844 0.0983,0.13081 0.15387,0.27094 0.17533,0.42671 0.11129,0.59926 -0.32713,0.48148 -1.10099,0.86211 -1.42133,-0.0294 -2.78182,-0.0211 -4.1974,-0.0327 -2.08489,-0.008 -4.08079,-0.0256 -6.16777,-0.01 -0.98173,0.011 -1.79492,0.0455 -2.79836,0.014 -0.33702,-0.01 -1.03193,-0.009 -1.36908,-0.009 -0.17903,0 -0.35808,-0.88661 -0.53712,-0.88551 l 0.5095,-0.11861 -0.0941,0.0509 c 0.17773,0 0.86377,0.0172 1.04149,0.0166 0.33494,0 0.87711,-0.0349 1.21159,-0.0161 0.98922,0.0471 1.78758,0.0433 2.77425,0.0189 2.07858,0.0489 4.17953,0.1262 6.25777,0.0589 0.60481,0.0455 1.52085,0 2.13606,0.0389 0.63053,0.0399 1.26129,-0.0923 1.89517,0.2767 0.0754,-0.005 0.14984,-0.0149 0.22477,-0.0227 -0.28236,0.15804 -0.5674,0.31224 -0.84708,0.47422 -0.0285,0.0166 0.28232,-0.27748 0.0844,-0.0505 0.0188,-0.0602 -0.01,-0.13736 -0.0175,-0.19614 -0.0136,-0.14284 -0.0588,-0.26971 -0.14738,-0.39048 -0.25138,-0.39079 -0.48476,-0.79114 -0.7453,-1.17719 -0.75327,-1.15839 -1.46332,-2.33797 -2.11012,-3.54859 -0.38956,-0.7131 -0.60185,-1.09429 -0.98694,-1.83291 -0.95375,-1.82946 -1.83909,-3.68717 -2.75727,-5.53133 -0.72037,-1.45047 -1.42065,-2.9161 -2.2294,-4.32878 -0.16977,-0.29657 -0.34222,-0.59272 -0.53977,-0.87475 -0.10033,-0.14318 -0.41315,-0.23695 -0.35106,-0.39698 0.10008,-0.2581 0.46986,-0.34302 0.70477,-0.51454 -0.0715,0.11661 -0.16053,0.22568 -0.21443,0.34984 -0.16141,0.3719 -0.45788,1.44618 -0.54089,1.73377 -0.52266,1.81109 -1.03598,3.62442 -1.53988,5.43991 -0.90745,3.24029 -0.47081,1.66652 -1.37036,4.93795 -0.47119,1.71363 -1.23019,4.04716 -1.75541,5.7482 -0.0643,0.20794 0.0185,0.53328 -0.0498,0.74011 l -0.81703,0.011 z"
       inkscape:connector-curvature="0"
       sodipodi:nodetypes="ccscscccsscsccccccccccccccccsccccccccscssscsscssccc" />
    <path class="svg-receptor"
       style="fill:#000000"
       id="path4146"
       d="m 38.735703,5.9684505 c 0.09151,2.1435576 0.09502,4.2897425 0.173373,6.4336345 0.211621,5.790175 0.545321,11.380121 0.812856,17.191352 0.54491,11.836204 0.604116,14.280975 1.049298,26.451563 0.742854,23.231845 1.198855,46.4709 1.892112,69.70423 0.24467,6.08954 0.272113,12.18916 0.674783,18.27162 l -1.801146,0.93023 0,0 C 41.266952,138.80919 41.342195,132.6583 41.172344,126.51349 40.736907,103.22789 40.363293,79.939052 39.571222,56.662346 39.379143,52.03704 39.212108,47.410626 38.994984,42.786428 38.433254,30.822969 37.635914,17.943039 36.983315,5.9853091 z"
       inkscape:connector-curvature="0"
       transform="translate(0,802.36218)"
       sodipodi:nodetypes="csscccccccscc" />
    <path class="svg-receptor"
       style="fill:#000000"
       id="path4152"
       d="m 104.31533,142.99897 c 22.24843,0.0728 44.49933,0.064 66.73244,-0.83887 5.76702,-0.19651 11.52263,-0.72197 17.29375,-0.81169 2.02654,-0.0315 2.97866,0.10275 4.96869,0.13905 l 0.0424,0.94299 c -1.9966,0.0245 -5.1147,0.0435 -6.57384,0.06 -5.71061,0.0729 -11.40946,0.54161 -17.11788,0.68503 -22.13892,0.72865 -44.28917,0.65498 -66.43756,0.61682 -19.998041,0.0194 -41.621606,0.8898 -61.61899,1.07333 l 1.700453,-1.44005 c 21.013186,-0.85868 42.970015,-0.44348 61.010547,-0.42661 z"
       inkscape:connector-curvature="0"
       transform="translate(0,802.36218)"
       sodipodi:nodetypes="ccscccccccc" />
    <path class="svg-receptor"
       style="fill:#000000"
       id="path4174"
       d="m 38.644484,5.9610424 c 32.716573,0.4347526 66.904776,-0.082541 99.620696,-0.372512 16.68074,-0.1166328 34.42434,-0.2774827 51.10541,-0.305971 l -1.69583,1.0104118 C 172.3907,6.2076042 151.97501,6.0250792 137.56539,6.0978376 104.53228,6.3517354 71.500665,7.0379536 38.467729,7.3128217 z"
       inkscape:connector-curvature="0"
       transform="translate(0,802.36218)"
       sodipodi:nodetypes="ccccccc" />
    <path class="svg-receptor"
       style="fill:#000000"
       id="path4194"
       d="m 191.50455,142.37984 c 0.17974,-4.49122 -0.26028,-8.64241 -0.67031,-13.11007 -0.87691,-9.19941 -1.98142,-18.37455 -2.80249,-27.57925 -0.16335,-1.943329 -0.32471,-3.886831 -0.49007,-5.829996 -0.52887,-6.214811 -1.05393,-12.423996 -1.38383,-18.653574 -0.31772,-5.999419 -0.31633,-7.15004 -0.49015,-13.110159 -0.23486,-9.202882 -0.28865,-18.40573 0.0506,-27.605507 0.1453,-3.68517 0.31167,-7.369702 0.40937,-11.056551 0.0895,-2.068243 0.37354,-4.119502 0.54527,-6.181115 0.27224,-2.659161 0.36836,-5.330652 0.58843,-7.993921 0.13286,-1.4720515 0.23533,-2.9466383 0.28537,-4.4238632 0.0113,-0.4462978 0.007,-0.2325393 0.0144,-0.6412678 l 1.87474,-0.9500181 0,0 c -0.0104,0.4134552 -0.004,0.1972073 -0.0212,0.6487179 -0.0658,1.4858386 -0.1699,2.9695347 -0.31526,4.4498342 -0.24125,2.660676 -0.33746,5.330186 -0.58399,7.990498 -0.16349,2.059134 -0.45379,4.105975 -0.54754,6.170794 -0.13513,3.706847 -0.36245,7.409686 -0.52226,11.115479 -0.0982,2.272939 -0.21727,4.789466 -0.27017,7.054342 -0.16052,6.871584 -0.0317,13.747586 0.0586,20.618927 0.17312,6.274471 0.14555,6.784803 0.48981,13.103771 0.33905,6.223364 0.86552,12.427298 1.41014,18.635104 0.17016,1.939631 0.33932,3.879351 0.50898,5.819025 0.85944,9.19043 1.99136,18.35201 2.8755,27.5402 0.44589,4.44244 0.88935,8.88778 0.79574,13.35903 -0.67534,0.18086 -1.318,0.30792 -1.80968,0.62957 z"
       inkscape:connector-curvature="0"
       transform="translate(0,802.36218)"
       sodipodi:nodetypes="cccssccccccccccccccscsscccc" />
    <path class="svg-receptor"
       style="fill:#000000"
       id="path4196"
       d="m 117.41926,143.78094 c -0.0445,4.34281 -0.0552,8.68596 -0.0713,13.02896 -0.0445,5.24005 -0.0333,-0.56871 0.0628,4.6702 -0.80259,0.41365 -0.43991,0.60747 -1.70226,-0.0131 -0.0708,-5.23757 -0.0842,1.45729 -0.0801,-3.78093 -0.0161,-4.31877 -0.0267,-9.69835 -0.0713,-14.01693 l 1.86217,0.11184 z"
       inkscape:connector-curvature="0"
       transform="translate(0,802.36218)"
       sodipodi:nodetypes="cccccccc" />
    <path class="svg-receptor"
       style="fill:#000000"
       id="path4262"
       d="m 45.144205,161.22461 c 17.153042,-0.3418 34.307437,-0.12269 51.460776,0.0426 20.441439,0.14556 40.882479,0.34492 61.324059,0.47215 12.62545,0.0115 25.24959,0.17631 37.87409,0.31017 7.44266,0.30425 5.77147,0.10455 9.62846,0.24093 l -0.21336,1.17014 c -4.9315,0.13399 -9.77756,-0.23133 -11.00193,-0.2509 -12.56704,-0.1688 -25.03976,-0.45291 -37.60803,-0.51237 -20.42504,-0.20155 -40.84991,-0.41957 -61.27586,-0.50722 -17.19594,-0.1299 -34.393606,-0.32183 -51.588223,0.0547 -8.839004,0.14403 -3.821407,0.0376 -12.646573,0.5966 l 0.162286,-1.04836 c 9.088094,-0.4068 6.215076,-0.47821 13.884305,-0.56844 z"
       inkscape:connector-curvature="0"
       transform="translate(0,802.36218)"
       sodipodi:nodetypes="ccccccccccccc" />
    <path class="svg-receptor"
       style="fill:#000000"
       id="path4268"
       d="m 31.273061,964.15993 c -0.478413,3.4066 -0.7771,7.48762 -0.857697,10.92199 -0.03824,4.41356 -0.147735,8.68716 0.543769,13.93547 -1.533306,0.32223 -0.683912,0.15793 -1.904288,0.2039 -0.165555,-4.41095 -0.452981,-8.81937 -0.423882,-13.23529 0.07597,-3.43064 0.327458,-8.31085 0.820278,-11.75609 z"
       inkscape:connector-curvature="0"
       sodipodi:nodetypes="ccccccc" />
    <path class="svg-receptor"
       style="fill:#000000"
       id="path4318"
       d="m 12.128313,988.92917 c 8.361161,0.22652 17.02974,0.0996 25.393871,0.0653 5.510215,0.19013 11.143749,-0.44318 16.63767,0.14343 0.202598,0.0687 0.433183,0.0824 0.607795,0.20598 0.634755,0.44923 0.266267,2.35103 0.228783,2.84911 -0.249412,3.31409 -0.0959,1.0742 -0.331169,4.78042 -0.319687,5.46209 -0.42711,10.93319 -0.484422,16.40329 0.01265,2.5617 0.0032,5.1207 -0.201902,7.675 -0.132301,1.9561 0.06972,2.0991 -2.30891,2.7417 -2.49537,0.2456 -5.299126,0.1723 -7.80456,0.17 -5.330305,-0.2362 -10.660982,-0.4519 -15.994664,-0.5959 -5.784483,-0.089 -11.552902,-1.3616 -17.101004,-0.2358 -0.286589,-0.723 -0.155174,-3.7807 -0.198814,-4.4669 -0.157679,-3.98 -0.181727,-7.9641 -0.205556,-11.9467 -0.04086,-3.0435 -0.3695208,-6.0722 -0.5660708,-9.10758 -0.06914,-1.66322 -0.229192,-3.32882 -0.08263,-4.99115 0.04252,-0.80622 0.148422,-1.64553 0.4386628,-2.38728 0.130041,-0.30692 0.232294,-0.79904 0.356136,-1.10851 l 1.616232,-0.19311 c -1.134365,2.44259 -0.607101,5.2713 -0.506962,7.73767 0.182004,3.04523 0.494889,6.08406 0.535824,9.13616 0.0155,3.9741 0.02256,7.951 0.227628,11.9209 0.06767,0.9174 0.09096,1.4917 0.217754,2.3717 0.03191,0.2215 0.09153,1.0704 0.350445,1.2639 0.04559,0.034 0.112209,0.019 0.168314,0.029 2.870209,-0.2193 5.575485,-0.065 8.124534,0.1148 2.741206,0.2901 5.481629,0.6237 8.239974,0.698 5.336066,0.1739 10.670085,0.4009 16.005876,0.58 2.510474,-0.013 5.063418,0.094 7.549847,-0.2797 -1.532751,0.9562 -1.16085,1.0177 -0.928214,-0.5202 0.247319,-2.5632 0.312351,-5.1331 0.302008,-7.7081 0.07778,-5.4739 0.186919,-10.9482 0.487796,-16.41528 0.209332,-3.86588 0.06448,-1.31753 0.274133,-4.75356 0.02996,-0.49105 0.06929,-0.98167 0.08779,-1.47328 0.0319,-0.84764 0.05188,-1.09441 -0.785858,-1.30089 -5.424547,-0.64298 -10.981293,-0.0618 -16.425415,-0.2683 -8.438903,0.0239 -15.958945,0.11246 -24.396798,0.0293 0.205944,-0.88228 0.244266,-0.65892 0.471876,-1.16302 z"
       inkscape:connector-curvature="0"
       sodipodi:nodetypes="ccccscccccccccccccccccccccccccccsscccc" />
    <path class="svg-receptor"
       style="fill:#000000"
       id="path4268-8"
       d="m 117.49368,963.79285 c -0.47841,3.4066 -0.7771,7.48762 -0.85769,10.92199 -0.0382,4.41356 -0.14774,8.68716 0.54376,13.93547 -1.5333,0.32223 -0.68391,0.15793 -1.90428,0.2039 -0.16556,-4.41095 -0.45298,-8.81937 -0.42389,-13.23529 0.076,-3.43064 0.26496,-7.98273 0.75778,-11.42797 z"
       inkscape:connector-curvature="0"
       sodipodi:nodetypes="ccccccc" />
    <path class="svg-receptor"
       style="fill:#000000"
       id="path4318-0"
       d="m 98.348953,988.56209 c 8.361147,0.22652 17.029717,0.0996 25.393857,0.0653 5.51021,0.19013 11.14374,-0.44318 16.63767,0.14343 0.20259,0.0687 0.43318,0.0824 0.60779,0.20598 0.63476,0.44923 0.26627,2.35103 0.22878,2.84911 -0.24941,3.31409 -0.0959,1.0742 -0.33117,4.78042 -0.31968,5.46207 -0.42711,10.93317 -0.48442,16.40327 0.0126,2.5617 0.003,5.1207 -0.2019,7.675 -0.1323,1.9561 0.0697,2.0991 -2.30891,2.7417 -2.49537,0.2456 -5.29913,0.1723 -7.80456,0.17 -5.3303,-0.2362 -10.66098,-0.4519 -15.99466,-0.5959 -5.78449,-0.089 -11.55291,-1.3616 -17.100989,-0.2358 -0.286589,-0.723 -0.155174,-3.7807 -0.198814,-4.4669 -0.157679,-3.98 -0.181727,-7.9641 -0.205556,-11.9467 -0.04086,-3.0435 -0.369521,-6.0722 -0.566071,-9.10756 -0.06914,-1.66322 -0.229192,-3.32882 -0.08263,-4.99115 0.04252,-0.80622 0.148422,-1.64553 0.438663,-2.38728 0.130041,-0.30692 0.232294,-0.79904 0.356136,-1.10851 l 1.616232,-0.19311 c -1.134365,2.44259 -0.607101,5.2713 -0.506962,7.73767 0.182004,3.04523 0.494889,6.08404 0.535824,9.13614 0.0155,3.9741 0.02256,7.951 0.227628,11.9209 0.06767,0.9174 0.09096,1.4917 0.217754,2.3717 0.03191,0.2215 0.09153,1.0704 0.350445,1.2639 0.04559,0.034 0.112209,0.019 0.168314,0.029 2.870186,-0.2193 5.575466,-0.065 8.124516,0.1148 2.74121,0.2901 5.48163,0.6237 8.23997,0.698 5.33607,0.1739 10.67009,0.4009 16.00588,0.58 2.51047,-0.013 5.06342,0.094 7.54985,-0.2797 -1.53275,0.9562 -1.16085,1.0177 -0.92822,-0.5202 0.24732,-2.5632 0.31235,-5.1331 0.30201,-7.7081 0.0778,-5.4739 0.18692,-10.9482 0.4878,-16.41526 0.20933,-3.86588 0.0645,-1.31753 0.27413,-4.75356 0.03,-0.49105 0.0693,-0.98167 0.0878,-1.47328 0.0319,-0.84764 0.0519,-1.09441 -0.78586,-1.30089 -5.42455,-0.64298 -10.98129,-0.0618 -16.42541,-0.2683 -8.43891,0.0239 -15.95895,0.11246 -24.396783,0.0293 0.205944,-0.88228 0.244266,-0.65892 0.471876,-1.16302 z"
       inkscape:connector-curvature="0"
       sodipodi:nodetypes="ccccscccccccccccccccccccccccccccsscccc" />
    <path class="svg-receptor"
       style="fill:#000000"
       id="path4268-0"
       d="m 205.37628,964.95445 c -0.47841,3.4066 -0.7771,7.48762 -0.85769,10.92199 -0.0382,4.41356 -0.14774,8.68716 0.54377,13.93547 -1.53331,0.32223 -0.68392,0.15793 -1.90429,0.2039 -0.16556,-4.41095 -0.45298,-8.81937 -0.42388,-13.23529 0.076,-3.43064 0.26495,-7.98273 0.75777,-11.42797 z"
       inkscape:connector-curvature="0"
       sodipodi:nodetypes="ccccccc" />
    <path class="svg-receptor"
       style="fill:#000000"
       id="path4318-4"
       d="m 186.23153,989.72369 c 8.36117,0.22652 17.02975,0.0996 25.39388,0.0653 5.51021,0.19013 11.14375,-0.44318 16.63767,0.14343 0.20259,0.0687 0.43318,0.0824 0.60779,0.20598 0.63476,0.44923 0.26627,2.35103 0.22878,2.84911 -0.24941,3.31409 -0.0959,1.0742 -0.33116,4.78042 -0.31969,5.46207 -0.42711,10.93317 -0.48443,16.40327 0.0126,2.5617 0.003,5.1207 -0.2019,7.675 -0.1323,1.9561 0.0697,2.0991 -2.30891,2.7417 -2.49537,0.2456 -5.29912,0.1723 -7.80456,0.17 -5.3303,-0.2362 -10.66098,-0.4519 -15.99466,-0.5959 -5.78449,-0.089 -11.55291,-1.3616 -17.10101,-0.2358 -0.28659,-0.723 -0.15517,-3.7807 -0.19881,-4.4669 -0.15768,-3.98 -0.18173,-7.9641 -0.20556,-11.9467 -0.0409,-3.0435 -0.36952,-6.0722 -0.56607,-9.10756 -0.0691,-1.66322 -0.22919,-3.32882 -0.0826,-4.99115 0.0425,-0.80622 0.14842,-1.64553 0.43866,-2.38728 0.13005,-0.30692 0.2323,-0.79904 0.35614,-1.10851 l 1.61623,-0.19311 c -1.13436,2.44259 -0.6071,5.2713 -0.50696,7.73767 0.182,3.04524 0.49489,6.08404 0.53582,9.13614 0.0155,3.9741 0.0226,7.951 0.22763,11.9209 0.0677,0.9174 0.091,1.4917 0.21776,2.3717 0.0319,0.2215 0.0915,1.0704 0.35044,1.2639 0.0456,0.034 0.11221,0.019 0.16832,0.029 2.8702,-0.2193 5.57548,-0.065 8.12453,0.1148 2.74121,0.2901 5.48163,0.6237 8.23997,0.698 5.33607,0.1739 10.67009,0.4009 16.00588,0.58 2.51047,-0.013 5.06342,0.094 7.54985,-0.2797 -1.53275,0.9562 -1.16085,1.0177 -0.92822,-0.5202 0.24732,-2.5632 0.31235,-5.1331 0.30201,-7.7081 0.0778,-5.4739 0.18692,-10.9482 0.4878,-16.41526 0.20933,-3.86588 0.0645,-1.31753 0.27413,-4.75356 0.03,-0.49105 0.0693,-0.98167 0.0878,-1.47328 0.0319,-0.84764 0.0519,-1.09441 -0.78586,-1.30089 -5.42454,-0.64298 -10.98129,-0.0618 -16.42541,-0.2683 -8.43891,0.0239 -15.95895,0.11246 -24.3968,0.0293 0.20594,-0.88228 0.24426,-0.65892 0.47187,-1.16302 z"
       inkscape:connector-curvature="0"
       sodipodi:nodetypes="ccccscccccccccccccccccccccccccccsscccc" />
  </g>
</svg>
