<svg
   width="162.08363"
   height="194.34947">
  <g
     transform="translate(-23.003897,-30.39279)">
    <g
       transform="translate(66.964256,-719.78573)">
      <path
         d="m -22.014819,836.15123 c -0.62873,3.82229 -0.76126,7.7803 -0.53285,11.66568 0.0804,1.36688 0.23949,2.72511 0.35922,4.08768 0.59023,3.48944 0.7895,5.36497 1.84782,8.73365 1.43695,4.57392 3.77289,9.51315 6.63188,12.97097 1.14666,1.38684 2.49066,2.50585 3.7359801,3.75877 1.57577,1.04898 3.09167,2.24555 4.72727,3.14692 5.59755996,3.0848 11.65637,4.6401 17.7307499,5.4149 4.66114,0.59453 6.68915,0.48722 11.26655,0.52983 4.6246,-0.11013 9.27057,-0.405 13.82687,-1.43052 l -2.77747,2.55778 0,0 c -4.47834,0.84279 -9.02123,1.04885 -13.54658,1.08734 -4.52988,-0.0978 -6.59527,-0.0252 -11.20843,-0.6394 -6.1240599,-0.81538 -12.2089799,-2.37189 -17.8628599,-5.46417 -1.66133,-0.90865 -3.2881501,-2.01036 -4.7940201,-3.22369 -1.30002,-1.18669 -2.64686,-2.34064 -3.81503,-3.74221 -2.89139,-3.4691 -5.27923,-8.46674 -6.74955,-13.06416 -1.06769,-3.33849 -1.30199,-5.31473 -1.91411,-8.77611 -0.1335,-1.36462 -0.30297,-2.72468 -0.40051,-4.09385 -0.27522,-3.8632 -0.21495,-7.78498 0.26312,-11.61988 z"
         id="path3035-3-7"
         style="fill:#000000;fill-opacity:1;fill-rule:nonzero;stroke:none"
         class="svg-receptor" />
      <path
         d="m -18.080919,932.49399 c 0.18497,-0.5566 0.38433,-1.1079 0.55489,-1.6697 1.37087,-4.5155 2.4905,-9.123 3.61401,-13.7139 1.21931,-4.98253 1.93515,-8.07358 3.10667,-13.05202 1.0891801,-4.73825 2.1572001,-9.48196 3.2030501,-14.23141 0.14837,-0.67372 0.75318,-3.5669 1.03983,-4.499 0.0993,-0.32301 0.25991,-0.6205 0.38986,-0.93075 0.88226,-0.41703 1.68271,-1.25845 2.64679,-1.2511 0.48331,0.003 0.58822,0.82692 0.82743,1.27753 0.41325,0.77852 0.76595,1.59263 1.12542,2.4013 1.68964996,3.80108 3.23403,7.68182 4.82802,11.52953 2.05215,4.85859 4.05293,9.74383 6.24777,14.5312 0.8635599,1.88377 1.3954799,2.96314 2.2755699,4.78422 1.49887,3.157 3.05788,6.2749 4.79277,9.2902 0.60028,1.0067 1.16411,2.0372 1.74499,3.0566 0.21913,0.345 0.34346,0.7148 0.39135,1.1257 0.24839,1.5811 -0.73016,1.2703 -2.45741,2.2746 -3.17239,-0.078 -6.20899,-0.056 -9.3685299,-0.086 -4.65342,-0.021 -9.10827,-0.067 -13.76639,-0.026 -2.1912,0.028 -4.0062201,0.1207 -6.2458901,0.037 -0.75223,-0.026 -2.30326,-0.023 -3.05575,-0.022 -0.39964,0 -0.79925,-2.3392 -1.19886,-2.3362 l 1.13719,-0.3131 -0.2101,0.1353 c 0.39668,0 1.92791,0.045 2.3246,0.043 0.74758,0 1.95766,-0.092 2.70422,-0.041 2.2079501,0.1245 3.9898601,0.1136 6.1921201,0.05 4.63932996,0.1279 9.32863,0.333 13.96724,0.1554 1.3499299,0.1203 3.3945299,0 4.7676399,0.103 1.40735,0.106 2.81522,-0.2438 4.23001,0.7299 0.16811,-0.01 0.33445,-0.04 0.50169,-0.059 -0.63024,0.4172 -1.26643,0.824 -1.8907,1.2512 -0.0635,0.043 0.63017,-0.7319 0.1885,-0.1334 0.0419,-0.1585 -0.0217,-0.3623 -0.0392,-0.5173 -0.0304,-0.377 -0.13133,-0.7118 -0.32895,-1.0305 -0.56107,-1.031 -1.082,-2.0873 -1.66353,-3.1058 -1.68127,-3.0562 -3.2661,-6.1685 -4.7097399,-9.3629 -0.86949,-1.8813 -1.34334,-2.88704 -2.20284,-4.83595 -2.12876,-4.82684 -4.10481,-9.72816 -6.15419,-14.59369 -1.60787004,-3.82701 -3.17088,-7.69399 -4.97596,-11.42121 -0.37894,-0.78243 -0.76385,-1.56382 -1.20479,-2.30791 -0.22387,-0.37779 -0.92214,-0.62515 -0.78352,-1.0474 0.22354,-0.68098 1.04867,-0.90505 1.573,-1.35756 -0.15953,0.30767 -0.35831,0.59544 -0.47858,0.92302 -0.36028,0.98122 -1.02202,3.8156 -1.20726,4.57438 -1.16659,4.77836 -2.31233,9.56271 -3.437,14.35266 -2.0254201,8.54912 -1.0508501,4.39696 -3.0586301,13.02846 -1.0517,4.5213 -2.74578,10.6781 -3.91806,15.1662 -0.14331,0.5486 0.0415,1.4071 -0.11112,1.9527 l -1.82362,0.028 z"
         id="path3121-5-9"
         style="fill:#000000;fill-opacity:1;fill-rule:nonzero;stroke:none"
         class="svg-receptor" />
      <path
         d="m 15.072761,757.06428 c -0.53785,2.91993 -0.65122,5.94354 -0.45583,8.91166 0.0687,1.04418 0.20487,2.08177 0.30731,3.12267 0.50489,2.66566 0.67536,4.09842 1.5807,6.67182 1.22924,3.49411 3.2275,7.26731 5.67322,9.9088 0.9809,1.05944 2.13063,1.91427 3.19593,2.8714 1.34798,0.80133 2.64477,1.71542 4.04393,2.404 4.78841,2.35654 9.9714,3.54468 15.1677,4.13656 3.98737,0.45418 5.72221,0.3722 9.63794,0.40475 3.9561,-0.0842 7.93048,-0.30939 11.82815,-1.0928 l -2.37599,1.95393 0,0 c -3.83097,0.64383 -7.71717,0.80125 -11.58837,0.83066 -3.87506,-0.0748 -5.6419,-0.0193 -9.5882,-0.48845 -5.23881,-0.6229 -10.44414,-1.81197 -15.28073,-4.17422 -1.42117,-0.69412 -2.81283,-1.53575 -4.10104,-2.46263 -1.11209,-0.90654 -2.26423,-1.78807 -3.26355,-2.85875 -2.47343,-2.65013 -4.5161,-6.46793 -5.77387,-9.97999 -0.91336,-2.55035 -1.11379,-4.06004 -1.63741,-6.70427 -0.11421,-1.04246 -0.25919,-2.08144 -0.34263,-3.12737 -0.23544,-2.95117 -0.18388,-5.94712 0.22509,-8.87668 z"
         id="path3035-0-2-0"
         style="fill:#000000;fill-opacity:1;fill-rule:nonzero;stroke:none"
         class="svg-receptor" />
      <path
         d="m 18.438001,830.66245 c 0.15823,-0.42509 0.32877,-0.84631 0.47469,-1.27542 1.17269,-3.44958 2.13048,-6.96929 3.09159,-10.4764 1.04305,-3.80616 1.65541,-6.16742 2.65759,-9.97065 0.93173,-3.61962 1.84536,-7.24348 2.74004,-10.87167 0.12692,-0.51467 0.64429,-2.72483 0.88951,-3.43688 0.085,-0.24676 0.22235,-0.47401 0.33351,-0.71101 0.75473,-0.31859 1.43947,-0.96137 2.26418,-0.95576 0.41345,0.003 0.50319,0.63171 0.70783,0.97595 0.35352,0.59472 0.65523,1.21664 0.96273,1.83439 1.44541,2.90374 2.76654,5.86832 4.13012,8.80763 1.7555,3.71162 3.46706,7.44354 5.34463,11.10082 0.73873,1.43897 1.19376,2.2635 1.94663,3.65465 1.2822,2.41171 2.61585,4.79358 4.09996,7.09698 0.5135,0.76914 0.99584,1.55626 1.49273,2.33496 0.18746,0.26353 0.29382,0.54601 0.33478,0.85998 0.21249,1.20783 -0.62459,0.97044 -2.10216,1.73761 -2.71383,-0.0593 -5.31147,-0.0429 -8.01428,-0.0659 -3.98077,-0.0157 -7.79164,-0.0519 -11.77642,-0.0198 -1.87444,0.0214 -3.42711,0.0921 -5.34302,0.0281 -0.64349,-0.0198 -1.97032,-0.0173 -2.61404,-0.0165 -0.34187,0 -0.68371,-1.78698 -1.02556,-1.78467 l 0.97281,-0.23921 -0.17974,0.10337 c 0.33934,8e-5 1.64924,0.0355 1.98858,0.0338 0.63952,0 1.67469,-0.0701 2.31332,-0.0321 1.88878,0.0949 3.41312,0.0867 5.29703,0.0387 3.9687,0.0977 7.98014,0.25438 11.94823,0.11869 1.15478,0.0918 2.90383,0 4.07845,0.0782 1.20392,0.0807 2.40827,-0.18621 3.61855,0.55763 0.14381,-0.009 0.28611,-0.0306 0.42916,-0.0453 -0.53912,0.31867 -1.08335,0.62944 -1.61738,0.95585 -0.0544,0.033 0.53907,-0.5592 0.16125,-0.10196 0.0359,-0.12109 -0.0185,-0.2768 -0.0335,-0.39524 -0.026,-0.28793 -0.11236,-0.54371 -0.28141,-0.78713 -0.47996,-0.7876 -0.92559,-1.5945 -1.42305,-2.37263 -1.43824,-2.33472 -2.79398,-4.71231 -4.02894,-7.15244 -0.74379,-1.43723 -1.14915,-2.20556 -1.88441,-3.69431 -1.82104,-3.6873 -3.51144,-7.43159 -5.26458,-11.1485 -1.37544,-2.92353 -2.71252,-5.87757 -4.25667,-8.72487 -0.32416,-0.59773 -0.65343,-1.19465 -1.03063,-1.76307 -0.1915,-0.2886 -0.78885,-0.47756 -0.67027,-0.80013 0.19124,-0.52022 0.89709,-0.69138 1.34563,-1.03707 -0.13647,0.23503 -0.30652,0.45486 -0.4094,0.70512 -0.3082,0.74957 -0.87428,2.91482 -1.03275,3.49446 -0.99795,3.65032 -1.97807,7.30515 -2.94016,10.9643 -1.73265,6.53095 -0.89896,3.35889 -2.6165,9.95265 -0.89968,3.45403 -2.34888,8.15734 -3.3517,11.58581 -0.12259,0.41907 0.0355,1.07488 -0.0951,1.49172 l -1.56001,0.0214 z"
         id="path3121-7-2-1"
         style="fill:#000000;fill-opacity:1;fill-rule:nonzero;stroke:none"
         class="svg-receptor" />
      <path
         d="m 62.574541,847.34462 c -0.36491,2.1535 -0.44182,4.38347 -0.30926,6.57251 0.0466,0.77012 0.13899,1.53535 0.20849,2.30303 0.34255,1.96597 0.45821,3.02266 1.07243,4.92059 0.83399,2.57696 2.18972,5.35977 3.84902,7.30793 0.6655,0.78136 1.44553,1.41182 2.1683,2.1177 0.91454,0.591 1.79434,1.26517 2.74361,1.77301 3.24872,1.738 6.76514,2.61426 10.2906,3.05079 2.70525,0.33496 3.88227,0.2745 6.5389,0.29852 2.68404,-0.0621 5.38047,-0.22819 8.02486,-0.80597 l -1.612,1.44105 0,0 c -2.59914,0.47485 -5.23575,0.59094 -7.86217,0.61264 -2.62906,-0.0552 -3.82779,-0.0142 -6.50517,-0.36026 -3.55429,-0.45938 -7.08587,-1.33634 -10.36728,-3.07855 -0.96419,-0.51192 -1.90837,-1.13265 -2.78236,-1.81623 -0.7545,-0.66859 -1.53617,-1.31875 -2.21416,-2.10839 -1.67812,-1.95451 -3.06397,-4.77022 -3.91731,-7.36043 -0.61968,-1.88094 -0.75566,-2.99435 -1.11092,-4.94453 -0.0774,-0.76883 -0.17584,-1.53509 -0.23245,-2.3065 -0.15973,-2.17654 -0.12476,-4.3861 0.15271,-6.54671 z"
         id="path3035-0-7-0-9"
         style="fill:#000000;fill-opacity:1;fill-rule:nonzero;stroke:none"
         class="svg-receptor" />
      <path
         d="m 64.857701,901.62469 c 0.10735,-0.31357 0.22306,-0.62418 0.32205,-0.9407 0.79562,-2.54417 1.44544,-5.13994 2.09751,-7.72648 0.70766,-2.80713 1.12311,-4.54861 1.80304,-7.35362 0.63214,-2.66954 1.25201,-5.34214 1.859,-8.01803 0.0861,-0.37958 0.43712,-2.00962 0.60349,-2.53477 0.0577,-0.18198 0.15085,-0.34958 0.22627,-0.52439 0.51204,-0.23495 0.97662,-0.70901 1.53614,-0.70488 0.28051,0.002 0.3414,0.4659 0.48023,0.71978 0.23984,0.43862 0.44454,0.8973 0.65317,1.3529 0.98064,2.14159 1.87698,4.32803 2.80209,6.49582 1.19104,2.73739 2.35225,5.48979 3.6261,8.18704 0.50119,1.06127 0.8099,1.66943 1.3207,2.69543 0.86992,1.77859 1.77473,3.53523 2.78163,5.23409 0.3484,0.56719 0.67563,1.14773 1.01276,1.72203 0.12718,0.19439 0.19934,0.40278 0.22713,0.63427 0.14416,0.89086 -0.42377,0.71576 -1.42622,1.28156 -1.84121,-0.0438 -3.6036,-0.0313 -5.43734,-0.0485 -2.70075,-0.0114 -5.28626,-0.038 -7.98975,-0.0152 -1.27172,0.0152 -2.32514,0.0675 -3.62499,0.0209 -0.43658,-0.0152 -1.33678,-0.0133 -1.77351,-0.0124 -0.23194,0 -0.46387,-1.31799 -0.69579,-1.31627 l 0.66,-0.17633 -0.12193,0.0761 c 0.23022,0 1.11892,0.0257 1.34915,0.0247 0.43388,0 1.13619,-0.0523 1.56948,-0.0237 1.28145,0.0704 2.31563,0.0646 3.59378,0.0276 2.69259,0.0722 5.41417,0.18756 8.10633,0.0875 0.78347,0.0675 1.97012,0 2.76706,0.058 0.81679,0.0589 1.63388,-0.13733 2.45501,0.41134 0.0976,-0.01 0.19411,-0.0219 0.29117,-0.0342 -0.36578,0.23492 -0.735,0.46422 -1.09732,0.70493 -0.0368,0.0247 0.36574,-0.41248 0.1094,-0.0751 0.0244,-0.0894 -0.0125,-0.20419 -0.0227,-0.29159 -0.0177,-0.21237 -0.0762,-0.40097 -0.19093,-0.58044 -0.32562,-0.58091 -0.62795,-1.17608 -0.96547,-1.7499 -0.97578,-1.72196 -1.89559,-3.47538 -2.73344,-5.27497 -0.50464,-1.06004 -0.77965,-1.62667 -1.2785,-2.72463 -1.23549,-2.71949 -2.38235,-5.48097 -3.57177,-8.22231 -0.93318,-2.1561 -1.84032,-4.33478 -2.88796,-6.43473 -0.21992,-0.44083 -0.44332,-0.88106 -0.69924,-1.30029 -0.12992,-0.21285 -0.53519,-0.35221 -0.45475,-0.59011 0.12975,-0.38367 0.60864,-0.5099 0.91296,-0.76486 -0.0926,0.17334 -0.20796,0.33548 -0.27776,0.52003 -0.2091,0.55284 -0.59316,2.14973 -0.70068,2.57723 -0.67706,2.69219 -1.34203,5.3877 -1.99476,8.08643 -1.17552,4.81668 -0.6099,2.47726 -1.77517,7.34024 -0.61039,2.54732 -1.5936,6.01609 -2.27398,8.54472 -0.0831,0.3091 0.0241,0.79272 -0.0645,1.1002 l -1.0584,0.0152 z"
         id="path3121-7-0-7-8"
         style="fill:#000000;fill-opacity:1;fill-rule:nonzero;stroke:none"
         class="svg-receptor" />
      <path
         d="m -42.143929,751.18556 c 0.0949,2.98195 0.0985,5.96757 0.17971,8.94999 0.21935,8.05486 0.56525,15.83118 0.84256,23.91533 0.56483,16.46566 0.62619,19.86665 1.08764,36.79747 0.77,32.31843 1.24267,64.64688 1.96126,96.96734 0.25361,8.4715 0.28206,16.9567 0.69944,25.4182 l -1.86697,1.2941 0,0 c -0.27989,-8.5441 -0.2019,-17.1009 -0.37796,-25.649 -0.45134,-32.39328 -0.83861,-64.79101 -1.65962,-97.17183 -0.1991,-6.43438 -0.37225,-12.87031 -0.5973,-19.30316 -0.58226,-16.64267 -1.40874,-34.56029 -2.08519,-51.195 z"
         id="path4146-1-8"
         style="fill:#000000"
         class="svg-receptor" />
      <path
         d="m 25.832221,941.81249 c 23.06147,0.1013 46.12548,0.09 69.17106,-1.1671 5.977769,-0.2734 11.943709,-1.0043 17.925729,-1.129 2.10059,-0.043 3.08751,0.1428 5.15026,0.1934 l 0.044,1.3117 c -2.06957,0.035 -5.30162,0.06 -6.81407,0.083 -5.9193,0.1013 -11.826409,0.7533 -17.743429,0.953 -22.94794,1.0135 -45.90764,0.9112 -68.86542,0.8579 -20.7288399,0.028 -43.1426,1.2378 -63.87076,1.4933 l 1.7626,-2.0033 c 21.78108,-1.1947 44.5402801,-0.617 63.24008,-0.5935 z"
         id="path4152-1-0"
         style="fill:#000000"
         class="svg-receptor" />
      <path
         d="m -42.238479,751.17525 c 33.9121501,0.6048 69.34971,-0.11477 103.26119,-0.51821 17.2903,-0.16226 35.68232,-0.38601 52.972979,-0.42565 l -1.75781,1.40561 c -15.842589,-0.1188 -37.004349,-0.37267 -51.940529,-0.27146 -34.24026,0.35321 -68.4789699,1.30784 -102.71904,1.69019 z"
         id="path4174-1-8"
         style="fill:#000000"
         class="svg-receptor" />
      <path
         d="m 116.20763,940.95099 c 0.1863,-6.2477 -0.2698,-12.0225 -0.69481,-18.2378 -0.90895,-12.79759 -2.05382,-25.56127 -2.9049,-38.36617 -0.16932,-2.70341 -0.33658,-5.40708 -0.50799,-8.11025 -0.54819,-8.6456 -1.09243,-17.28335 -1.43438,-25.94948 -0.32935,-8.34595 -0.3279,-9.94662 -0.50808,-18.23789 -0.24344,-12.80236 -0.29919,-25.60468 0.0524,-38.40273 0.15062,-5.12655 0.32307,-10.25221 0.42433,-15.38106 0.0928,-2.87719 0.38719,-5.73076 0.5652,-8.59871 0.28219,-3.69923 0.38181,-7.41561 0.60993,-11.12054 0.13772,-2.04782 0.24393,-4.09915 0.29579,-6.15415 0.0117,-0.62086 0.007,-0.32351 0.015,-0.89209 l 1.94324,-1.3216 0,0 c -0.0108,0.57518 -0.004,0.27434 -0.022,0.90244 -0.0682,2.06699 -0.17612,4.13099 -0.32678,6.19027 -0.25008,3.70135 -0.34979,7.41497 -0.60534,11.11581 -0.16946,2.86451 -0.47037,5.71194 -0.56755,8.58435 -0.14007,5.15669 -0.37569,10.30779 -0.54134,15.46302 -0.10179,3.16194 -0.22521,6.66277 -0.28005,9.8135 -0.16639,9.55923 -0.0329,19.12461 0.0607,28.68351 0.17945,8.72859 0.15088,9.43851 0.50772,18.22899 0.35143,8.6575 0.89715,17.28795 1.46167,25.9238 0.17638,2.69827 0.35171,5.39667 0.52759,8.09499 0.89084,12.78507 2.06412,25.52997 2.98056,38.31189 0.46219,6.1801 0.92187,12.3641 0.82483,18.5842 -0.70002,0.2517 -1.36617,0.4284 -1.87581,0.8757 z"
         id="path4194-7-3"
         style="fill:#000000"
         class="svg-receptor" />
    </g>
  </g>
</svg>
